<svg xmlns="http://www.w3.org/2000/svg" xmlns:xlink="http://www.w3.org/1999/xlink" width="33" height="45" viewBox="0 0 33 45">
  <defs>
    <clipPath id="clip-path">
      <rect id="Rectangle_2156" data-name="Rectangle 2156" width="33" height="45" transform="translate(16.934 1874)" fill="#fff" stroke="#707070" stroke-width="1"/>
    </clipPath>
  </defs>
  <g id="Mask_Group_84" data-name="Mask Group 84" transform="translate(-16.934 -1874)" clip-path="url(#clip-path)">
    <g id="Group_13369" data-name="Group 13369" transform="translate(-545.381 674.972)">
      <path id="Path_2368" data-name="Path 2368" d="M15.432,10.579s-.04-.057-.1-.16c-.014-.023-.029-.046-.042-.069A15.871,15.871,0,0,1,12.52,15.8,15.285,15.285,0,0,1,9.175,18.84c-1.192.826-1.884,1.193-2.892,1.807C3.261,22.2-.1,25.035.591,29.424a6.988,6.988,0,0,0,3.382,5.308c.367-.048.74-.115,1.117-.2,5.818-1.306,12.818-11.868,12.426-25.691a6.966,6.966,0,0,1-2.084,1.737" transform="translate(565.881 1202.378)" fill="#ffd0cc"/>
      <g id="Group_13328" data-name="Group 13328" transform="translate(566.381 1202.028)">
        <path id="Path_2369" data-name="Path 2369" d="M22.768,11.036C22.629,24.105,15.931,33.946,10.33,35.2,5.5,36.287,1.4,34.4.591,29.273c-.691-4.39,2.67-7.226,5.691-8.778,1.008-.613,1.7-.98,2.892-1.806a15.285,15.285,0,0,0,3.345-3.037,15.829,15.829,0,0,0,2.729-5.322" transform="translate(-0.5 0.502)" fill="none" stroke="#1f454d" stroke-linejoin="round" stroke-width="1"/>
        <path id="Path_2370" data-name="Path 2370" d="M19.988,3.474l.129-1.537A1.323,1.323,0,0,0,18.911.5a1.3,1.3,0,0,0-1.374,1.187L17.406,3.26c-2.185.112-3.286,1.927-3.812,3.325a5.374,5.374,0,0,0,.439,4.682c.062.1.1.16.1.16a5.964,5.964,0,0,0,2.339-2.2,5.115,5.115,0,0,0,1.449,2.3A5.12,5.12,0,0,0,19.731,9.5,6.279,6.279,0,0,0,21.7,12.113s.037-.041.1-.117a5.322,5.322,0,0,0,1.021-4.851C22.429,5.779,21.624,4.069,19.988,3.474Z" transform="translate(0.798 -0.5)" fill="none" stroke="#1f454d" stroke-linejoin="round" stroke-width="1"/>
      </g>
    </g>
  </g>
</svg>
