<svg version="1.2" xmlns="http://www.w3.org/2000/svg" viewBox="0 0 20 20" width="20" height="20"><defs><clipPath clipPathUnits="userSpaceOnUse" id="cp1"><path d="m-957-3165h1920v5488h-1920z"/></clipPath></defs><style></style><g clip-path="url(#cp1)"><path fill-rule="evenodd" d="m20 2.1v15.8c0 1.1-1 2.1-2.1 2.1h-15.8c-1.1 0-2.1-1-2.1-2.1v-15.8c0-1.1 1-2.1 2.1-2.1h15.8c1.1 0 2.1 1 2.1 2.1zm-2.9 3.5q-0.8 0.3-1.6 0.4c0.6-0.3 1-0.9 1.2-1.6q-0.8 0.5-1.8 0.7c-0.6-0.6-1.3-0.9-2.2-0.9-1.7 0-3.2 1.6-2.8 3.6-2.4-0.1-4.6-1.3-6-3.1q-0.4 0.7-0.4 1.5c0 1 0.4 1.9 1.3 2.4q-0.8 0-1.4-0.3c0 1.4 1 2.6 2.4 2.9-0.5 0.1-0.9 0.1-1.3 0 0.3 1.2 1.4 2 2.7 2.1-1 0.8-2.3 1.2-3.6 1.2q-0.4 0-0.7 0c1.3 0.8 2.8 1.3 4.5 1.3 5.3 0 8.3-4.5 8.3-8.3q0-0.2 0-0.4 0.8-0.6 1.4-1.5z"/></g></svg>