<svg xmlns="http://www.w3.org/2000/svg" xmlns:xlink="http://www.w3.org/1999/xlink" width="33" height="39" viewBox="0 0 33 39">
  <defs>
    <clipPath id="clip-path">
      <rect id="Rectangle_2153" data-name="Rectangle 2153" width="33" height="39" transform="translate(16.934 1704)" fill="#fff" stroke="#707070" stroke-width="1"/>
    </clipPath>
  </defs>
  <g id="Mask_Group_81" data-name="Mask Group 81" transform="translate(-16.934 -1704)" clip-path="url(#clip-path)">
    <g id="Group_13367" data-name="Group 13367" transform="translate(-29.434 504.5)">
      <path id="Path_2355" data-name="Path 2355" d="M6.5,24.273a3.756,3.756,0,0,1,3.756,3.756h.016a3.756,3.756,0,0,1,3.756-3.756h0v-.017A3.756,3.756,0,0,1,10.273,20.5h-.017A3.756,3.756,0,0,1,6.5,24.256Z" transform="translate(48.581 1199.823)" fill="none" stroke="#1f454d" stroke-linejoin="round" stroke-miterlimit="10" stroke-width="1"/>
      <path id="Path_2356" data-name="Path 2356" d="M22.725,15.033a18.707,18.707,0,0,1,.994,5.9A11.609,11.609,0,0,1,.5,20.93C.5,9.612,12.109.5,12.109.5A36.492,36.492,0,0,1,16.6,4.849" transform="translate(48.934 1201)" fill="none" stroke="#1f454d" stroke-linejoin="round" stroke-width="1"/>
      <path id="Path_2357" data-name="Path 2357" d="M28.177,13.118a7.17,7.17,0,0,1-14.341,0C13.836,6.128,21.006.5,21.006.5s7.171,5.566,7.171,12.618" transform="translate(48.149 1201)" fill="#ffd0cc"/>
    </g>
  </g>
</svg>
