<svg xmlns="http://www.w3.org/2000/svg" xmlns:xlink="http://www.w3.org/1999/xlink" width="511" height="601" viewBox="0 0 511 601">
  <defs>
    <clipPath id="clip-path">
      <rect id="Rectangle_2144" data-name="Rectangle 2144" width="511" height="601" transform="translate(-73 62)" fill="#ffd0cc"/>
    </clipPath>
  </defs>
  <g id="Mask_Group_84" data-name="Mask Group 84" transform="translate(73 -62)" opacity="0.15" clip-path="url(#clip-path)">
    <g id="Group_13327" data-name="Group 13327" transform="translate(15352.46 690.08)">
      <g id="Group_13325" data-name="Group 13325" transform="translate(-15384.132 -607.165)">
        <path id="Path_2377" data-name="Path 2377" d="M501.657,239.935a3.918,3.918,0,0,1-3.918,3.918v.017a3.918,3.918,0,0,1,3.918,3.918h.017a3.918,3.918,0,0,1,3.918-3.918v-.017a3.918,3.918,0,0,1-3.918-3.918Z" transform="translate(-415.591 -239.935)" fill="#b36b77"/>
        <path id="Path_2378" data-name="Path 2378" d="M439.4,557.037a3.918,3.918,0,0,1-3.918,3.918v.017a3.918,3.918,0,0,1,3.918,3.918h.017a3.918,3.918,0,0,1,3.918-3.918v-.017a3.918,3.918,0,0,1-3.918-3.918Z" transform="translate(-386.185 -389.719)" fill="#b36b77"/>
        <path id="Path_2379" data-name="Path 2379" d="M728.192,438.124a3.918,3.918,0,0,1-3.918,3.918v.017a3.918,3.918,0,0,1,3.918,3.918h.018a3.918,3.918,0,0,1,3.917-3.918v-.017a3.918,3.918,0,0,1-3.917-3.918Z" transform="translate(-522.596 -333.55)" fill="#b36b77"/>
        <path id="Path_2380" data-name="Path 2380" d="M1016.981,330.537a3.918,3.918,0,0,1-3.918,3.918v.017a3.918,3.918,0,0,1,3.918,3.918H1017a3.918,3.918,0,0,1,3.917-3.918v-.017a3.918,3.918,0,0,1-3.917-3.918Z" transform="translate(-659.005 -282.731)" fill="#b36b77"/>
        <path id="Path_2381" data-name="Path 2381" d="M399.765,871.309a3.918,3.918,0,0,1-3.918,3.918v.017a3.918,3.918,0,0,1,3.918,3.918h.017a3.918,3.918,0,0,1,3.918-3.918v-.017a3.918,3.918,0,0,1-3.918-3.918Z" transform="translate(-367.463 -538.165)" fill="#b36b77"/>
        <path id="Path_2382" data-name="Path 2382" d="M688.554,752.4a3.918,3.918,0,0,1-3.918,3.918v.017a3.918,3.918,0,0,1,3.918,3.918h.018a3.917,3.917,0,0,1,3.917-3.918v-.017a3.918,3.918,0,0,1-3.917-3.918Z" transform="translate(-503.873 -481.996)" fill="#b36b77"/>
        <path id="Path_2383" data-name="Path 2383" d="M977.343,644.808a3.918,3.918,0,0,1-3.918,3.918v.017a3.918,3.918,0,0,1,3.918,3.918h.018a3.918,3.918,0,0,1,3.917-3.918v-.017a3.918,3.918,0,0,1-3.917-3.918Z" transform="translate(-640.282 -431.177)" fill="#b36b77"/>
        <path id="Path_2384" data-name="Path 2384" d="M345.971,1174.254a3.918,3.918,0,0,1-3.918,3.918v.017a3.918,3.918,0,0,1,3.918,3.918h.018a3.917,3.917,0,0,1,3.917-3.918v-.017a3.917,3.917,0,0,1-3.917-3.918Z" transform="translate(-342.053 -681.262)" fill="#b36b77"/>
        <path id="Path_2385" data-name="Path 2385" d="M634.76,1055.341a3.918,3.918,0,0,1-3.918,3.918v.017a3.918,3.918,0,0,1,3.918,3.918h.018a3.918,3.918,0,0,1,3.917-3.918v-.017a3.918,3.918,0,0,1-3.917-3.918Z" transform="translate(-478.463 -625.093)" fill="#b36b77"/>
        <path id="Path_2386" data-name="Path 2386" d="M923.549,947.754a3.918,3.918,0,0,1-3.918,3.918v.017a3.918,3.918,0,0,1,3.918,3.918h.018a3.917,3.917,0,0,1,3.917-3.918v-.017a3.918,3.918,0,0,1-3.917-3.918Z" transform="translate(-614.873 -574.274)" fill="#b36b77"/>
        <path id="Path_2387" data-name="Path 2387" d="M582.97,1371.234a3.918,3.918,0,0,1-3.918,3.918v.017a3.918,3.918,0,0,1,3.918,3.918h.018a3.917,3.917,0,0,1,3.917-3.918v-.017a3.918,3.918,0,0,1-3.917-3.918Z" transform="translate(-454 -774.305)" fill="#b36b77"/>
        <path id="Path_2388" data-name="Path 2388" d="M867.986,1271.735a3.918,3.918,0,0,1-3.918,3.918v.017a3.918,3.918,0,0,1,3.918,3.918H868a3.918,3.918,0,0,1,3.918-3.918v-.017a3.918,3.918,0,0,1-3.918-3.918Z" transform="translate(-588.627 -727.307)" fill="#b36b77"/>
      </g>
      <g id="Group_13326" data-name="Group 13326" transform="translate(-15490.46 -733.5)">
        <path id="Path_2389" data-name="Path 2389" d="M1030.533,1203.057a16.368,16.368,0,0,0-15.345-5.946,25.519,25.519,0,0,0-8.786,2.975l-.652.363c-7.039-6.488-9.871-15.655-11-22.422a61.911,61.911,0,0,1-.722-14.114c4.261-6.607,7.5-11.031,7.821-11.452l.047-.058a2,2,0,0,0-3.207-2.405h0c-.339.436-1.977,2.719-4.114,5.834a67.624,67.624,0,0,0-8.2,1.223l-1.282-.658a27.806,27.806,0,0,0-13.858-3.039c-8.005.368-15.454,4.258-22.139,11.561-10.148,11.082-17.212,12.886-20.23,13.657l-.242.073a2.192,2.192,0,0,0,.054,4.245,97.7,97.7,0,0,0,19.483,2.467h1.974c10.817,0,19.514-2.131,25.846-6.333a25.876,25.876,0,0,0,11.253-17.3l.129-.77q2.145-.455,4.331-.744c-3.038,4.645-5.862,9.266-8.406,13.752-9.177,16.15-14.518,29.763-15.907,40.521l-.292-.122a14.927,14.927,0,0,1-3.749-2.258l-.015-.012a10.685,10.685,0,0,0-9.231-1.869c-5.337,1.262-10.22,5.855-13.4,12.6a27.5,27.5,0,0,0,2.348,27.351l.008.012a21.107,21.107,0,0,0,7.136,6.166,31.821,31.821,0,0,0,11.736,3.87,28.121,28.121,0,0,0,3.293.23h.14a18.867,18.867,0,0,0,6.536-1.165,27.31,27.31,0,0,0,17.567-21.046,56.123,56.123,0,0,0,.346-7.669,26.931,26.931,0,0,0,9.686,10.337l.014.008a21.6,21.6,0,0,0,6.644,2.547,23.459,23.459,0,0,0,5.166.576h.029a24.3,24.3,0,0,0,22.148-14.434l.01-.023a30.773,30.773,0,0,0,2.088-8.879h0A23.7,23.7,0,0,0,1030.533,1203.057Zm-29.9-1.991a14.353,14.353,0,0,0-6.614,2.659c-3.84,2.8-6.13,7.493-6.808,13.94a21.5,21.5,0,0,0,.024,4.613,14.187,14.187,0,0,0-1.532-2.077,10.8,10.8,0,0,0-8.654-3.8l-.02,0a14.7,14.7,0,0,1-5.167-.538l-.574-.166c1.169-10.264,6.491-23.947,15.491-39.77,1.144-2.011,2.278-3.919,3.227-5.492a68.972,68.972,0,0,0,.829,8.178c1.52,9.1,4.938,16.76,9.965,22.426Z" transform="translate(-512.029 -543.091)" fill="none" stroke="#b36b77" stroke-miterlimit="10" stroke-width="1"/>
        <path id="Path_2390" data-name="Path 2390" d="M747.887,1314.263a16.368,16.368,0,0,0-15.345-5.946,25.522,25.522,0,0,0-8.786,2.975l-.652.363c-7.039-6.488-9.871-15.655-11-22.422a61.879,61.879,0,0,1-.722-14.114c4.261-6.607,7.5-11.031,7.821-11.452l.047-.058a2,2,0,1,0-3.207-2.4h0c-.339.436-1.977,2.719-4.114,5.834a67.6,67.6,0,0,0-8.2,1.223l-1.282-.658a27.805,27.805,0,0,0-13.858-3.039c-8.005.368-15.454,4.258-22.14,11.561-10.147,11.082-17.212,12.886-20.229,13.657l-.243.073a2.192,2.192,0,0,0,.054,4.245,97.7,97.7,0,0,0,19.483,2.467h1.974c10.817,0,19.514-2.131,25.846-6.333a25.875,25.875,0,0,0,11.253-17.3l.129-.77q2.145-.455,4.331-.744c-3.037,4.645-5.862,9.266-8.405,13.752-9.177,16.15-14.518,29.763-15.906,40.521l-.292-.122a14.922,14.922,0,0,1-3.749-2.258l-.015-.012a10.685,10.685,0,0,0-9.231-1.869c-5.337,1.262-10.22,5.855-13.4,12.6a27.5,27.5,0,0,0,2.348,27.351l.008.012a21.108,21.108,0,0,0,7.136,6.166,31.821,31.821,0,0,0,11.737,3.87,28.092,28.092,0,0,0,3.292.23h.14a18.868,18.868,0,0,0,6.536-1.164,27.312,27.312,0,0,0,17.566-21.046,56.133,56.133,0,0,0,.346-7.669,26.932,26.932,0,0,0,9.686,10.337l.014.009a21.605,21.605,0,0,0,6.644,2.547,23.451,23.451,0,0,0,5.166.576h.03a24.3,24.3,0,0,0,22.148-14.434l.01-.023a30.789,30.789,0,0,0,2.088-8.879h0A23.7,23.7,0,0,0,747.887,1314.263Zm-29.9-1.991a14.35,14.35,0,0,0-6.614,2.659c-3.84,2.8-6.13,7.493-6.808,13.94a21.532,21.532,0,0,0,.023,4.613,14.155,14.155,0,0,0-1.532-2.077,10.8,10.8,0,0,0-8.654-3.8l-.02,0a14.692,14.692,0,0,1-5.167-.538l-.574-.166c1.169-10.264,6.491-23.947,15.491-39.77,1.144-2.011,2.277-3.919,3.227-5.492a69,69,0,0,0,.829,8.178c1.52,9.1,4.938,16.76,9.965,22.426Z" transform="translate(-378.52 -595.619)" fill="none" stroke="#b36b77" stroke-miterlimit="10" stroke-width="1"/>
        <path id="Path_2391" data-name="Path 2391" d="M467.11,1425.686a16.369,16.369,0,0,0-15.346-5.946,25.513,25.513,0,0,0-8.786,2.975l-.652.363c-7.039-6.488-9.871-15.655-11-22.422a61.881,61.881,0,0,1-.723-14.114c4.262-6.607,7.5-11.031,7.821-11.452l.047-.058a2,2,0,0,0-3.207-2.4h0c-.34.436-1.978,2.719-4.114,5.834a67.634,67.634,0,0,0-8.2,1.223l-1.282-.658a27.8,27.8,0,0,0-13.858-3.039c-8.005.368-15.454,4.258-22.139,11.561-10.148,11.082-17.212,12.886-20.23,13.656l-.242.073a2.192,2.192,0,0,0,.054,4.245,97.7,97.7,0,0,0,19.482,2.467h1.974c10.817,0,19.514-2.131,25.846-6.333a25.876,25.876,0,0,0,11.253-17.3l.129-.77q2.145-.455,4.331-.744c-3.037,4.646-5.862,9.266-8.4,13.752-9.178,16.15-14.519,29.763-15.907,40.521l-.293-.122a14.911,14.911,0,0,1-3.748-2.258l-.016-.012a10.684,10.684,0,0,0-9.231-1.869c-5.337,1.262-10.22,5.855-13.4,12.6a27.5,27.5,0,0,0,2.348,27.351l.008.012a21.107,21.107,0,0,0,7.136,6.166,31.825,31.825,0,0,0,11.736,3.87,28.1,28.1,0,0,0,3.293.23h.14a18.868,18.868,0,0,0,6.537-1.165,27.312,27.312,0,0,0,17.566-21.046,56.139,56.139,0,0,0,.346-7.669,26.932,26.932,0,0,0,9.686,10.337l.014.009a21.6,21.6,0,0,0,6.643,2.547,23.464,23.464,0,0,0,5.166.576h.029a24.3,24.3,0,0,0,22.148-14.434l.01-.023a30.772,30.772,0,0,0,2.088-8.879h0A23.7,23.7,0,0,0,467.11,1425.686Zm-29.9-1.991a14.354,14.354,0,0,0-6.614,2.659c-3.84,2.8-6.13,7.493-6.808,13.94a21.532,21.532,0,0,0,.023,4.613,14.142,14.142,0,0,0-1.531-2.077,10.8,10.8,0,0,0-8.655-3.8l-.02,0a14.694,14.694,0,0,1-5.167-.538l-.574-.166c1.169-10.264,6.491-23.947,15.491-39.77,1.144-2.011,2.278-3.919,3.227-5.492a68.99,68.99,0,0,0,.829,8.178c1.52,9.1,4.938,16.76,9.966,22.426Z" transform="translate(-245.895 -648.25)" fill="none" stroke="#b36b77" stroke-miterlimit="10" stroke-width="1"/>
        <path id="Path_2392" data-name="Path 2392" d="M807.49,994.384a16.368,16.368,0,0,0-15.345-5.946,25.519,25.519,0,0,0-8.786,2.975l-.652.363c-7.039-6.488-9.871-15.655-11-22.422a61.88,61.88,0,0,1-.722-14.114c4.261-6.607,7.5-11.031,7.821-11.452l.047-.058a2,2,0,0,0-3.207-2.405h0c-.339.436-1.977,2.719-4.114,5.834a67.641,67.641,0,0,0-8.2,1.223l-1.282-.659a27.8,27.8,0,0,0-13.858-3.039c-8.005.368-15.454,4.258-22.14,11.561-10.147,11.082-17.212,12.886-20.229,13.657l-.243.073a2.192,2.192,0,0,0,.054,4.245,97.713,97.713,0,0,0,19.483,2.467h1.973c10.817,0,19.515-2.131,25.846-6.333a25.875,25.875,0,0,0,11.253-17.3l.129-.77q2.145-.455,4.331-.743c-3.037,4.645-5.862,9.266-8.405,13.752-9.177,16.15-14.518,29.763-15.906,40.521l-.292-.122a14.929,14.929,0,0,1-3.749-2.258l-.015-.012a10.685,10.685,0,0,0-9.231-1.869c-5.337,1.262-10.22,5.855-13.4,12.6A27.5,27.5,0,0,0,720,1041.507l.008.012a21.106,21.106,0,0,0,7.136,6.166,31.817,31.817,0,0,0,11.737,3.87,28.1,28.1,0,0,0,3.293.231h.14a18.868,18.868,0,0,0,6.536-1.165,27.312,27.312,0,0,0,17.566-21.046,56.131,56.131,0,0,0,.346-7.669,26.935,26.935,0,0,0,9.686,10.336l.014.008a21.6,21.6,0,0,0,6.644,2.547,23.459,23.459,0,0,0,5.166.576h.03a24.3,24.3,0,0,0,22.147-14.434l.01-.023a30.789,30.789,0,0,0,2.088-8.879h0A23.7,23.7,0,0,0,807.49,994.384Zm-29.9-1.991a14.352,14.352,0,0,0-6.614,2.659c-3.84,2.8-6.13,7.493-6.808,13.94a21.539,21.539,0,0,0,.023,4.613,14.141,14.141,0,0,0-1.532-2.077,10.8,10.8,0,0,0-8.654-3.8l-.02,0a14.7,14.7,0,0,1-5.167-.538l-.574-.166c1.169-10.264,6.491-23.947,15.491-39.77,1.144-2.011,2.277-3.919,3.227-5.492a68.98,68.98,0,0,0,.829,8.178c1.52,9.1,4.938,16.76,9.965,22.426Z" transform="translate(-406.674 -444.524)" fill="none" stroke="#b36b77" stroke-miterlimit="10" stroke-width="1"/>
        <path id="Path_2393" data-name="Path 2393" d="M524.843,1105.591a16.368,16.368,0,0,0-15.345-5.946,25.517,25.517,0,0,0-8.786,2.975l-.652.363c-7.039-6.489-9.871-15.655-11-22.422a61.883,61.883,0,0,1-.722-14.114c4.261-6.607,7.5-11.031,7.821-11.451l.047-.058a2,2,0,0,0-3.207-2.405h0c-.339.436-1.977,2.719-4.114,5.834a67.623,67.623,0,0,0-8.2,1.223l-1.282-.659a27.807,27.807,0,0,0-13.858-3.039c-8.005.368-15.454,4.258-22.139,11.561-10.148,11.082-17.212,12.886-20.229,13.657l-.243.073a2.192,2.192,0,0,0,.054,4.245,97.7,97.7,0,0,0,19.483,2.467h1.973c10.817,0,19.515-2.132,25.846-6.333a25.876,25.876,0,0,0,11.253-17.3l.129-.77q2.145-.455,4.331-.744c-3.037,4.645-5.862,9.266-8.405,13.752-9.177,16.15-14.518,29.763-15.907,40.521l-.292-.122a14.926,14.926,0,0,1-3.749-2.258l-.015-.012a10.686,10.686,0,0,0-9.231-1.87c-5.337,1.262-10.22,5.855-13.4,12.6a27.5,27.5,0,0,0,2.348,27.351l.008.011a21.106,21.106,0,0,0,7.136,6.166,31.821,31.821,0,0,0,11.736,3.87,28.148,28.148,0,0,0,3.293.231h.14a18.868,18.868,0,0,0,6.536-1.165,27.312,27.312,0,0,0,17.567-21.046,56.143,56.143,0,0,0,.346-7.669,26.933,26.933,0,0,0,9.686,10.337l.014.008a21.605,21.605,0,0,0,6.644,2.548,23.459,23.459,0,0,0,5.166.576h.03a24.3,24.3,0,0,0,22.148-14.434l.01-.023a30.776,30.776,0,0,0,2.088-8.879h0A23.7,23.7,0,0,0,524.843,1105.591Zm-29.9-1.991a14.351,14.351,0,0,0-6.614,2.659c-3.84,2.8-6.13,7.493-6.808,13.94a21.528,21.528,0,0,0,.023,4.613,14.138,14.138,0,0,0-1.532-2.077,10.8,10.8,0,0,0-8.654-3.8l-.02,0a14.7,14.7,0,0,1-5.167-.538l-.574-.166c1.169-10.264,6.491-23.947,15.491-39.77,1.144-2.011,2.278-3.919,3.227-5.492a68.99,68.99,0,0,0,.829,8.178c1.52,9.1,4.938,16.76,9.965,22.426Z" transform="translate(-273.165 -497.052)" fill="none" stroke="#b36b77" stroke-miterlimit="10" stroke-width="1"/>
        <path id="Path_2394" data-name="Path 2394" d="M1092.071,884.414a16.368,16.368,0,0,0-15.345-5.946,25.517,25.517,0,0,0-8.786,2.975l-.652.363c-7.039-6.488-9.871-15.655-11-22.422a61.882,61.882,0,0,1-.722-14.114c4.261-6.607,7.5-11.031,7.821-11.452l.047-.058a2,2,0,0,0-3.207-2.405h0c-.339.436-1.977,2.719-4.114,5.834a67.624,67.624,0,0,0-8.2,1.223l-1.282-.658a27.8,27.8,0,0,0-13.858-3.039c-8.006.368-15.454,4.258-22.14,11.561-10.147,11.082-17.212,12.886-20.229,13.657l-.243.073a2.192,2.192,0,0,0,.054,4.245,97.7,97.7,0,0,0,19.483,2.467h1.973c10.817,0,19.515-2.132,25.846-6.333a25.876,25.876,0,0,0,11.253-17.3l.129-.77q2.145-.455,4.331-.744c-3.037,4.646-5.862,9.266-8.406,13.752-9.177,16.15-14.518,29.763-15.906,40.521l-.292-.122a14.928,14.928,0,0,1-3.749-2.258l-.015-.012a10.686,10.686,0,0,0-9.231-1.869c-5.337,1.262-10.22,5.855-13.4,12.6a27.5,27.5,0,0,0,2.348,27.351l.008.012a21.108,21.108,0,0,0,7.136,6.166,31.821,31.821,0,0,0,11.737,3.87,28.108,28.108,0,0,0,3.292.231h.14a18.868,18.868,0,0,0,6.537-1.164A27.311,27.311,0,0,0,1051,919.606a56.138,56.138,0,0,0,.346-7.669,26.933,26.933,0,0,0,9.686,10.337l.014.008a21.605,21.605,0,0,0,6.644,2.548,23.459,23.459,0,0,0,5.166.576h.03a24.3,24.3,0,0,0,22.147-14.434l.01-.023a30.79,30.79,0,0,0,2.088-8.879h0A23.7,23.7,0,0,0,1092.071,884.414Zm-29.9-1.991a14.351,14.351,0,0,0-6.614,2.659c-3.84,2.8-6.13,7.493-6.808,13.94a21.531,21.531,0,0,0,.023,4.613,14.152,14.152,0,0,0-1.532-2.077,10.8,10.8,0,0,0-8.655-3.8l-.019,0a14.694,14.694,0,0,1-5.167-.538l-.574-.166c1.169-10.264,6.491-23.947,15.491-39.77,1.144-2.011,2.277-3.919,3.227-5.492a68.967,68.967,0,0,0,.829,8.178c1.52,9.1,4.938,16.76,9.965,22.426Z" transform="translate(-541.096 -392.579)" fill="none" stroke="#b36b77" stroke-miterlimit="10" stroke-width="1"/>
        <path id="Path_2395" data-name="Path 2395" d="M244.066,1217.013a16.368,16.368,0,0,0-15.345-5.946,25.519,25.519,0,0,0-8.786,2.975l-.652.363c-7.039-6.488-9.871-15.655-11-22.422a61.914,61.914,0,0,1-.722-14.114c4.261-6.607,7.5-11.031,7.821-11.452l.047-.058a2,2,0,1,0-3.207-2.405h0c-.339.436-1.977,2.719-4.114,5.834a67.623,67.623,0,0,0-8.2,1.223l-1.282-.659a27.807,27.807,0,0,0-13.858-3.039c-8.005.368-15.454,4.258-22.139,11.561-10.148,11.082-17.212,12.886-20.23,13.657l-.243.073a2.192,2.192,0,0,0,.054,4.245,97.7,97.7,0,0,0,19.483,2.467h1.974c10.817,0,19.514-2.131,25.846-6.333a25.876,25.876,0,0,0,11.253-17.3l.129-.77q2.145-.455,4.331-.744c-3.037,4.646-5.862,9.266-8.405,13.752-9.177,16.15-14.518,29.762-15.907,40.521l-.292-.122a14.927,14.927,0,0,1-3.749-2.258l-.015-.012a10.684,10.684,0,0,0-9.231-1.869c-5.337,1.262-10.22,5.855-13.4,12.6a27.5,27.5,0,0,0,2.348,27.351l.008.011a21.106,21.106,0,0,0,7.136,6.166,31.819,31.819,0,0,0,11.736,3.87,28.1,28.1,0,0,0,3.293.231h.14a18.868,18.868,0,0,0,6.536-1.165,27.311,27.311,0,0,0,17.566-21.046,56.14,56.14,0,0,0,.346-7.669,26.933,26.933,0,0,0,9.686,10.337l.014.008a21.607,21.607,0,0,0,6.644,2.547,23.459,23.459,0,0,0,5.166.576h.03a24.3,24.3,0,0,0,22.148-14.434l.009-.023a30.772,30.772,0,0,0,2.088-8.879h0A23.7,23.7,0,0,0,244.066,1217.013Zm-29.9-1.991a14.35,14.35,0,0,0-6.614,2.659c-3.84,2.8-6.13,7.493-6.808,13.94a21.533,21.533,0,0,0,.023,4.613,14.145,14.145,0,0,0-1.532-2.077,10.8,10.8,0,0,0-8.655-3.8l-.02,0a14.7,14.7,0,0,1-5.167-.538l-.574-.166c1.169-10.264,6.491-23.947,15.491-39.77,1.144-2.011,2.278-3.919,3.227-5.492a68.985,68.985,0,0,0,.829,8.178c1.52,9.1,4.938,16.76,9.965,22.426Z" transform="translate(-140.54 -549.683)" fill="none" stroke="#b36b77" stroke-miterlimit="10" stroke-width="1"/>
        <path id="Path_2396" data-name="Path 2396" d="M853.2,689.286a16.368,16.368,0,0,0-15.345-5.946,25.52,25.52,0,0,0-8.786,2.975l-.652.363c-7.039-6.488-9.871-15.655-11-22.422a61.878,61.878,0,0,1-.722-14.114c4.261-6.607,7.5-11.031,7.821-11.452l.047-.058a2,2,0,0,0-3.207-2.405h0c-.339.436-1.977,2.719-4.114,5.834a67.62,67.62,0,0,0-8.2,1.223l-1.282-.659a27.8,27.8,0,0,0-13.858-3.039c-8.005.368-15.454,4.258-22.14,11.561-10.147,11.082-17.212,12.886-20.229,13.657l-.243.073a2.192,2.192,0,0,0,.054,4.245,97.7,97.7,0,0,0,19.483,2.467H772.8c10.817,0,19.515-2.132,25.846-6.333a25.877,25.877,0,0,0,11.253-17.3l.129-.77q2.145-.455,4.331-.743c-3.037,4.645-5.862,9.266-8.405,13.752-9.177,16.15-14.518,29.763-15.906,40.521l-.292-.122a14.927,14.927,0,0,1-3.749-2.258l-.015-.012a10.686,10.686,0,0,0-9.231-1.869c-5.337,1.262-10.22,5.855-13.4,12.6a27.5,27.5,0,0,0,2.348,27.351l.008.012a21.108,21.108,0,0,0,7.136,6.166,31.823,31.823,0,0,0,11.737,3.87,28.121,28.121,0,0,0,3.292.231h.14a18.867,18.867,0,0,0,6.536-1.164,27.312,27.312,0,0,0,17.567-21.046,56.133,56.133,0,0,0,.346-7.669,26.931,26.931,0,0,0,9.685,10.337l.014.008a21.6,21.6,0,0,0,6.644,2.548,23.492,23.492,0,0,0,5.166.576h.029a24.3,24.3,0,0,0,22.148-14.434l.01-.023a30.789,30.789,0,0,0,2.088-8.879h0A23.7,23.7,0,0,0,853.2,689.286Zm-29.9-1.991a14.352,14.352,0,0,0-6.614,2.659c-3.84,2.8-6.13,7.493-6.808,13.94a21.531,21.531,0,0,0,.023,4.613,14.143,14.143,0,0,0-1.532-2.077,10.8,10.8,0,0,0-8.655-3.8l-.02,0a14.694,14.694,0,0,1-5.167-.538l-.574-.166c1.169-10.264,6.491-23.947,15.491-39.77,1.144-2.011,2.277-3.919,3.227-5.492a68.978,68.978,0,0,0,.829,8.178c1.52,9.1,4.938,16.76,9.965,22.426Z" transform="translate(-428.263 -300.41)" fill="none" stroke="#b36b77" stroke-miterlimit="10" stroke-width="1"/>
        <path id="Path_2397" data-name="Path 2397" d="M570.55,800.493a16.368,16.368,0,0,0-15.345-5.946,25.517,25.517,0,0,0-8.786,2.975l-.652.363c-7.039-6.488-9.871-15.655-11-22.422a61.876,61.876,0,0,1-.722-14.114c4.261-6.607,7.5-11.031,7.821-11.452l.047-.058a2,2,0,0,0-3.207-2.405h0c-.339.436-1.977,2.719-4.114,5.834a67.611,67.611,0,0,0-8.2,1.223l-1.282-.659a27.8,27.8,0,0,0-13.858-3.039c-8.005.368-15.454,4.258-22.139,11.561-10.148,11.082-17.212,12.886-20.23,13.657l-.243.073a2.192,2.192,0,0,0,.054,4.245,97.7,97.7,0,0,0,19.483,2.467h1.973c10.817,0,19.515-2.131,25.846-6.333a25.875,25.875,0,0,0,11.253-17.3l.129-.77q2.145-.455,4.331-.743c-3.037,4.645-5.862,9.266-8.405,13.752-9.177,16.15-14.518,29.763-15.906,40.521l-.292-.122a14.924,14.924,0,0,1-3.749-2.258l-.015-.012a10.685,10.685,0,0,0-9.231-1.869c-5.337,1.262-10.22,5.855-13.4,12.6a27.5,27.5,0,0,0,2.348,27.351l.008.012a21.107,21.107,0,0,0,7.136,6.166,31.821,31.821,0,0,0,11.737,3.87,28.12,28.12,0,0,0,3.292.231h.14a18.868,18.868,0,0,0,6.536-1.164,27.312,27.312,0,0,0,17.567-21.046,56.134,56.134,0,0,0,.346-7.669,26.935,26.935,0,0,0,9.686,10.336l.014.008a21.607,21.607,0,0,0,6.644,2.547,23.462,23.462,0,0,0,5.166.576h.03A24.3,24.3,0,0,0,573.51,827.05l.009-.023a30.787,30.787,0,0,0,2.088-8.879h0A23.7,23.7,0,0,0,570.55,800.493Zm-29.9-1.991a14.35,14.35,0,0,0-6.614,2.659c-3.84,2.8-6.13,7.493-6.808,13.94a21.535,21.535,0,0,0,.023,4.613,14.146,14.146,0,0,0-1.532-2.077,10.8,10.8,0,0,0-8.655-3.8l-.02,0a14.691,14.691,0,0,1-5.167-.538l-.574-.166c1.169-10.264,6.491-23.947,15.491-39.77,1.144-2.011,2.277-3.919,3.227-5.492a68.989,68.989,0,0,0,.829,8.178c1.52,9.1,4.938,16.76,9.965,22.426Z" transform="translate(-294.755 -352.939)" fill="none" stroke="#b36b77" stroke-miterlimit="10" stroke-width="1"/>
        <path id="Path_2398" data-name="Path 2398" d="M1137.777,579.317a16.368,16.368,0,0,0-15.345-5.946,25.517,25.517,0,0,0-8.786,2.975l-.652.363c-7.039-6.488-9.871-15.655-11-22.422a61.887,61.887,0,0,1-.722-14.114c4.261-6.607,7.5-11.031,7.821-11.452l.047-.058a2,2,0,0,0-3.207-2.405h0c-.339.436-1.977,2.719-4.114,5.834a67.624,67.624,0,0,0-8.2,1.223l-1.282-.659a27.8,27.8,0,0,0-13.858-3.039c-8.005.368-15.454,4.258-22.139,11.561-10.148,11.082-17.212,12.886-20.23,13.657l-.243.073a2.192,2.192,0,0,0,.055,4.245,97.691,97.691,0,0,0,19.482,2.467h1.974c10.817,0,19.514-2.131,25.846-6.333a25.875,25.875,0,0,0,11.253-17.3l.129-.77q2.145-.455,4.331-.743c-3.038,4.645-5.862,9.266-8.406,13.752-9.177,16.15-14.518,29.763-15.906,40.521l-.292-.122a14.928,14.928,0,0,1-3.749-2.258l-.015-.012a10.684,10.684,0,0,0-9.231-1.869c-5.337,1.262-10.22,5.855-13.4,12.6a27.5,27.5,0,0,0,2.348,27.351l.008.012a21.11,21.11,0,0,0,7.137,6.166,31.82,31.82,0,0,0,11.736,3.87,28.108,28.108,0,0,0,3.292.231h.14a18.868,18.868,0,0,0,6.537-1.165,27.311,27.311,0,0,0,17.566-21.046,56.146,56.146,0,0,0,.346-7.669,26.934,26.934,0,0,0,9.685,10.336l.014.008a21.6,21.6,0,0,0,6.644,2.548,23.462,23.462,0,0,0,5.166.576h.03a24.3,24.3,0,0,0,22.147-14.434l.01-.023a30.773,30.773,0,0,0,2.088-8.879h0A23.7,23.7,0,0,0,1137.777,579.317Zm-29.9-1.991a14.352,14.352,0,0,0-6.614,2.659c-3.84,2.8-6.13,7.493-6.808,13.94a21.507,21.507,0,0,0,.024,4.613,14.176,14.176,0,0,0-1.532-2.077,10.8,10.8,0,0,0-8.655-3.8l-.019,0a14.7,14.7,0,0,1-5.167-.538l-.574-.166c1.169-10.264,6.491-23.947,15.491-39.77,1.144-2.011,2.278-3.919,3.227-5.492a69.018,69.018,0,0,0,.829,8.178c1.52,9.1,4.938,16.76,9.965,22.426Z" transform="translate(-562.685 -248.466)" fill="none" stroke="#b36b77" stroke-miterlimit="10" stroke-width="1"/>
        <path id="Path_2399" data-name="Path 2399" d="M289.773,911.915a16.368,16.368,0,0,0-15.345-5.946,25.519,25.519,0,0,0-8.786,2.975l-.652.363c-7.039-6.489-9.871-15.655-11-22.422a61.881,61.881,0,0,1-.722-14.114c4.261-6.607,7.5-11.031,7.821-11.452l.047-.058a2,2,0,0,0-3.207-2.4h0c-.339.436-1.977,2.719-4.114,5.834a67.635,67.635,0,0,0-8.2,1.223l-1.282-.658a27.8,27.8,0,0,0-13.858-3.039c-8.005.368-15.454,4.258-22.14,11.561-10.147,11.082-17.212,12.886-20.229,13.657l-.243.073a2.192,2.192,0,0,0,.054,4.245,97.709,97.709,0,0,0,19.483,2.467h1.973c10.817,0,19.515-2.132,25.846-6.333a25.876,25.876,0,0,0,11.253-17.3l.129-.77q2.145-.455,4.331-.743c-3.037,4.645-5.862,9.266-8.405,13.752-9.177,16.15-14.518,29.763-15.906,40.521l-.292-.122a14.922,14.922,0,0,1-3.749-2.258l-.015-.012a10.685,10.685,0,0,0-9.231-1.869c-5.337,1.262-10.22,5.855-13.4,12.6a27.5,27.5,0,0,0,2.348,27.351l.008.012a21.108,21.108,0,0,0,7.136,6.166,31.82,31.82,0,0,0,11.736,3.87,28.147,28.147,0,0,0,3.293.231h.14a18.866,18.866,0,0,0,6.537-1.165A27.311,27.311,0,0,0,248.7,947.107a56.138,56.138,0,0,0,.346-7.669,26.932,26.932,0,0,0,9.685,10.337l.014.009a21.6,21.6,0,0,0,6.644,2.547,23.452,23.452,0,0,0,5.166.576h.03a24.3,24.3,0,0,0,22.148-14.434l.009-.023a30.772,30.772,0,0,0,2.088-8.879h0A23.7,23.7,0,0,0,289.773,911.915Zm-29.9-1.991a14.352,14.352,0,0,0-6.614,2.659c-3.84,2.8-6.13,7.493-6.808,13.94a21.532,21.532,0,0,0,.023,4.613,14.142,14.142,0,0,0-1.532-2.077,10.8,10.8,0,0,0-8.654-3.8l-.02,0a14.694,14.694,0,0,1-5.167-.538l-.574-.166c1.169-10.264,6.491-23.947,15.491-39.77,1.144-2.011,2.278-3.919,3.227-5.492a68.986,68.986,0,0,0,.829,8.178c1.52,9.1,4.938,16.76,9.965,22.426Z" transform="translate(-162.13 -405.569)" fill="none" stroke="#b36b77" stroke-miterlimit="10" stroke-width="1"/>
        <path id="Path_2400" data-name="Path 2400" d="M890.493,373.007a16.368,16.368,0,0,0-15.345-5.946,25.519,25.519,0,0,0-8.786,2.975l-.652.363c-7.039-6.488-9.871-15.655-11-22.422a61.876,61.876,0,0,1-.722-14.114c4.261-6.607,7.5-11.031,7.821-11.452l.047-.058a2,2,0,0,0-3.207-2.405h0c-.339.436-1.977,2.719-4.114,5.834a67.618,67.618,0,0,0-8.2,1.223l-1.282-.658a27.8,27.8,0,0,0-13.858-3.039c-8.005.368-15.454,4.258-22.139,11.561-10.148,11.082-17.212,12.886-20.229,13.657l-.243.073a2.192,2.192,0,0,0,.054,4.245,97.706,97.706,0,0,0,19.483,2.467H810.1c10.817,0,19.514-2.131,25.846-6.333a25.876,25.876,0,0,0,11.253-17.3l.129-.77q2.145-.455,4.331-.743c-3.037,4.645-5.862,9.266-8.406,13.752-9.177,16.15-14.518,29.763-15.906,40.521l-.292-.122a14.925,14.925,0,0,1-3.749-2.258l-.015-.012a10.686,10.686,0,0,0-9.231-1.869c-5.337,1.262-10.22,5.855-13.4,12.6A27.5,27.5,0,0,0,803,420.13l.008.012a21.108,21.108,0,0,0,7.136,6.166,31.821,31.821,0,0,0,11.737,3.87,28.114,28.114,0,0,0,3.292.231h.14a18.868,18.868,0,0,0,6.536-1.165A27.312,27.312,0,0,0,849.422,408.2a56.144,56.144,0,0,0,.346-7.669,26.932,26.932,0,0,0,9.686,10.337l.014.008a21.6,21.6,0,0,0,6.644,2.547,23.459,23.459,0,0,0,5.166.576h.03a24.3,24.3,0,0,0,22.147-14.434l.01-.023a30.77,30.77,0,0,0,2.088-8.879h0A23.7,23.7,0,0,0,890.493,373.007Zm-29.9-1.991a14.352,14.352,0,0,0-6.614,2.659c-3.84,2.8-6.13,7.493-6.808,13.94a21.523,21.523,0,0,0,.023,4.613,14.151,14.151,0,0,0-1.532-2.077,10.8,10.8,0,0,0-8.655-3.8l-.02,0a14.7,14.7,0,0,1-5.167-.538l-.574-.166c1.169-10.264,6.491-23.947,15.491-39.77,1.144-2.011,2.278-3.919,3.227-5.492a69,69,0,0,0,.829,8.178c1.52,9.1,4.938,16.76,9.965,22.426Z" transform="translate(-445.881 -151.015)" fill="none" stroke="#b36b77" stroke-miterlimit="10" stroke-width="1"/>
        <path id="Path_2401" data-name="Path 2401" d="M607.847,484.214a16.368,16.368,0,0,0-15.345-5.946,25.529,25.529,0,0,0-8.786,2.974l-.652.364c-7.039-6.488-9.871-15.655-11-22.422a61.876,61.876,0,0,1-.722-14.114c4.261-6.607,7.5-11.031,7.821-11.452l.047-.058a2,2,0,1,0-3.207-2.4h0c-.339.436-1.977,2.718-4.114,5.834a67.492,67.492,0,0,0-8.2,1.223l-1.282-.658a27.8,27.8,0,0,0-13.858-3.039c-8.005.368-15.454,4.259-22.14,11.561-10.147,11.082-17.212,12.886-20.229,13.657l-.243.073a2.192,2.192,0,0,0,.054,4.245,97.709,97.709,0,0,0,19.483,2.467h.008l1.965,0c10.817,0,19.515-2.131,25.846-6.333a25.876,25.876,0,0,0,11.253-17.3l.129-.77q2.145-.455,4.331-.743c-3.037,4.645-5.862,9.266-8.405,13.752-9.177,16.15-14.518,29.763-15.907,40.521l-.292-.122a14.943,14.943,0,0,1-3.749-2.258l-.015-.013a10.686,10.686,0,0,0-9.231-1.868c-5.337,1.261-10.22,5.855-13.4,12.6a27.5,27.5,0,0,0,2.348,27.352l.008.012a21.107,21.107,0,0,0,7.136,6.166,31.831,31.831,0,0,0,11.737,3.87,28.254,28.254,0,0,0,3.293.231h.14a18.879,18.879,0,0,0,6.536-1.164,27.313,27.313,0,0,0,17.567-21.047,56.12,56.12,0,0,0,.346-7.668,26.934,26.934,0,0,0,9.686,10.336l.014.008a21.605,21.605,0,0,0,6.644,2.547,23.459,23.459,0,0,0,5.166.576h.03a24.3,24.3,0,0,0,22.148-14.435l.01-.022a30.789,30.789,0,0,0,2.088-8.879h0A23.7,23.7,0,0,0,607.847,484.214Zm-29.9-1.991a14.356,14.356,0,0,0-6.614,2.658c-3.84,2.8-6.13,7.493-6.808,13.94a21.526,21.526,0,0,0,.023,4.612,14.14,14.14,0,0,0-1.532-2.076,10.794,10.794,0,0,0-8.655-3.8l-.02,0a14.692,14.692,0,0,1-5.167-.538l-.574-.166c1.169-10.264,6.491-23.947,15.491-39.77,1.144-2.011,2.277-3.919,3.227-5.492a69,69,0,0,0,.829,8.179c1.52,9.1,4.938,16.759,9.965,22.426Z" transform="translate(-312.372 -203.544)" fill="none" stroke="#b36b77" stroke-miterlimit="10" stroke-width="1"/>
        <path id="Path_2402" data-name="Path 2402" d="M1175.073,263.037a16.368,16.368,0,0,0-15.345-5.946,25.519,25.519,0,0,0-8.786,2.975l-.652.363c-7.039-6.488-9.871-15.655-11-22.422a61.887,61.887,0,0,1-.722-14.114c4.261-6.607,7.5-11.031,7.821-11.452l.047-.058a2,2,0,1,0-3.207-2.405h0c-.339.436-1.977,2.719-4.114,5.834a67.617,67.617,0,0,0-8.2,1.223l-1.282-.659a27.8,27.8,0,0,0-13.858-3.039c-8.005.368-15.454,4.258-22.14,11.561-10.147,11.082-17.212,12.886-20.229,13.657l-.243.073a2.192,2.192,0,0,0,.054,4.245,97.711,97.711,0,0,0,19.483,2.467h.008l1.965,0c10.817,0,19.515-2.131,25.846-6.333a25.875,25.875,0,0,0,11.253-17.3l.129-.77q2.145-.455,4.332-.743c-3.038,4.645-5.862,9.266-8.406,13.752-9.177,16.15-14.518,29.763-15.906,40.521l-.292-.122a14.923,14.923,0,0,1-3.749-2.258l-.015-.012a10.685,10.685,0,0,0-9.231-1.869c-5.337,1.262-10.22,5.855-13.4,12.6a27.5,27.5,0,0,0,2.348,27.351l.008.012a21.109,21.109,0,0,0,7.136,6.166,31.821,31.821,0,0,0,11.736,3.87,28.123,28.123,0,0,0,3.293.231h.14a18.878,18.878,0,0,0,6.536-1.164A27.313,27.313,0,0,0,1134,298.229a56.147,56.147,0,0,0,.346-7.669,26.934,26.934,0,0,0,9.685,10.336l.014.008a21.6,21.6,0,0,0,6.644,2.547,23.46,23.46,0,0,0,5.166.576h.029a24.3,24.3,0,0,0,22.148-14.434l.01-.023a30.793,30.793,0,0,0,2.088-8.879h0A23.7,23.7,0,0,0,1175.073,263.037Zm-29.9-1.991a14.353,14.353,0,0,0-6.614,2.659c-3.84,2.8-6.13,7.493-6.808,13.94a21.531,21.531,0,0,0,.023,4.613,14.154,14.154,0,0,0-1.532-2.077,10.8,10.8,0,0,0-8.655-3.8l-.02,0a14.684,14.684,0,0,1-5.167-.538l-.574-.166c1.169-10.264,6.491-23.947,15.491-39.77,1.144-2.011,2.277-3.919,3.227-5.492a68.986,68.986,0,0,0,.829,8.179c1.52,9.1,4.938,16.759,9.965,22.426Z" transform="translate(-580.303 -99.071)" fill="none" stroke="#b36b77" stroke-miterlimit="10" stroke-width="1"/>
        <path id="Path_2403" data-name="Path 2403" d="M327.07,595.636a16.368,16.368,0,0,0-15.345-5.946,25.521,25.521,0,0,0-8.786,2.975l-.652.363c-7.039-6.488-9.871-15.655-11-22.422a61.881,61.881,0,0,1-.722-14.114c4.261-6.607,7.5-11.031,7.821-11.452l.047-.058a2,2,0,1,0-3.207-2.405h0c-.339.436-1.977,2.719-4.114,5.834a67.622,67.622,0,0,0-8.2,1.223l-1.282-.658a27.8,27.8,0,0,0-13.858-3.039c-8.005.368-15.454,4.258-22.139,11.561-10.148,11.082-17.212,12.886-20.23,13.657l-.243.073a2.192,2.192,0,0,0,.054,4.245A97.7,97.7,0,0,0,244.7,577.94h1.973c10.817,0,19.515-2.131,25.846-6.333a25.875,25.875,0,0,0,11.253-17.3l.129-.77q2.145-.455,4.331-.743c-3.037,4.645-5.862,9.266-8.405,13.752-9.177,16.15-14.518,29.763-15.906,40.521l-.292-.122a14.928,14.928,0,0,1-3.749-2.258l-.015-.012a10.685,10.685,0,0,0-9.231-1.869c-5.337,1.262-10.22,5.855-13.4,12.6a27.5,27.5,0,0,0,2.348,27.351l.008.012a21.107,21.107,0,0,0,7.136,6.166,31.818,31.818,0,0,0,11.736,3.87,28.121,28.121,0,0,0,3.293.231h.14a18.867,18.867,0,0,0,6.536-1.164A27.312,27.312,0,0,0,286,630.828a56.13,56.13,0,0,0,.346-7.669A26.935,26.935,0,0,0,296.03,633.5l.014.008a21.6,21.6,0,0,0,6.644,2.547,23.459,23.459,0,0,0,5.166.576h.03a24.3,24.3,0,0,0,22.148-14.434l.009-.023a30.771,30.771,0,0,0,2.088-8.879h0A23.7,23.7,0,0,0,327.07,595.636Zm-29.9-1.991a14.351,14.351,0,0,0-6.614,2.659c-3.84,2.8-6.13,7.493-6.808,13.94a21.533,21.533,0,0,0,.023,4.613,14.152,14.152,0,0,0-1.532-2.077,10.8,10.8,0,0,0-8.654-3.8l-.02,0a14.683,14.683,0,0,1-5.167-.538l-.574-.166c1.169-10.264,6.491-23.947,15.491-39.77,1.144-2.011,2.278-3.919,3.227-5.492a69,69,0,0,0,.829,8.179c1.52,9.1,4.938,16.759,9.965,22.426Z" transform="translate(-179.747 -256.175)" fill="none" stroke="#b36b77" stroke-miterlimit="10" stroke-width="1"/>
        <path id="Path_2404" data-name="Path 2404" d="M667.45,164.334a16.368,16.368,0,0,0-15.345-5.946,25.518,25.518,0,0,0-8.786,2.975l-.652.363c-7.039-6.488-9.871-15.655-11-22.422a61.911,61.911,0,0,1-.722-14.114c4.261-6.607,7.5-11.031,7.821-11.452l.047-.058a2,2,0,1,0-3.207-2.405h0c-.339.436-1.977,2.719-4.114,5.834a67.616,67.616,0,0,0-8.2,1.223l-1.282-.659a27.8,27.8,0,0,0-13.858-3.039c-8.005.368-15.454,4.258-22.139,11.561-10.148,11.082-17.212,12.886-20.23,13.657l-.243.073a2.192,2.192,0,0,0,.054,4.245,97.705,97.705,0,0,0,19.483,2.467h1.974c10.817,0,19.514-2.131,25.846-6.333A25.875,25.875,0,0,0,624.154,123l.129-.77q2.145-.455,4.331-.743c-3.037,4.645-5.862,9.266-8.405,13.752-9.177,16.15-14.518,29.763-15.906,40.521l-.292-.122a14.927,14.927,0,0,1-3.749-2.258l-.015-.012a10.686,10.686,0,0,0-9.231-1.869c-5.337,1.262-10.22,5.855-13.4,12.6a27.5,27.5,0,0,0,2.348,27.351l.008.012a21.108,21.108,0,0,0,7.136,6.166,31.821,31.821,0,0,0,11.736,3.87,28.129,28.129,0,0,0,3.293.231h.14a18.867,18.867,0,0,0,6.536-1.165,27.311,27.311,0,0,0,17.567-21.046,56.133,56.133,0,0,0,.346-7.669,26.934,26.934,0,0,0,9.686,10.336l.014.008a21.6,21.6,0,0,0,6.644,2.548,23.46,23.46,0,0,0,5.166.576h.03a24.3,24.3,0,0,0,22.147-14.434l.01-.023a30.771,30.771,0,0,0,2.088-8.879h0A23.7,23.7,0,0,0,667.45,164.334Zm-29.9-1.991A14.352,14.352,0,0,0,630.935,165c-3.84,2.8-6.13,7.493-6.808,13.94a21.535,21.535,0,0,0,.023,4.613,14.14,14.14,0,0,0-1.532-2.077,10.8,10.8,0,0,0-8.654-3.8l-.019,0a14.7,14.7,0,0,1-5.167-.538l-.574-.166c1.169-10.264,6.491-23.947,15.491-39.77,1.144-2.011,2.278-3.919,3.227-5.492a68.978,68.978,0,0,0,.83,8.178c1.52,9.1,4.938,16.76,9.965,22.426Z" transform="translate(-340.526 -52.448)" fill="none" stroke="#b36b77" stroke-miterlimit="10" stroke-width="1"/>
        <path id="Path_2405" data-name="Path 2405" d="M384.8,275.541a16.368,16.368,0,0,0-15.345-5.946,25.519,25.519,0,0,0-8.786,2.975l-.652.363c-7.039-6.488-9.871-15.655-11-22.422A61.883,61.883,0,0,1,348.3,236.4c4.261-6.607,7.5-11.031,7.821-11.452l.047-.058a2,2,0,1,0-3.207-2.4h0c-.339.436-1.977,2.719-4.114,5.834a67.62,67.62,0,0,0-8.2,1.223l-1.282-.658a27.8,27.8,0,0,0-13.858-3.039c-8.005.368-15.454,4.258-22.139,11.561-10.148,11.082-17.212,12.886-20.23,13.657l-.243.073a2.192,2.192,0,0,0,.054,4.245,97.707,97.707,0,0,0,19.483,2.467h1.973c10.817,0,19.515-2.132,25.846-6.333a25.877,25.877,0,0,0,11.253-17.3l.129-.77q2.145-.455,4.331-.743c-3.037,4.645-5.862,9.266-8.405,13.752-9.177,16.15-14.518,29.763-15.907,40.521l-.292-.122a14.923,14.923,0,0,1-3.749-2.258l-.015-.012a10.686,10.686,0,0,0-9.231-1.869c-5.337,1.262-10.22,5.855-13.4,12.6a27.5,27.5,0,0,0,2.348,27.351l.008.012a21.107,21.107,0,0,0,7.136,6.166,31.821,31.821,0,0,0,11.736,3.87,28.134,28.134,0,0,0,3.293.231h.14a18.867,18.867,0,0,0,6.537-1.164,27.312,27.312,0,0,0,17.566-21.046,56.134,56.134,0,0,0,.346-7.669,26.931,26.931,0,0,0,9.686,10.337l.014.008a21.6,21.6,0,0,0,6.644,2.547,23.494,23.494,0,0,0,5.166.576h.03A24.3,24.3,0,0,0,387.763,302.1l.009-.023a30.771,30.771,0,0,0,2.088-8.879h0A23.7,23.7,0,0,0,384.8,275.541Zm-29.9-1.991a14.352,14.352,0,0,0-6.614,2.659c-3.84,2.8-6.13,7.493-6.808,13.94a21.531,21.531,0,0,0,.023,4.613,14.146,14.146,0,0,0-1.532-2.077,10.8,10.8,0,0,0-8.655-3.8l-.02,0a14.7,14.7,0,0,1-5.167-.538l-.574-.166c1.169-10.264,6.491-23.947,15.491-39.77,1.144-2.011,2.278-3.919,3.227-5.492a68.978,68.978,0,0,0,.829,8.178c1.52,9.1,4.938,16.76,9.965,22.426Z" transform="translate(-207.017 -104.977)" fill="none" stroke="#b36b77" stroke-miterlimit="10" stroke-width="1"/>
        <path id="Path_2406" data-name="Path 2406" d="M952.031,54.364a16.368,16.368,0,0,0-15.345-5.946,25.518,25.518,0,0,0-8.786,2.975l-.652.363c-7.039-6.488-9.871-15.655-11-22.422a61.885,61.885,0,0,1-.722-14.114c4.261-6.607,7.5-11.031,7.821-11.452l.047-.058A2,2,0,1,0,920.186,1.3h0c-.339.436-1.977,2.719-4.114,5.834a67.616,67.616,0,0,0-8.2,1.223L906.594,7.7a27.8,27.8,0,0,0-13.858-3.039c-8.006.368-15.454,4.258-22.139,11.561-10.148,11.082-17.212,12.886-20.23,13.657l-.243.073a2.192,2.192,0,0,0,.054,4.245,97.706,97.706,0,0,0,19.483,2.467h1.974c10.817,0,19.514-2.132,25.846-6.333a25.877,25.877,0,0,0,11.253-17.3l.129-.77q2.145-.455,4.331-.743c-3.037,4.645-5.862,9.266-8.405,13.752-9.177,16.15-14.518,29.763-15.907,40.521l-.292-.122a14.926,14.926,0,0,1-3.749-2.258l-.015-.012a10.686,10.686,0,0,0-9.231-1.869c-5.337,1.262-10.22,5.855-13.4,12.6a27.5,27.5,0,0,0,2.348,27.351l.008.012a21.107,21.107,0,0,0,7.136,6.166,31.821,31.821,0,0,0,11.736,3.87,28.13,28.13,0,0,0,3.293.231h.14a18.866,18.866,0,0,0,6.536-1.164A27.312,27.312,0,0,0,910.96,89.556a56.144,56.144,0,0,0,.346-7.669,26.932,26.932,0,0,0,9.685,10.337l.014.008a21.6,21.6,0,0,0,6.644,2.547,23.493,23.493,0,0,0,5.166.576h.03a24.3,24.3,0,0,0,22.148-14.434L955,80.9a30.772,30.772,0,0,0,2.088-8.879h0A23.7,23.7,0,0,0,952.031,54.364Zm-29.9-1.991a14.352,14.352,0,0,0-6.614,2.659c-3.84,2.8-6.13,7.493-6.808,13.94a21.527,21.527,0,0,0,.023,4.613,14.15,14.15,0,0,0-1.532-2.077,10.8,10.8,0,0,0-8.654-3.8l-.02,0a14.7,14.7,0,0,1-5.167-.538l-.574-.166c1.169-10.264,6.491-23.947,15.491-39.77,1.144-2.011,2.278-3.919,3.227-5.492a69,69,0,0,0,.83,8.178c1.52,9.1,4.938,16.76,9.965,22.426Z" transform="translate(-474.948 -0.504)" fill="none" stroke="#b36b77" stroke-miterlimit="10" stroke-width="1"/>
      </g>
    </g>
  </g>
</svg>
