<svg xmlns="http://www.w3.org/2000/svg" xmlns:xlink="http://www.w3.org/1999/xlink" width="37.726" height="14" viewBox="0 0 37.726 14">
  <defs>
    <clipPath id="clip-path">
      <rect id="Rectangle_2048" data-name="Rectangle 2048" width="37.726" height="14" fill="#fff"/>
    </clipPath>
  </defs>
  <g id="logo-dark" clip-path="url(#clip-path)">
    <path id="Path_2239" data-name="Path 2239" d="M3.194,94.233,3.521,96.9H14.975L14.6,93.846H9.26l-.047-.378,4.919-3.437L13.8,87.36H2.35l.375,3.052H8.074l.047.382Z" transform="translate(-2.235 -83.069)"/>
    <path id="Path_2240" data-name="Path 2240" d="M262.59,87.36l1.172,9.538h11.462l-1.172-9.538Z" transform="translate(-249.691 -83.069)" fill="#aa8fff"/>
    <path id="Path_2241" data-name="Path 2241" d="M534.862,90.793a3.914,3.914,0,0,0-4.237-3.434H523l1.171,9.539h3.43l-.235-1.908H531C533.853,94.989,535.16,93.21,534.862,90.793Zm-4.236,1.523-3.586,0-.281-2.289,3.606,0a1.233,1.233,0,0,1,1.352,1.141,1,1,0,0,1-1.091,1.141Z" transform="translate(-497.309 -83.068)"/>
    <path id="Path_2242" data-name="Path 2242" d="M273.34,4.646a1.718,1.718,0,0,0-.235-2.409,1.718,1.718,0,0,0-2.419-.064,1.718,1.718,0,0,0,.235,2.409A1.718,1.718,0,0,0,273.34,4.646Z" transform="translate(-257.016 -1.622)"/>
  </g>
</svg>
