<svg xmlns="http://www.w3.org/2000/svg" width="121.029" height="121.508" viewBox="0 0 121.029 121.508">
  <g id="Group_13329" data-name="Group 13329" transform="translate(22357.434 2832.5)">
    <g id="Group_13317" data-name="Group 13317" transform="translate(-22874.934 -4165)">
      <path id="Subtraction_20" data-name="Subtraction 20" d="M-12126,128h-58a25.849,25.849,0,0,0-2.043-10.12,25.928,25.928,0,0,0-5.573-8.265,25.907,25.907,0,0,0-8.264-5.572A25.842,25.842,0,0,0-12210,102V44l.01,0a25.869,25.869,0,0,0,10.111-2.039,25.948,25.948,0,0,0,8.265-5.572,25.924,25.924,0,0,0,5.572-8.265A25.866,25.866,0,0,0-12184,18h58a25.82,25.82,0,0,0,2.043,10.12,25.924,25.924,0,0,0,5.572,8.265,25.908,25.908,0,0,0,8.265,5.572A25.83,25.83,0,0,0-12100,44l0,58h-.01a25.793,25.793,0,0,0-10.111,2.043,25.911,25.911,0,0,0-8.265,5.572,25.91,25.91,0,0,0-5.572,8.265A25.836,25.836,0,0,0-12126,128h0Z" transform="translate(12732.999 1320)" fill="none" stroke="#ffd0cc" stroke-width="1"/>
    </g>
    <g id="Group_13318" data-name="Group 13318" transform="translate(-22874.934 -4165)">
      <path id="AdobeStock_516046892" d="M0,5.011A4.989,4.989,0,0,1,4.989,10h.022A4.989,4.989,0,0,1,10,5.011V4.989A4.989,4.989,0,0,1,5.011,0H4.989A4.989,4.989,0,0,1,0,4.989Z" transform="translate(518 1333)" fill="none" stroke="#ffd0cc" stroke-width="1"/>
      <path id="AdobeStock_516046892-2" data-name="AdobeStock_516046892" d="M0,5.011A4.989,4.989,0,0,1,4.989,10h.022A4.989,4.989,0,0,1,10,5.011V4.989A4.989,4.989,0,0,1,5.011,0H4.989A4.989,4.989,0,0,1,0,4.989Z" transform="translate(518 1443.508)" fill="none" stroke="#ffd0cc" stroke-width="1"/>
      <path id="AdobeStock_516046892-3" data-name="AdobeStock_516046892" d="M0,5.011A4.989,4.989,0,0,1,4.989,10h.022A4.989,4.989,0,0,1,10,5.011V4.989A4.989,4.989,0,0,1,5.011,0H4.989A4.989,4.989,0,0,1,0,4.989Z" transform="translate(627.934 1333)" fill="none" stroke="#ffd0cc" stroke-width="1"/>
      <path id="AdobeStock_516046892-4" data-name="AdobeStock_516046892" d="M0,5.011A4.989,4.989,0,0,1,4.989,10h.022A4.989,4.989,0,0,1,10,5.011V4.989A4.989,4.989,0,0,1,5.011,0H4.989A4.989,4.989,0,0,1,0,4.989Z" transform="translate(628.03 1443.508)" fill="none" stroke="#ffd0cc" stroke-width="1"/>
    </g>
  </g>
</svg>
