<svg xmlns="http://www.w3.org/2000/svg" width="121.029" height="121.508" viewBox="0 0 121.029 121.508">
  <g id="Group_13330" data-name="Group 13330" transform="translate(22357.434 2832.5)">
    <g id="Group_13317" data-name="Group 13317" transform="translate(-22874.934 -4165)">
      <path id="Subtraction_20" data-name="Subtraction 20" d="M-12115.5,128h-79a15.4,15.4,0,0,0-4.587-10.864,15.405,15.405,0,0,0-10.913-4.493v-79c.073,0,.155,0,.27,0a15.4,15.4,0,0,0,10.96-4.538,15.4,15.4,0,0,0,4.542-10.961V18h78.73v.144a15.4,15.4,0,0,0,4.541,10.961A15.4,15.4,0,0,0-12100,33.643v79h0a15.4,15.4,0,0,0-10.907,4.491A15.4,15.4,0,0,0-12115.5,128h0Z" transform="translate(12732.999 1320)" fill="none" stroke="#ffd0cc" stroke-width="1"/>
    </g>
    <g id="Group_13318" data-name="Group 13318" transform="translate(-22874.934 -4165)">
      <path id="AdobeStock_516046892" d="M0,5.011A4.989,4.989,0,0,1,4.989,10h.022A4.989,4.989,0,0,1,10,5.011V4.989A4.989,4.989,0,0,1,5.011,0H4.989A4.989,4.989,0,0,1,0,4.989Z" transform="translate(518 1333)" fill="none" stroke="#ffd0cc" stroke-width="1" opacity="0"/>
      <path id="AdobeStock_516046892-2" data-name="AdobeStock_516046892" d="M0,5.011A4.989,4.989,0,0,1,4.989,10h.022A4.989,4.989,0,0,1,10,5.011V4.989A4.989,4.989,0,0,1,5.011,0H4.989A4.989,4.989,0,0,1,0,4.989Z" transform="translate(628.03 1443.508)" fill="none" stroke="#ffd0cc" stroke-width="1" opacity="0"/>
    </g>
  </g>
</svg>
