<svg version="1.2" xmlns="http://www.w3.org/2000/svg" viewBox="0 0 54 37" width="54" height="37"><defs><clipPath clipPathUnits="userSpaceOnUse" id="cp1"><path d="m-1664-8085h1920v8198h-1920z"/></clipPath><clipPath clipPathUnits="userSpaceOnUse" id="cp2"><path d="m0.81 0h52.64v36h-52.64z"/></clipPath></defs><style>.a{fill:#fff}.b{fill:#3c4043}.c{fill:#4285f4}.d{fill:#34a853}.e{fill:#fbbc04}.f{fill:#ea4335}</style><g clip-path="url(#cp1)"><g clip-path="url(#cp2)"><path class="a" d="m5 0.2l44.1-0.2c2.3 0 4.2 1.9 4.2 4.2l0.1 27.3c0.1 2.4-1.8 4.2-4.1 4.3l-44.1 0.2c-2.3 0-4.2-1.8-4.2-4.2l-0.2-27.3c0-2.4 1.9-4.2 4.2-4.3z"/><path fill-rule="evenodd" class="b" d="m24.2 23.7v-11.3h3.8c0.9-0.1 1.8 0.3 2.5 0.9 1.3 1.3 1.4 3.3 0.1 4.7l-0.1 0.1q-1 1-2.5 1h-2.3v4.6zm3.8-6c0.5 0 1-0.2 1.4-0.6 0.8-0.8 0.7-2-0.1-2.8-0.3-0.4-0.8-0.6-1.3-0.5h-2.4v3.9zm10.2 1.2v4.8h-1.4v-1.1q-0.9 1.3-2.4 1.3-1.2 0-2.1-0.7c-0.6-0.5-0.9-1.2-0.9-1.9q0-1.2 0.9-1.9 0.9-0.8 2.4-0.8 1.3 0 2.1 0.5v-0.3c0-0.5-0.2-1-0.6-1.3-0.3-0.4-0.8-0.6-1.4-0.6q-1.2 0.1-1.8 1.1l-1.3-0.8q1-1.5 3-1.5 1.6 0 2.6 0.8 0.9 0.9 0.9 2.4zm-3.7 3.7c0.6 0 1.2-0.2 1.6-0.7q0.7-0.6 0.7-1.6-0.6-0.5-1.8-0.5-0.9 0-1.5 0.4-0.6 0.5-0.6 1.1c0 0.4 0.2 0.7 0.5 1 0.3 0.2 0.7 0.3 1.1 0.3zm5.3 4.5l1.8-4-3.2-7.2h1.6l2.3 5.5 2.2-5.5h1.6l-4.8 11.2z"/><path class="c" d="m18.8 23h-2.1v-1.6c0.7-0.5 1.2-1.2 1.3-2h-3.5v-2.5l6.1-0.1q0.1 0.7 0.1 1.4c0 2-0.7 3.6-1.9 4.8z"/><path class="d" d="m8.8 21v-1.7h2.1c0.6 1.6 2 2.7 3.7 2.7 0.8 0 1.6-0.2 2.1-0.6l2.1 1.6c-1 1-2.5 1.6-4.2 1.6-2.5 0-4.7-1.4-5.8-3.6z"/><path class="e" d="m8.8 21c-0.9-1.8-0.9-4 0-5.8l2.1-0.1v1.7c-0.2 0.8-0.2 1.7 0 2.5z"/><path class="f" d="m10.9 16.8l-2.1-1.6c1.1-2.2 3.3-3.6 5.7-3.7 1.6 0 3.1 0.6 4.3 1.7l-1.8 1.9c-0.7-0.7-1.6-1-2.5-1-1.7 0-3.1 1.2-3.6 2.7z"/></g></g></svg>