<svg version="1.2" xmlns="http://www.w3.org/2000/svg" viewBox="0 0 54 37" width="54" height="37"><defs><clipPath clipPathUnits="userSpaceOnUse" id="cp1"><path d="m-1790-8085h1920v8198h-1920z"/></clipPath><clipPath clipPathUnits="userSpaceOnUse" id="cp2"><path d="m0.3 0h52.85v36h-52.85z"/></clipPath></defs><style>.a{fill:#5a31f4}.b{fill:#fff}</style><g clip-path="url(#cp1)"><g clip-path="url(#cp2)"><path class="a" d="m4.5 0h44.4c2.4 0 4.2 1.9 4.2 4.2v27.6c0 2.3-1.8 4.2-4.2 4.2h-44.4c-2.3 0-4.2-1.9-4.2-4.2v-27.6c0-2.3 1.9-4.2 4.2-4.2z"/><path fill-rule="evenodd" class="b" d="m30.1 16.6c0 2.3-1.7 4-4 4h-2.1q-0.1 0-0.1 0 0 0-0.1 0.1 0 0 0 0 0 0.1 0 0.1v3.1q0 0.1-0.1 0.1 0 0.1-0.1 0.1h-1.5q-0.1 0-0.1-0.1-0.1 0-0.1 0 0-0.1 0-0.1v-11.2q0 0 0-0.1 0 0 0 0 0.1-0.1 0.1-0.1 0 0 0.1 0h4c2.3 0 4 1.7 4 4.1zm-4.1 2.3h-2q-0.1 0-0.2-0.1 0 0 0-0.1v-4.3q0 0 0-0.1 0 0 0 0 0.1-0.1 0.1-0.1 0 0 0.1 0h2c1.3 0 2.2 1 2.2 2.4 0 1.3-0.9 2.3-2.2 2.3zm7.3 5.4c1.1 0 1.8-0.4 2.2-0.8q0.1-0.1 0.1-0.1 0.1 0 0.1 0 0 0 0.1 0.1 0 0 0 0.1v0.3q0 0 0 0.1 0 0 0 0 0.1 0.1 0.2 0.1h1.4q0.1 0 0.1-0.1 0.1 0 0.1-0.1v-4.5c0-2.1-0.9-3.2-3.2-3.2-2.3 0-3.3 0.9-3.5 2.2q0 0.1 0 0.1 0 0 0 0.1 0 0 0.1 0 0 0 0 0h1.5q0 0 0.1 0 0 0 0.1-0.1c0.1-0.5 0.7-0.9 1.6-0.9 0.9 0 1.5 0.4 1.5 1.3v0.4h-1.5c-1.3 0.1-2.2 0.3-2.8 0.8q-0.5 0.3-0.7 0.8-0.3 0.5-0.2 1c0 1.5 1 2.4 2.7 2.4zm0.5-1.5c-0.9 0-1.4-0.3-1.4-0.9 0-0.7 0.5-1.1 1.5-1.2l1.9-0.1v0.4c0 1.2-0.7 1.8-2 1.8zm5.3 4.8q0 0 0.1 0.1 0.4 0.1 0.8 0.1c1.4 0 2.7-0.6 3.4-2.6l3.2-8.6q0 0 0 0 0-0.1 0-0.1 0-0.1-0.1-0.1 0 0 0 0h-1.6q0 0-0.1 0 0 0.1 0 0.1l-1.8 5.5q0 0-0.1 0.1 0 0-0.1 0-0.1 0-0.1 0 0-0.1-0.1-0.1l-2-5.5q0 0-0.1-0.1 0 0-0.1 0h-1.4q-0.1 0-0.1 0-0.1 0-0.1 0.1 0 0 0 0.1 0 0 0 0l3 7.8q0 0 0 0.1l-0.1 0.3c-0.1 0.4-0.3 0.7-0.7 0.9-0.3 0.3-0.7 0.4-1 0.3q-0.4 0-0.7 0-0.1 0-0.1 0 0 0-0.1 0 0 0 0 0.1 0 0 0 0.1v1.3q0 0 0 0.1zm-32.2-13.7q-0.1 0.1-0.1 0.2 0 0.1 0.1 0.2l0.8 1.2q0.1 0.1 0.2 0.1 0 0.1 0.1 0.1 0.1 0 0.1-0.1 0.1 0 0.2 0 0.7-0.8 1.7-1.2 1-0.4 2.1-0.4c3 0 4.5 2.2 4.5 4.4 0 2.5-1.6 4.1-3.9 4.2-1.9 0-3.2-1.2-3.2-2.8q0-0.6 0.2-1.2 0.3-0.5 0.8-0.9 0.1-0.1 0.1-0.2 0-0.2-0.1-0.3l-0.9-1.1q0-0.1-0.1-0.1-0.1 0-0.1 0-0.1-0.1-0.2 0 0 0-0.1 0-0.8 0.7-1.3 1.7-0.5 1-0.5 2.1c0 2.7 2.4 4.9 5.3 4.9h0.1c3.5-0.1 6.1-2.7 6.1-6.3 0-3.1-2.4-6.5-6.7-6.5-1.9 0-3.8 0.7-5.2 2z"/></g></g></svg>