<svg version="1.2" xmlns="http://www.w3.org/2000/svg" viewBox="0 0 53 37" width="53" height="37"><defs><clipPath clipPathUnits="userSpaceOnUse" id="cp1"><path d="m-1853-8085h1920v8198h-1920z"/></clipPath><clipPath clipPathUnits="userSpaceOnUse" id="cp2"><path d="m0.15 0h52.85v36h-52.85z"/></clipPath></defs><style>.a{fill:#fff}.b{fill:#172b85}</style><g clip-path="url(#cp1)"><g clip-path="url(#cp2)"><path class="a" d="m4.4 0h44.4c2.3 0 4.2 1.9 4.2 4.2v27.6c0 2.3-1.9 4.2-4.2 4.2h-44.4c-2.4 0-4.3-1.9-4.3-4.2v-27.6c0-2.3 1.9-4.2 4.3-4.2z"/><path fill-rule="evenodd" class="b" d="m16 24.5h-3.2l-2.4-9.3c-0.2-0.4-0.4-0.8-0.8-1-0.9-0.4-1.9-0.8-2.9-0.9v-0.4h5.2c0.7 0 1.3 0.5 1.3 1.2l1.3 6.7 3.3-7.9h3.1zm6.7 0h-3.1l2.6-11.6h3zm10.8-3.9c0 2.5-2.1 4.1-5.5 4-1 0-2.2-0.2-3.3-0.6l0.5-2.5c1 0.4 2.1 0.7 3.2 0.7 0.9 0 1.8-0.4 1.8-1.2 0.1-0.5-0.4-0.9-1.5-1.4-1.1-0.6-2.6-1.5-2.6-3.2 0-2.2 2.1-3.8 5.1-3.8 0.9 0 1.9 0.2 2.8 0.5l-0.5 2.5c-0.9-0.4-2-0.6-3-0.5-0.7 0-1.2 0.4-1.3 1 0 1.3 4.3 1.5 4.3 4.5zm7.9 3.9l-0.4-1.7h-3.8l-0.7 1.7h-3.1l4.5-10.7c0.2-0.6 0.7-0.9 1.2-0.9h2.7l2.4 11.6zm-3.4-4.1h2.5l-0.9-4.4z"/></g></g></svg>