<svg xmlns="http://www.w3.org/2000/svg" width="121.029" height="121.508" viewBox="0 0 121.029 121.508">
  <g id="Group_13322" data-name="Group 13322" transform="translate(22357.434 2832.5)">
    <g id="Group_13317" data-name="Group 13317" transform="translate(-22874.934 -4165)">
      <path id="Subtraction_20" data-name="Subtraction 20" d="M-12134.5,128h-41.006c0-.119,0-.237,0-.356a33.788,33.788,0,0,0-2.672-13.234,33.882,33.882,0,0,0-7.286-10.808,33.88,33.88,0,0,0-10.806-7.287,33.784,33.784,0,0,0-13.234-2.672c-.163,0-.327,0-.5,0v-42a33.777,33.777,0,0,0,13.076-2.7,33.851,33.851,0,0,0,10.694-7.215,33.916,33.916,0,0,0,7.251-10.667A33.793,33.793,0,0,0-12176.23,18h42.734a33.775,33.775,0,0,0,2.722,13,33.952,33.952,0,0,0,7.188,10.636,33.863,33.863,0,0,0,10.605,7.227A33.812,33.812,0,0,0-12100,51.641v42h-.225l-.275,0a33.792,33.792,0,0,0-13.235,2.673,33.874,33.874,0,0,0-10.8,7.285,33.893,33.893,0,0,0-7.288,10.808,33.821,33.821,0,0,0-2.673,13.235c0,.03,0,.06,0,.09v.088c0,.06,0,.118,0,.177Z" transform="translate(12732.999 1320)" fill="none" stroke="#fff" stroke-width="1"/>
    </g>
    <g id="Group_13318" data-name="Group 13318" transform="translate(-22874.934 -4165)">
      <path id="AdobeStock_516046892" d="M0,5.011A4.989,4.989,0,0,1,4.989,10h.022A4.989,4.989,0,0,1,10,5.011V4.989A4.989,4.989,0,0,1,5.011,0H4.989A4.989,4.989,0,0,1,0,4.989Z" transform="translate(518 1333)" fill="none" stroke="#fff" stroke-width="1" opacity="0"/>
      <path id="AdobeStock_516046892-2" data-name="AdobeStock_516046892" d="M0,5.011A4.989,4.989,0,0,1,4.989,10h.022A4.989,4.989,0,0,1,10,5.011V4.989A4.989,4.989,0,0,1,5.011,0H4.989A4.989,4.989,0,0,1,0,4.989Z" transform="translate(628.03 1443.508)" fill="none" stroke="#fff" stroke-width="1" opacity="0"/>
    </g>
  </g>
</svg>
