<svg xmlns="http://www.w3.org/2000/svg" width="32" height="32.015" viewBox="0 0 32 32.015">
  <g id="Group_12569" data-name="Group 12569" transform="translate(-1397.5 -4127)">
    <path id="Path_1562" data-name="Path 1562" d="M29.314,2.092A8.223,8.223,0,0,0,17.939,2.5l-.772.773L16.393,2.5A8.222,8.222,0,0,0,5.02,2.092a8,8,0,0,0-.177,11.485l11.381,11.38a1.332,1.332,0,0,0,1.885,0l11.38-11.38a8,8,0,0,0-.176-11.485" transform="translate(1397.667 4127)" fill="#ffd0cc"/>
    <g id="Path_1564" data-name="Path 1564" transform="translate(1397 4128.667)" fill="#fff" stroke-miterlimit="10">
      <path d="M 15.16625785827637 29.8483715057373 C 14.94397735595703 29.8483715057373 14.73509788513184 29.76168060302734 14.57808780670166 29.60427093505859 L 3.196207523345947 18.22372055053711 C 1.749707579612732 16.7765998840332 0.9700176119804382 14.85274124145508 1.000877618789673 12.80662059783936 C 1.031717538833618 10.7615909576416 1.870537638664246 8.861320495605469 3.362817525863647 7.455860614776611 C 4.701657772064209 6.194850921630859 6.482267379760742 5.500391006469727 8.37664794921875 5.500391006469727 C 10.48030757904053 5.500391006469727 12.54446792602539 6.358040809631348 14.03986740112305 7.853440761566162 L 14.81320762634277 8.62678050994873 L 15.16705799102783 8.980640411376953 L 15.52061748504639 8.626481056213379 L 16.29262733459473 7.853140830993652 C 17.78771781921387 6.358040809631348 19.85194778442383 5.500391006469727 21.95573806762695 5.500391006469727 C 23.85027694702148 5.500391006469727 25.63131713867188 6.194880962371826 26.97076797485352 7.455930709838867 C 28.46308708190918 8.861420631408691 29.30184745788574 10.76174068450928 29.33247756958008 12.80677127838135 C 29.36311721801758 14.85286045074463 28.58304786682129 16.77665138244629 27.13595771789551 18.22374153137207 L 15.75587749481201 29.60382080078125 C 15.59817790985107 29.76152038574219 15.38877773284912 29.8483715057373 15.16625785827637 29.8483715057373 Z" stroke="none"/>
      <path d="M 8.37664794921875 6.000391006469727 C 6.610208511352539 6.000391006469727 4.951347351074219 6.646551132202148 3.705617904663086 7.819850921630859 C 2.312618255615234 9.131801605224609 1.529607772827148 10.90548133850098 1.500818252563477 12.81414985656738 C 1.472017288208008 14.72392082214355 2.199737548828125 16.51957130432129 3.549747467041016 17.87014007568359 L 14.93208789825439 29.25115966796875 C 15.01645755767822 29.33574104309082 15.11501789093018 29.3483715057373 15.16625785827637 29.3483715057373 C 15.21777725219727 29.3483715057373 15.31695747375488 29.33562088012695 15.40231800079346 29.2502613067627 L 26.78239822387695 17.87018013000488 C 28.13304710388184 16.51953125 28.86113739013672 14.72397041320801 28.83252716064453 12.81425094604492 C 28.8039379119873 10.90560150146484 28.02098846435547 9.131891250610352 26.62802696228027 7.819971084594727 C 25.38185691833496 6.646730422973633 23.72250747680664 6.000530242919922 21.95505714416504 6.000391006469727 C 19.98331832885742 6.000391006469727 18.04819869995117 6.804670333862305 16.64648818969727 8.206390380859375 L 15.16736793518066 9.688051223754883 L 13.68630790710449 8.206991195678711 C 12.28398704528809 6.804670333862305 10.34868812561035 6.000391006469727 8.37664794921875 6.000391006469727 M 8.376646041870117 5.000387191772461 C 10.55527305603027 5.000387191772461 12.75343322753906 5.859901428222656 14.39341735839844 7.49989128112793 L 15.16675758361816 8.273231506347656 L 15.9387674331665 7.49989128112793 C 19.03611755371094 4.402528762817383 24.12414932250977 4.089202880859375 27.31350708007812 7.091880798339844 C 30.61352729797363 10.19990158081055 30.67219734191895 15.39459991455078 27.4895076751709 18.57728958129883 L 16.10942840576172 29.95737075805664 C 15.58809757232666 30.47870063781738 14.74408912658691 30.47870063781738 14.22408676147461 29.95737075805664 L 2.842678070068359 18.57728958129883 C -0.3386821746826172 15.39459991455078 -0.2800121307373047 10.19990158081055 3.020008087158203 7.091880798339844 C 4.520034790039062 5.679059982299805 6.440618515014648 5.000387191772461 8.376646041870117 5.000387191772461 Z" stroke="none" fill="#081f4d"/>
    </g>
  </g>
</svg>
