<svg version="1.2" xmlns="http://www.w3.org/2000/svg" viewBox="0 0 54 70" width="54" height="70"><defs><clipPath clipPathUnits="userSpaceOnUse" id="cp1"><path d="m-1413-1642h1920v6351h-1920z"/></clipPath><clipPath clipPathUnits="userSpaceOnUse" id="cp2"><path d="m1 1h52.3v68h-52.3z"/></clipPath></defs><style>.a{fill:#ffdad1;stroke:#000}</style><g clip-path="url(#cp1)"><g clip-path="url(#cp2)"><path fill-rule="evenodd" class="a" d="m52.8 27.1c0 4.6-1.2 9-3.5 12.9q-0.8 1.4-1.7 2.6l-18.7 25c-0.4 0.6-1.1 0.9-1.8 0.9-0.7 0-1.3-0.3-1.7-0.9l-18.7-25q-0.9-1.2-1.7-2.6c-2.3-3.9-3.5-8.3-3.5-12.9 0-14.1 11.5-25.6 25.6-25.6 14.2 0 25.7 11.5 25.7 25.6zm-17.3 1.5c1-5.8-4-10.8-9.8-9.8-3.5 0.5-6.4 3.4-6.9 6.9-1 5.8 4 10.8 9.8 9.8 3.5-0.5 6.4-3.4 6.9-6.9z"/></g></g></svg>