<svg version="1.2" xmlns="http://www.w3.org/2000/svg" viewBox="0 0 21 21" width="21" height="21"><defs><clipPath clipPathUnits="userSpaceOnUse" id="cp1"><path d="m-877-3165h1920v5488h-1920z"/></clipPath></defs><style></style><g clip-path="url(#cp1)"><path fill-rule="evenodd" d="m20 6v8c0 3.3-2.7 6-6 6h-8c-3.3 0-6-2.7-6-6v-8c0-3.3 2.7-6 6-6h8c3.3 0 6 2.7 6 6zm-2 0c0-2.2-1.8-4-4-4h-8c-2.2 0-4 1.8-4 4v8c0 2.2 1.8 4 4 4h8c2.2 0 4-1.8 4-4z"/><path fill-rule="evenodd" d="m15.2 10c0 2.9-2.3 5.2-5.2 5.2-2.9 0-5.2-2.3-5.2-5.2 0-2.9 2.3-5.2 5.2-5.2 2.9 0 5.2 2.3 5.2 5.2zm-2 0c0-1.7-1.5-3.2-3.2-3.2-1.7 0-3.2 1.5-3.2 3.2 0 1.7 1.5 3.2 3.2 3.2 1.7 0 3.2-1.5 3.2-3.2z"/><path  d="m15.2 3.6c0.7 0 1.2 0.6 1.2 1.3 0 0.7-0.5 1.2-1.2 1.2-0.7 0-1.3-0.5-1.3-1.2 0-0.7 0.6-1.3 1.3-1.3z"/></g></svg>