<?xml version="1.0" encoding="UTF-8"?>
<svg id="Layer_1" data-name="Layer 1" xmlns="http://www.w3.org/2000/svg" viewBox="0 0 16 16">
  <rect width="16" height="16" rx="2" ry="2" fill="#1f454d"/>
  <path id="Path_2035" data-name="Path 2035" d="m12.42,7.84c-.33-.41-.86-.62-1.38-.53-.28.04-.54.13-.79.27l-.06.03c-.63-.58-.89-1.41-.99-2.02-.07-.42-.09-.85-.07-1.27.38-.59.67-.99.7-1.03h0c.06-.08.04-.2-.04-.26s-.19-.04-.25.04h0s-.18.24-.37.52c-.25.02-.49.06-.74.11l-.12-.06c-.38-.2-.81-.29-1.25-.27-.72.03-1.39.38-1.99,1.04-.91,1-1.55,1.16-1.82,1.23h-.02c-.11.03-.17.14-.14.25.02.07.07.12.14.14.57.13,1.16.21,1.75.22h.18c.97,0,1.75-.19,2.32-.57.54-.36.9-.92,1.01-1.55v-.07c.14-.03.27-.05.4-.07-.27.42-.53.83-.76,1.24-.82,1.45-1.3,2.68-1.43,3.64h-.03c-.12-.06-.24-.13-.34-.21h0c-.24-.18-.54-.24-.83-.17-.48.11-.92.53-1.2,1.13-.37.8-.29,1.74.21,2.46h0c.17.23.39.42.64.56.33.18.68.3,1.05.35.1.01.2.02.3.02h.01c.2,0,.4-.04.59-.1.83-.3,1.43-1.02,1.58-1.89.03-.23.04-.46.03-.69.2.38.5.7.87.93h0c.18.11.39.19.6.23.15.03.31.05.46.05h0c.86,0,1.64-.51,1.99-1.3h0c.1-.26.17-.53.19-.8h0c.07-.57-.1-1.14-.45-1.58Zm-2.69-.18c-.22.03-.42.11-.59.24-.35.25-.55.67-.61,1.25-.01.14-.01.28,0,.41-.04-.07-.09-.13-.14-.19-.19-.23-.48-.35-.78-.34h0c-.16.01-.31,0-.46-.05h-.05c.11-.94.58-2.17,1.39-3.59.1-.18.2-.35.29-.49.01.25.04.49.07.74.1.74.41,1.44.9,2.02h-.02Z" fill="#ffcfcb"/>
</svg>