<svg xmlns="http://www.w3.org/2000/svg" width="111.086" height="69" viewBox="0 0 111.086 69">
  <g id="Group_11245" data-name="Group 11245" transform="translate(4015.239 -2122.557)">
    <g id="Group_11242" data-name="Group 11242" transform="translate(-4001.918 2123.057)">
      <path id="Path_979" data-name="Path 979" d="M-3964.181,2140.645c-1.452-3.529,2.618-4.383,3.272-.769.654,3.329,2.5,4.325,5.208,4.325,2.078,0,3.586-1.082,3.586-2.931,0-5.435-12.01-5.976-12.01-12.408,0-4.012,4.241-5.806,8.253-5.806,3.9,0,6.83,1.565,7.968,3.33,2.049,3.216-1.821,4.752-3.1,1.309-1-2.646-2.561-3.5-4.582-3.5-1.793,0-3.442.8-3.442,2.76,0,3.785,12.009,4.725,12.009,11.953,0,3.785-2.932,6.432-8.567,6.432C-3958.66,2145.34-3962.787,2143.889-3964.181,2140.645Z" transform="translate(3964.491 -2123.057)" fill="#1f454d" stroke="rgba(0,0,0,0)" stroke-width="1"/>
      <path id="Path_980" data-name="Path 980" d="M-3890.252,2149.565c.341-.683.255-1.878-.74-4.61l-1.508-4.156a10.486,10.486,0,0,0-1.906-3.3c-.8-1.138-.741-1.622.654-1.622h5.294c1.565,0,1.565.8,1.395,1.878a6.615,6.615,0,0,0,.625,3.159l1.992,5.749c.2.541.542.541.741,0l1.764-5.094a1.036,1.036,0,0,0-.028-.768,9.968,9.968,0,0,0-1.907-3.3c-.8-1.138-.74-1.622.654-1.622h5.294c1.564,0,1.564.8,1.394,1.878a6.605,6.605,0,0,0,.626,3.159l1.963,5.749c.171.541.541.541.74,0l2.362-6.517c3.1-8.537,8.538-10.359,13.006-10.046,4.1.285,3.13,4.468-1,3.217a9.561,9.561,0,0,0-3.045-.74c-3.33,0-6.119,2.874-7.77,7.228l-1.992,5.265c-1.024,2.675-1.053,3.842-.711,4.5.2.4.171.542-.256.542h-6.887c-.426,0-.456-.171-.256-.542.341-.683.228-1.906-.74-4.61l-.6-1.679c-.085-.227-.285-.227-.37,0l-.683,1.793c-1.025,2.675-1.053,3.842-.711,4.5.2.4.171.542-.255.542H-3890C-3890.424,2150.106-3890.452,2149.935-3890.252,2149.565Z" transform="translate(3912.676 -2128.278)" fill="#1f454d" stroke="rgba(0,0,0,0)" stroke-width="1"/>
      <path id="Path_981" data-name="Path 981" d="M-3790.628,2158.622a7.357,7.357,0,0,1,7.57-7.57c3.358,0,6.858,1.964,6.858,5.521,0,3.871-4.3,5.379-7.854,4.724-.427-.085-.569.028-.4.427a4.133,4.133,0,0,0,3.955,2.476,6.986,6.986,0,0,0,3.216-.8c.569-.313.739-.085.427.313a6.732,6.732,0,0,1-5.72,2.476C-3786.758,2166.192-3790.628,2163.147-3790.628,2158.622Zm6.232,1.452c4.866.854,3.87-7.883,1.338-7.883-1.907,0-2.362,4.98-1.736,7.542A.492.492,0,0,0-3784.4,2160.073Z" transform="translate(3834.992 -2143.909)" fill="#1f454d" stroke="rgba(0,0,0,0)" stroke-width="1"/>
      <path id="Path_982" data-name="Path 982" d="M-3728.506,2158.622a7.357,7.357,0,0,1,7.57-7.57c3.358,0,6.858,1.964,6.858,5.521,0,3.871-4.3,5.379-7.854,4.724-.427-.085-.57.028-.4.427a4.134,4.134,0,0,0,3.956,2.476,6.986,6.986,0,0,0,3.216-.8c.569-.313.74-.085.427.313a6.734,6.734,0,0,1-5.72,2.476C-3724.636,2166.192-3728.506,2163.147-3728.506,2158.622Zm6.232,1.452c4.867.854,3.871-7.883,1.338-7.883-1.907,0-2.362,4.98-1.736,7.542A.5.5,0,0,0-3722.274,2160.073Z" transform="translate(3788.722 -2143.909)" fill="#1f454d" stroke="rgba(0,0,0,0)" stroke-width="1"/>
      <path id="Path_983" data-name="Path 983" d="M-3666.992,2147.232v-7.4a.269.269,0,0,0-.285-.285h-.769a.523.523,0,0,1-.569-.569.537.537,0,0,1,.569-.569c2.875,0,4.411-2.562,5.436-4.411.371-.683,1.31-.825,1.31.285v3.842a.269.269,0,0,0,.284.285h2.191a.537.537,0,0,1,.569.569.523.523,0,0,1-.569.569h-2.191a.269.269,0,0,0-.284.285v7.6c0,3.245,1.194,3.956,2.39,3.956a3.048,3.048,0,0,0,1.792-.626c.541-.4.769-.085.455.37a5.323,5.323,0,0,1-4.126,1.964C-3665.655,2153.094-3666.992,2149.993-3666.992,2147.232Z" transform="translate(3744.112 -2130.811)" fill="#1f454d" stroke="rgba(0,0,0,0)" stroke-width="1"/>
    </g>
    <g id="Group_11243" data-name="Group 11243" transform="translate(-4014.739 2145.053)">
      <path id="Path_984" data-name="Path 984" d="M-4014.739,2227.217c0-8.025,6.166-14.764,13.708-14.764,3.643,0,8,1.935,8.509,6.6.427,3.956-3.045,6.232-6.346,6.232a8,8,0,0,1-5.009-1.821c-3.073-2.59.513-5.606,2.277-2.476.6.968,1.423,3.159,2.9,3.159,1.651,0,3.216-1.11,2.9-5.208-.256-3.443-2.277-5.35-5.009-5.35-4.61,0-8.243,6.909-8.243,12.942,0,7.883,4.673,12.845,9.2,12.845,3.159,0,4.392-.914,6.213-1.569,3.672-1.338,6.973-.882,8.623.4,3.044,2.333-.057,5.094-2.447,2.276-1.85-2.134-3.614-2.419-5.521-1.707a26.4,26.4,0,0,1-9.138,2.109C-4009.4,2240.887-4014.739,2234.7-4014.739,2227.217Z" transform="translate(4014.739 -2211.638)" fill="#1f454d" stroke="rgba(0,0,0,0)" stroke-width="1"/>
      <path id="Path_985" data-name="Path 985" d="M-3921.662,2227.281a9.208,9.208,0,0,0,.654-3.472v-10.486a.676.676,0,0,0-.056-.227l-.882-1.367a.572.572,0,0,1,.341-.882l5.464-1.565a.635.635,0,0,1,.825.626v5.647c0,.513.257.6.627.228a5.338,5.338,0,0,1,4.1-1.65c5.094,0,5.806,4.012,5.806,5.862v3.813a9.208,9.208,0,0,0,.654,3.472c.512,1.167.541,1.537-.74,1.537h-5.521c-1.281,0-1.252-.37-.74-1.537a9.208,9.208,0,0,0,.655-3.472v-4.383c0-2.647-.712-3.671-2.078-3.671-1.451,0-2.3,1.509-2.675,3.073a2.811,2.811,0,0,0-.086.683v4.3a9.212,9.212,0,0,0,.655,3.472c.513,1.167.541,1.537-.74,1.537h-5.521C-3922.2,2228.818-3922.175,2228.448-3921.662,2227.281Z" transform="translate(3945.7 -2209.258)" fill="#1f454d" stroke="rgba(0,0,0,0)" stroke-width="1"/>
      <path id="Path_986" data-name="Path 986" d="M-3844.916,2235.937a7.357,7.357,0,0,1,7.57-7.57c3.358,0,6.859,1.964,6.859,5.521,0,3.871-4.3,5.379-7.855,4.724-.427-.085-.569.028-.4.427a4.135,4.135,0,0,0,3.956,2.476,6.976,6.976,0,0,0,3.216-.8c.569-.313.739-.085.427.313a6.732,6.732,0,0,1-5.72,2.476C-3841.045,2243.507-3844.916,2240.462-3844.916,2235.937Zm6.232,1.452c4.867.854,3.87-7.883,1.338-7.883-1.907,0-2.362,4.98-1.736,7.541A.494.494,0,0,0-3838.684,2237.388Z" transform="translate(3888.249 -2223.49)" fill="#1f454d" stroke="rgba(0,0,0,0)" stroke-width="1"/>
      <path id="Path_987" data-name="Path 987" d="M-3782.361,2241.521a9.209,9.209,0,0,0,.654-3.472v-5.521a.665.665,0,0,0-.057-.228l-.882-1.366a.573.573,0,0,1,.342-.882l5.464-1.565a.636.636,0,0,1,.825.626v.712c0,.512.256.6.626.228a6.931,6.931,0,0,1,5.948-1.537c3.9.939,1.907,5.294-1.025,3.216-1.052-.74-1.451-1.85-2.675-1.85a3.369,3.369,0,0,0-2.875,3.529v4.639a9.19,9.19,0,0,0,.655,3.472c.511,1.167.54,1.537-.74,1.537h-5.521C-3782.9,2243.057-3782.873,2242.687-3782.361,2241.521Z" transform="translate(3841.944 -2223.496)" fill="#1f454d" stroke="rgba(0,0,0,0)" stroke-width="1"/>
      <path id="Path_988" data-name="Path 988" d="M-3717.227,2241.521a9.209,9.209,0,0,0,.655-3.472v-5.521a.661.661,0,0,0-.057-.228l-.882-1.366a.572.572,0,0,1,.342-.882l5.465-1.565a.636.636,0,0,1,.825.626v.712c0,.512.256.6.626.228a6.933,6.933,0,0,1,5.948-1.537c3.9.939,1.906,5.294-1.025,3.216-1.053-.74-1.451-1.85-2.675-1.85a3.368,3.368,0,0,0-2.874,3.529v4.639a9.209,9.209,0,0,0,.655,3.472c.512,1.167.541,1.537-.74,1.537h-5.521C-3717.768,2243.057-3717.739,2242.687-3717.227,2241.521Z" transform="translate(3793.43 -2223.496)" fill="#1f454d" stroke="rgba(0,0,0,0)" stroke-width="1"/>
      <path id="Path_989" data-name="Path 989" d="M-3673.784,2250.84c-1.85-3.216,2.163-4.838,3.1-1.309a4.3,4.3,0,0,0,4.468,3.5c1.821,0,5.179-.427,6.83-5.919.37-1.252.028-2.732-1.594-2.732-.825,0-.882-.057-1.053-.456l-3.984-8.851a13.036,13.036,0,0,0-2.078-3.3c-.854-1.138-.825-1.622.57-1.622h5.293c1.565,0,1.594.8,1.48,1.878a7.468,7.468,0,0,0,.8,3.159l2.134,5.749c.2.541.569.541.74,0l2.078-6.289c.654-1.964.682-2.9.341-3.586-.227-.483-.171-.911.484-.911h2.675c.6,0,.569.341.057.711a7.542,7.542,0,0,0-2.22,3.5c-4.411,12.494-4.439,12.607-4.467,12.722-1.623,5.179-4.725,7.086-8.254,7.086C-3669.344,2254.17-3672.645,2252.8-3673.784,2250.84Z" transform="translate(3761.143 -2224.819)" fill="#1f454d" stroke="rgba(0,0,0,0)" stroke-width="1"/>
    </g>
    <g id="Group_11244" data-name="Group 11244" transform="translate(-3980 2167.465)">
      <path id="Path_990" data-name="Path 990" d="M-3878.24,2321.694a8.408,8.408,0,0,0,.626-3.472V2306.9a9.206,9.206,0,0,0-.655-3.472c-.512-1.167-.541-1.537.74-1.537h9.875c4.042,0,6.916,1.964,6.916,5.293,0,7.485-8.765,6.717-11.013,10.217a1.167,1.167,0,0,0-.171.683,8.864,8.864,0,0,0,.626,3.614c.541,1.167.569,1.537-.711,1.537h-5.493C-3878.81,2323.231-3878.781,2322.861-3878.24,2321.694Zm6.915-6.574c1.651-1.85,4.9-2.59,4.9-7.77,0-3.216-1.878-4.325-3.9-4.325h-1.024a.511.511,0,0,0-.57.568v11.3C-3871.923,2315.4-3871.667,2315.491-3871.325,2315.121Z" transform="translate(3878.599 -2300.663)" fill="#1f454d" stroke="rgba(0,0,0,0)" stroke-width="1"/>
      <path id="Path_991" data-name="Path 991" d="M-3803.708,2318.123a9.208,9.208,0,0,0,.654-3.472v-5.492a.664.664,0,0,0-.057-.228l-.882-1.366a.573.573,0,0,1,.341-.882l5.465-1.566a.636.636,0,0,1,.825.626v8.908a9.208,9.208,0,0,0,.654,3.472c.512,1.167.541,1.537-.74,1.537h-5.521C-3804.25,2319.659-3804.22,2319.289-3803.708,2318.123Zm3.33-21.031a2.866,2.866,0,0,1,2.875,2.874,2.873,2.873,0,0,1-2.875,2.9,2.878,2.878,0,0,1-2.9-2.9A2.872,2.872,0,0,1-3800.379,2297.092Z" transform="translate(3823.106 -2297.092)" fill="#1f454d" stroke="rgba(0,0,0,0)" stroke-width="1"/>
      <path id="Path_992" data-name="Path 992" d="M-3768.229,2319.9a7.358,7.358,0,0,1,7.57-7.57c3.358,0,6.858,1.963,6.858,5.521,0,3.871-4.3,5.379-7.854,4.724-.427-.085-.569.028-.4.427a5.088,5.088,0,0,0,4.81,3.045c3.955,0,7.484-4.61,6.317-10.018a8.63,8.63,0,0,0-8.054-6.545,9.564,9.564,0,0,0-3.045.74c-4.127,1.252-5.095-2.931-1-3.216,6.687-.512,12.35,3.984,13.29,9.362.91,5.208-1.792,11.668-9.391,11.668C-3763.99,2328.043-3768.229,2324.885-3768.229,2319.9Zm6.233,1.451c4.866.854,3.87-7.883,1.337-7.883-1.907,0-2.362,4.98-1.737,7.541A.5.5,0,0,0-3762,2321.356Z" transform="translate(3796.392 -2304.452)" fill="#1f454d" stroke="rgba(0,0,0,0)" stroke-width="1"/>
    </g>
  </g>
</svg>
