<svg xmlns="http://www.w3.org/2000/svg" width="437.668" height="442.23" viewBox="0 0 437.668 442.23">
  <path id="Path_2351" data-name="Path 2351" d="M109.637,78.371c63.6-29.06,108.657-7.932,133.6,12.46a112.011,112.011,0,0,1,22.168,25.21,78.379,78.379,0,0,1,9.215,19,101.492,101.492,0,0,1-5.047,47.767c-13.085,36.114-45.517,61.317-96.391,74.913a5.586,5.586,0,1,0,2.883,10.794c6.509-1.739,13.345-3.858,20.291-6.412a68.381,68.381,0,0,0-5.676,25.264,5.586,5.586,0,0,0,11.171-.076c0-.309.139-17.266,11.2-31.884.1-.126.159-.266.243-.4,24.185-11.51,47.615-29.114,61.382-55.992a107.6,107.6,0,0,0,5.6-12.964,110.6,110.6,0,0,0,3.749-13.033,113.84,113.84,0,0,0,2.694-22.623,51.851,51.851,0,0,1,10.105-.034,116.241,116.241,0,0,1,8.185-16.087c-4.968-3.8-20.9-16.6-29.934-30.9-12.321-19.5-15.863-40.5-13.591-56.741,4-28.591-3.77-45.557-3.77-45.557s44.742,22.187,57.414,65.332c7.112,24.219,4.027,42.4-.308,54.017,15.012-18.064,31.292-25.017,36.568-19.7,6,6.056,9.435,14.491,4.25,15.675-5.137,1.182-17.148,1.827-32.136,18.517,9.277-3.427,28.771-8.241,54.775-1.7,36.954,9.288,58.383,50.4,58.383,50.4a175.394,175.394,0,0,0-40.979-7.057c-14.688-.641-25.864.554-42.835-6.792-13.8-5.977-28.534-23.532-33.559-29.883a133.485,133.485,0,0,0-9.285,13.14A62.274,62.274,0,0,1,329.2,163.158c30.133,23.3,41.815,64.626,41.815,64.626,11.046,29.438,23.743,107.1-48.012,170.331-83.9,73.936-173.151,32.354-225.377,28.59-50.486-3.645-81.367-47.5-94.714-134.63C-12.178,193.5,46.048,107.43,109.637,78.371" transform="translate(0.014)" fill="none" stroke="#fff3f2" stroke-width="1" opacity="0.2"/>
</svg>
