<svg xmlns="http://www.w3.org/2000/svg" xmlns:xlink="http://www.w3.org/1999/xlink" width="1920" height="1066" viewBox="0 0 1920 1066">
  <defs>
    <clipPath id="clip-path">
      <rect id="Rectangle_2150" data-name="Rectangle 2150" width="1920" height="1066" transform="translate(0 166)" fill="#1f454d"/>
    </clipPath>
  </defs>
  <g id="Mask_Group_87" data-name="Mask Group 87" transform="translate(0 -166)" opacity="0.15" clip-path="url(#clip-path)">
    <g id="Group_13335" data-name="Group 13335" transform="translate(15326.46 -343.61)">
      <g id="Group_13333" data-name="Group 13333" transform="translate(-15082.869 -249.214)">
        <path id="Path_2409" data-name="Path 2409" d="M512.757,239.935a15.019,15.019,0,0,1-15.018,15.018v.065a15.018,15.018,0,0,1,15.018,15.018v0h.067a15.019,15.019,0,0,1,15.018-15.018v-.067a15.02,15.02,0,0,1-15.018-15.018Z" transform="translate(-182.84 -239.935)" fill="#ffd0cc"/>
        <path id="Path_2410" data-name="Path 2410" d="M450.5,557.037a15.019,15.019,0,0,1-15.018,15.018v.065A15.017,15.017,0,0,1,450.5,587.138v0h.067a15.019,15.019,0,0,1,15.018-15.018v-.067a15.02,15.02,0,0,1-15.018-15.018Z" transform="translate(-246.505 84.35)" fill="#ffd0cc"/>
        <path id="Path_2411" data-name="Path 2411" d="M739.292,438.124a15.017,15.017,0,0,1-15.018,15.018v.065a15.017,15.017,0,0,1,15.018,15.018v0h.069a15.017,15.017,0,0,1,15.016-15.018v-.067a15.017,15.017,0,0,1-15.016-15.018Z" transform="translate(48.827 -37.256)" fill="#ffd0cc"/>
        <path id="Path_2412" data-name="Path 2412" d="M1028.081,330.537a15.019,15.019,0,0,1-15.018,15.018v.065a15.017,15.017,0,0,1,15.018,15.018v0h.069a15.017,15.017,0,0,1,15.016-15.018v-.067a15.019,15.019,0,0,1-15.016-15.018Z" transform="translate(344.158 -147.281)" fill="#ffd0cc"/>
        <path id="Path_2413" data-name="Path 2413" d="M410.865,871.309a15.018,15.018,0,0,1-15.018,15.018v.065a15.018,15.018,0,0,1,15.018,15.018v0h.067a15.019,15.019,0,0,1,15.018-15.018v-.067a15.019,15.019,0,0,1-15.018-15.018Z" transform="translate(-287.04 405.742)" fill="#ffd0cc"/>
        <path id="Path_2414" data-name="Path 2414" d="M988.443,644.808a15.019,15.019,0,0,1-15.018,15.018v.065a15.017,15.017,0,0,1,15.018,15.018v0h.069a15.017,15.017,0,0,1,15.016-15.018v-.067a15.018,15.018,0,0,1-15.016-15.018Z" transform="translate(303.622 174.11)" fill="#ffd0cc"/>
        <path id="Path_2415" data-name="Path 2415" d="M357.071,1174.254a15.017,15.017,0,0,1-15.018,15.018v.065a15.017,15.017,0,0,1,15.018,15.018v0h.069a15.017,15.017,0,0,1,15.016-15.018v-.067a15.017,15.017,0,0,1-15.016-15.018Z" transform="translate(-342.053 715.55)" fill="#ffd0cc"/>
        <path id="Path_2416" data-name="Path 2416" d="M934.649,947.754a15.018,15.018,0,0,1-15.018,15.018v.065a15.017,15.017,0,0,1,15.018,15.018v0h.069a15.017,15.017,0,0,1,15.016-15.018v-.067a15.017,15.017,0,0,1-15.016-15.018Z" transform="translate(248.609 483.919)" fill="#ffd0cc"/>
        <path id="Path_2417" data-name="Path 2417" d="M594.07,1371.234a15.018,15.018,0,0,1-15.018,15.018v.065a15.017,15.017,0,0,1,15.018,15.018v0h.069a15.017,15.017,0,0,1,15.016-15.018v-.067a15.017,15.017,0,0,1-15.016-15.018Z" transform="translate(-99.685 916.992)" fill="#ffd0cc"/>
        <path id="Path_2418" data-name="Path 2418" d="M879.086,1271.735a15.017,15.017,0,0,1-15.018,15.018v.065a15.018,15.018,0,0,1,15.018,15.018v0h.067a15.019,15.019,0,0,1,15.018-15.018v-.067a15.019,15.019,0,0,1-15.018-15.018Z" transform="translate(191.787 815.239)" fill="#ffd0cc"/>
      </g>
      <g id="Group_13334" data-name="Group 13334" transform="translate(-15490.46 -733.5)">
        <path id="Path_2419" data-name="Path 2419" d="M1323.856,1355.659a62.743,62.743,0,0,0-58.823-22.793,97.818,97.818,0,0,0-33.681,11.4l-2.5,1.392c-26.984-24.871-37.84-60.012-42.168-85.951a237.346,237.346,0,0,1-2.769-54.1c16.335-25.326,28.736-42.285,29.982-43.9l.18-.223a7.683,7.683,0,1,0-12.294-9.219l.008,0c-1.3,1.671-7.579,10.423-15.771,22.365a259.167,259.167,0,0,0-31.426,4.686l-4.915-2.524a106.586,106.586,0,0,0-53.121-11.649c-30.688,1.412-59.241,16.323-84.866,44.317-38.9,42.479-65.981,49.4-77.547,52.35l-.928.279a8.4,8.4,0,0,0,.206,16.274,374.537,374.537,0,0,0,74.685,9.456h.032l7.534,0c41.464,0,74.8-8.17,99.076-24.276a99.192,99.192,0,0,0,43.135-66.315l.494-2.953q8.222-1.745,16.6-2.85c-11.645,17.807-22.472,35.52-32.223,52.716-35.18,61.909-55.653,114.09-60.975,155.332l-1.121-.468a57.205,57.205,0,0,1-14.371-8.657l-.058-.046a40.958,40.958,0,0,0-35.386-7.164c-20.459,4.836-39.177,22.443-51.365,48.313a105.41,105.41,0,0,0,9,104.846l.031.044a80.912,80.912,0,0,0,27.356,23.637,121.978,121.978,0,0,0,44.99,14.836,107.88,107.88,0,0,0,12.621.884l.538,0a72.324,72.324,0,0,0,25.057-4.464,104.69,104.69,0,0,0,67.338-80.676s2.184-20.223,1.327-29.4a103.238,103.238,0,0,0,37.128,39.624l.053.032a82.814,82.814,0,0,0,25.467,9.765,89.936,89.936,0,0,0,19.8,2.209h.113a93.149,93.149,0,0,0,84.9-55.332l.037-.087a117.974,117.974,0,0,0,8-34.035h0A90.84,90.84,0,0,0,1323.856,1355.659Zm-114.62-7.633a55.019,55.019,0,0,0-25.354,10.192c-14.719,10.744-23.5,28.722-26.1,53.437a82.408,82.408,0,0,0,.091,17.682,54.419,54.419,0,0,0-5.874-7.961,41.385,41.385,0,0,0-33.176-14.553l-.075.006a56.333,56.333,0,0,1-19.808-2.063l-2.2-.635c4.48-39.345,24.883-91.8,59.381-152.452,4.385-7.708,8.732-15.024,12.371-21.054a264.485,264.485,0,0,0,3.179,31.349c5.828,34.879,18.928,64.246,38.2,85.967Z" transform="translate(663.743 1174.211)" fill="none" stroke="#ffd0cc" stroke-miterlimit="10" stroke-width="1"/>
        <path id="Path_2420" data-name="Path 2420" d="M1041.21,1466.866a62.744,62.744,0,0,0-58.823-22.793,97.819,97.819,0,0,0-33.681,11.4l-2.5,1.392c-26.984-24.87-37.84-60.012-42.168-85.951a237.215,237.215,0,0,1-2.769-54.1c16.335-25.326,28.736-42.286,29.982-43.9l.18-.223a7.683,7.683,0,1,0-12.294-9.219l.008,0c-1.3,1.671-7.579,10.423-15.771,22.365a259.253,259.253,0,0,0-31.426,4.687l-4.915-2.524a106.583,106.583,0,0,0-53.121-11.649c-30.688,1.412-59.242,16.323-84.868,44.316-38.9,42.48-65.979,49.4-77.544,52.35l-.93.279a8.4,8.4,0,0,0,.208,16.274,374.544,374.544,0,0,0,74.684,9.456h.032l7.534,0c41.464,0,74.8-8.17,99.076-24.276a99.187,99.187,0,0,0,43.135-66.315l.494-2.953q8.222-1.745,16.6-2.85c-11.643,17.807-22.47,35.52-32.221,52.716-35.18,61.909-55.653,114.09-60.975,155.332l-1.12-.467a57.218,57.218,0,0,1-14.371-8.657l-.059-.046a40.956,40.956,0,0,0-35.386-7.164c-20.459,4.836-39.177,22.443-51.365,48.313a105.41,105.41,0,0,0,9,104.846l.03.045a80.915,80.915,0,0,0,27.356,23.637,121.98,121.98,0,0,0,44.99,14.836,107.774,107.774,0,0,0,12.621.884l.538,0a72.324,72.324,0,0,0,25.057-4.464,104.694,104.694,0,0,0,67.338-80.676s2.185-20.223,1.327-29.4A103.238,103.238,0,0,0,922.225,1612l.053.032a82.814,82.814,0,0,0,25.467,9.765,89.917,89.917,0,0,0,19.8,2.209h.113a93.149,93.149,0,0,0,84.9-55.332l.036-.087a118.024,118.024,0,0,0,8-34.035h0A90.84,90.84,0,0,0,1041.21,1466.866Zm-114.62-7.634a55.012,55.012,0,0,0-25.354,10.192c-14.719,10.744-23.5,28.722-26.1,53.436a82.537,82.537,0,0,0,.089,17.682,54.221,54.221,0,0,0-5.872-7.961,41.383,41.383,0,0,0-33.176-14.553l-.075.006a56.327,56.327,0,0,1-19.808-2.063l-2.2-.635c4.48-39.345,24.883-91.8,59.381-152.451,4.385-7.708,8.73-15.025,12.37-21.054a264.447,264.447,0,0,0,3.18,31.349c5.827,34.879,18.928,64.245,38.2,85.967Z" transform="translate(374.694 1287.937)" fill="none" stroke="#ffd0cc" stroke-miterlimit="10" stroke-width="1"/>
        <path id="Path_2421" data-name="Path 2421" d="M760.433,1578.288a62.747,62.747,0,0,0-58.825-22.793,97.8,97.8,0,0,0-33.679,11.4l-2.5,1.392c-26.984-24.871-37.84-60.012-42.166-85.951a237.212,237.212,0,0,1-2.771-54.1c16.337-25.325,28.736-42.285,29.982-43.9l.182-.223a7.683,7.683,0,0,0-12.294-9.219l.008,0c-1.3,1.671-7.581,10.423-15.771,22.365a259.269,259.269,0,0,0-31.428,4.687l-4.915-2.524a106.583,106.583,0,0,0-53.121-11.649c-30.688,1.412-59.242,16.323-84.867,44.317-38.9,42.48-65.981,49.4-77.547,52.35l-.928.279A8.4,8.4,0,0,0,370,1501a374.489,374.489,0,0,0,74.682,9.456h.034l7.532,0c41.466,0,74.8-8.17,99.076-24.276a99.192,99.192,0,0,0,43.135-66.315l.493-2.953q8.222-1.745,16.6-2.85c-11.642,17.808-22.47,35.52-32.219,52.716-35.182,61.91-55.655,114.09-60.975,155.332l-1.123-.467a57.165,57.165,0,0,1-14.369-8.657l-.061-.046a40.955,40.955,0,0,0-35.386-7.164c-20.457,4.836-39.175,22.443-51.363,48.313a105.41,105.41,0,0,0,9,104.846l.03.045a80.915,80.915,0,0,0,27.356,23.637,121.993,121.993,0,0,0,44.99,14.836,107.885,107.885,0,0,0,12.621.884l.538,0a72.324,72.324,0,0,0,25.057-4.464,104.694,104.694,0,0,0,67.338-80.676s2.184-20.223,1.327-29.4a103.24,103.24,0,0,0,37.13,39.624l.053.033a82.805,82.805,0,0,0,25.465,9.765,89.935,89.935,0,0,0,19.8,2.209h.111a93.147,93.147,0,0,0,84.9-55.332l.036-.087a117.959,117.959,0,0,0,8-34.035h0A90.848,90.848,0,0,0,760.433,1578.288Zm-114.622-7.634a55.024,55.024,0,0,0-25.354,10.192c-14.719,10.744-23.5,28.722-26.1,53.436a82.541,82.541,0,0,0,.089,17.682,54.223,54.223,0,0,0-5.87-7.961,41.388,41.388,0,0,0-33.178-14.553l-.075.006a56.333,56.333,0,0,1-19.808-2.063l-2.2-.635c4.48-39.345,24.883-91.8,59.381-152.451,4.385-7.708,8.732-15.025,12.371-21.054a264.443,264.443,0,0,0,3.18,31.349c5.827,34.879,18.928,64.245,38.2,85.967Z" transform="translate(87.557 1401.883)" fill="none" stroke="#ffd0cc" stroke-miterlimit="10" stroke-width="1"/>
        <path id="Path_2422" data-name="Path 2422" d="M818.166,1258.193a62.743,62.743,0,0,0-58.823-22.794,97.82,97.82,0,0,0-33.681,11.4l-2.5,1.392c-26.984-24.873-37.84-60.012-42.168-85.951a237.21,237.21,0,0,1-2.769-54.1c16.335-25.326,28.736-42.286,29.982-43.9l.18-.223a7.683,7.683,0,0,0-12.294-9.219l.008,0c-1.3,1.671-7.579,10.423-15.771,22.365a259.187,259.187,0,0,0-31.426,4.686l-4.915-2.524a106.589,106.589,0,0,0-53.121-11.648C560.182,1069.1,531.629,1084.006,506,1112c-38.9,42.48-65.981,49.4-77.547,52.35l-.93.279a8.4,8.4,0,0,0,.208,16.274,374.563,374.563,0,0,0,74.684,9.456h.032l7.532,0c41.466,0,74.806-8.172,99.078-24.276a99.191,99.191,0,0,0,43.135-66.315l.494-2.953q8.222-1.745,16.6-2.85c-11.642,17.807-22.47,35.52-32.221,52.716-35.18,61.909-55.653,114.09-60.975,155.332l-1.121-.467a57.213,57.213,0,0,1-14.371-8.657l-.059-.046a40.964,40.964,0,0,0-35.386-7.166c-20.459,4.838-39.177,22.445-51.365,48.315a105.41,105.41,0,0,0,9,104.846l.03.044a80.911,80.911,0,0,0,27.356,23.637,121.98,121.98,0,0,0,44.99,14.836,107.828,107.828,0,0,0,12.621.884l.538,0a72.324,72.324,0,0,0,25.057-4.464,104.7,104.7,0,0,0,67.338-80.676s2.184-20.223,1.327-29.4a103.24,103.24,0,0,0,37.128,39.624l.053.032a82.828,82.828,0,0,0,25.467,9.766,89.93,89.93,0,0,0,19.8,2.209h.113a93.149,93.149,0,0,0,84.9-55.332l.036-.087a117.97,117.97,0,0,0,8-34.035h0A90.84,90.84,0,0,0,818.166,1258.193Zm-114.62-7.634a55.017,55.017,0,0,0-25.354,10.192c-14.719,10.744-23.5,28.722-26.1,53.437a82.537,82.537,0,0,0,.089,17.682,54.216,54.216,0,0,0-5.872-7.961,41.383,41.383,0,0,0-33.175-14.553l-.075.006a56.328,56.328,0,0,1-19.808-2.063l-2.2-.635c4.48-39.345,24.883-91.8,59.381-152.451,4.385-7.708,8.732-15.024,12.37-21.054a264.443,264.443,0,0,0,3.18,31.349c5.827,34.879,18.928,64.245,38.2,85.967Z" transform="translate(146.598 1074.537)" fill="none" stroke="#ffd0cc" stroke-miterlimit="10" stroke-width="1"/>
        <path id="Path_2423" data-name="Path 2423" d="M1385.393,1037.016a62.743,62.743,0,0,0-58.822-22.793,97.824,97.824,0,0,0-33.682,11.4l-2.5,1.391c-26.984-24.872-37.84-60.012-42.168-85.95a237.2,237.2,0,0,1-2.769-54.1c16.335-25.326,28.735-42.286,29.982-43.9l.18-.222a7.683,7.683,0,0,0-12.294-9.219l.008,0c-1.3,1.671-7.579,10.423-15.771,22.365a259.174,259.174,0,0,0-31.426,4.687l-4.915-2.524a106.584,106.584,0,0,0-53.121-11.648c-30.688,1.412-59.241,16.323-84.868,44.316-38.9,42.48-65.979,49.4-77.544,52.35l-.93.279a8.4,8.4,0,0,0,.208,16.274,374.54,374.54,0,0,0,74.684,9.456h.032l7.532,0c41.467,0,74.806-8.172,99.078-24.276a99.192,99.192,0,0,0,43.135-66.315l.494-2.953q8.222-1.744,16.6-2.85c-11.643,17.807-22.47,35.52-32.221,52.716-35.18,61.909-55.653,114.09-60.975,155.332l-1.12-.467a57.219,57.219,0,0,1-14.371-8.657l-.059-.047a40.964,40.964,0,0,0-35.386-7.166c-20.459,4.838-39.177,22.445-51.365,48.315a105.411,105.411,0,0,0,9,104.846l.03.044a80.912,80.912,0,0,0,27.356,23.637,121.981,121.981,0,0,0,44.99,14.836,107.721,107.721,0,0,0,12.621.884l.538,0a72.33,72.33,0,0,0,25.057-4.464,104.7,104.7,0,0,0,67.338-80.676s2.184-20.223,1.327-29.4a103.241,103.241,0,0,0,37.128,39.624l.053.032a82.815,82.815,0,0,0,25.467,9.766,89.917,89.917,0,0,0,19.8,2.209h.114a93.149,93.149,0,0,0,84.9-55.332l.036-.087a118.028,118.028,0,0,0,8-34.035h0A90.839,90.839,0,0,0,1385.393,1037.016Zm-114.62-7.634a55.014,55.014,0,0,0-25.354,10.192c-14.719,10.744-23.5,28.722-26.1,53.437a82.543,82.543,0,0,0,.089,17.682,54.224,54.224,0,0,0-5.872-7.961,41.383,41.383,0,0,0-33.175-14.553l-.075.006a56.333,56.333,0,0,1-19.808-2.063l-2.2-.635c4.48-39.345,24.883-91.8,59.381-152.451,4.385-7.708,8.729-15.024,12.37-21.054a264.444,264.444,0,0,0,3.18,31.349c5.827,34.879,18.928,64.246,38.2,85.967Z" transform="translate(726.675 848.349)" fill="none" stroke="#ffd0cc" stroke-miterlimit="10" stroke-width="1"/>
        <path id="Path_2424" data-name="Path 2424" d="M537.389,1369.615a62.744,62.744,0,0,0-58.823-22.794,97.821,97.821,0,0,0-33.681,11.4l-2.5,1.392c-26.984-24.87-37.84-60.012-42.168-85.951a237.335,237.335,0,0,1-2.769-54.1c16.335-25.326,28.736-42.286,29.982-43.9l.18-.223a7.683,7.683,0,0,0-12.294-9.219l.008,0c-1.3,1.671-7.579,10.423-15.771,22.365a259.187,259.187,0,0,0-31.426,4.686l-4.915-2.524a106.585,106.585,0,0,0-53.121-11.648c-30.688,1.412-59.242,16.323-84.867,44.316-38.9,42.48-65.981,49.4-77.546,52.35l-.93.279a8.4,8.4,0,0,0,.208,16.274,374.563,374.563,0,0,0,74.684,9.456h.032l7.534,0c41.464,0,74.8-8.169,99.076-24.276a99.192,99.192,0,0,0,43.135-66.315l.493-2.953q8.222-1.745,16.6-2.85c-11.642,17.808-22.47,35.52-32.221,52.717-35.18,61.909-55.653,114.09-60.975,155.332l-1.121-.467a57.22,57.22,0,0,1-14.371-8.657l-.059-.047a40.956,40.956,0,0,0-35.386-7.164c-20.459,4.836-39.177,22.444-51.365,48.313a105.411,105.411,0,0,0,9,104.846l.03.044a80.913,80.913,0,0,0,27.356,23.637,121.976,121.976,0,0,0,44.99,14.836,107.749,107.749,0,0,0,12.621.884l.538,0a72.324,72.324,0,0,0,25.057-4.464,104.694,104.694,0,0,0,67.338-80.675s2.184-20.223,1.327-29.4a103.239,103.239,0,0,0,37.128,39.624l.053.032a82.823,82.823,0,0,0,25.467,9.765,89.931,89.931,0,0,0,19.8,2.209h.113a93.149,93.149,0,0,0,84.9-55.332l.036-.087a117.957,117.957,0,0,0,8-34.035h0A90.84,90.84,0,0,0,537.389,1369.615Zm-114.62-7.634a55.014,55.014,0,0,0-25.354,10.192c-14.719,10.744-23.5,28.721-26.1,53.436a82.541,82.541,0,0,0,.089,17.682,54.228,54.228,0,0,0-5.872-7.961,41.384,41.384,0,0,0-33.176-14.553l-.075.006a56.333,56.333,0,0,1-19.808-2.063l-2.2-.635c4.48-39.344,24.883-91.8,59.381-152.451,4.385-7.708,8.732-15.024,12.371-21.054a264.434,264.434,0,0,0,3.18,31.349c5.827,34.878,18.928,64.245,38.2,85.967Z" transform="translate(-140.54 1188.483)" fill="none" stroke="#ffd0cc" stroke-miterlimit="10" stroke-width="1"/>
        <path id="Path_2425" data-name="Path 2425" d="M1146.519,841.888A62.743,62.743,0,0,0,1087.7,819.1a97.822,97.822,0,0,0-33.681,11.4l-2.5,1.392c-26.984-24.873-37.84-60.012-42.168-85.951a237.218,237.218,0,0,1-2.769-54.1c16.335-25.326,28.736-42.286,29.982-43.9l.18-.222a7.683,7.683,0,0,0-12.294-9.219l.008,0c-1.3,1.671-7.579,10.423-15.771,22.364a259.227,259.227,0,0,0-31.426,4.687l-4.915-2.524a106.586,106.586,0,0,0-53.121-11.648c-30.688,1.412-59.242,16.323-84.868,44.316-38.9,42.48-65.979,49.4-77.544,52.35l-.93.279a8.4,8.4,0,0,0,.208,16.274,374.53,374.53,0,0,0,74.684,9.456h.032l7.532,0c41.466,0,74.806-8.171,99.078-24.276A99.2,99.2,0,0,0,980.55,683.46l.493-2.953q8.222-1.745,16.6-2.85c-11.642,17.807-22.47,35.52-32.221,52.716-35.18,61.909-55.653,114.09-60.975,155.332l-1.121-.467a57.213,57.213,0,0,1-14.371-8.657l-.059-.047a40.965,40.965,0,0,0-35.386-7.166c-20.459,4.838-39.177,22.446-51.365,48.315a105.41,105.41,0,0,0,9,104.846l.03.044a80.911,80.911,0,0,0,27.356,23.637,121.981,121.981,0,0,0,44.99,14.836,107.8,107.8,0,0,0,12.621.884h.538a72.322,72.322,0,0,0,25.057-4.462,104.694,104.694,0,0,0,67.338-80.676s2.185-20.222,1.327-29.4a103.24,103.24,0,0,0,37.128,39.624l.052.032a82.816,82.816,0,0,0,25.467,9.765,90.057,90.057,0,0,0,19.8,2.209h.113a93.149,93.149,0,0,0,84.9-55.332l.036-.087a118.019,118.019,0,0,0,8-34.037l0,0A90.841,90.841,0,0,0,1146.519,841.888Zm-114.62-7.634a55.016,55.016,0,0,0-25.354,10.192c-14.719,10.744-23.5,28.722-26.1,53.436a82.544,82.544,0,0,0,.089,17.682,54.213,54.213,0,0,0-5.872-7.961,41.383,41.383,0,0,0-33.176-14.553l-.077.006a56.327,56.327,0,0,1-19.806-2.063l-2.2-.635c4.48-39.345,24.883-91.8,59.381-152.451,4.385-7.708,8.73-15.024,12.371-21.054a264.441,264.441,0,0,0,3.18,31.349c5.827,34.879,18.928,64.245,38.2,85.967Z" transform="translate(482.389 648.801)" fill="none" stroke="#ffd0cc" stroke-miterlimit="10" stroke-width="1"/>
        <path id="Path_2426" data-name="Path 2426" d="M1431.1,731.919a62.743,62.743,0,0,0-58.823-22.793,97.82,97.82,0,0,0-33.681,11.4l-2.5,1.392c-26.984-24.87-37.84-60.012-42.168-85.951a237.228,237.228,0,0,1-2.769-54.1c16.335-25.326,28.736-42.286,29.982-43.9l.18-.223a7.683,7.683,0,0,0-12.294-9.219l.008,0c-1.3,1.671-7.579,10.423-15.771,22.364a259.224,259.224,0,0,0-31.426,4.687l-4.915-2.524A106.585,106.585,0,0,0,1203.8,541.41c-30.687,1.412-59.242,16.323-84.866,44.316-38.9,42.48-65.981,49.4-77.547,52.35l-.93.279a8.4,8.4,0,0,0,.21,16.274,374.481,374.481,0,0,0,74.682,9.456h.032l7.534,0c41.465,0,74.8-8.169,99.076-24.276a99.186,99.186,0,0,0,43.135-66.315l.494-2.953q8.222-1.745,16.6-2.85c-11.644,17.808-22.472,35.52-32.223,52.716-35.18,61.909-55.653,114.09-60.975,155.332l-1.121-.467a57.219,57.219,0,0,1-14.371-8.657l-.059-.046a40.957,40.957,0,0,0-35.386-7.164c-20.459,4.836-39.177,22.443-51.365,48.313a105.411,105.411,0,0,0,9,104.846l.03.044a80.915,80.915,0,0,0,27.357,23.637,121.978,121.978,0,0,0,44.99,14.836,107.813,107.813,0,0,0,12.621.884l.538,0a72.326,72.326,0,0,0,25.057-4.464,104.69,104.69,0,0,0,67.338-80.676s2.184-20.222,1.327-29.4a103.248,103.248,0,0,0,37.128,39.622l.052.032a82.82,82.82,0,0,0,25.468,9.765,89.933,89.933,0,0,0,19.8,2.209h.113a93.149,93.149,0,0,0,84.9-55.332l.037-.087a117.961,117.961,0,0,0,8-34.035h0A90.841,90.841,0,0,0,1431.1,731.919Zm-114.62-7.634a55.015,55.015,0,0,0-25.354,10.192c-14.719,10.744-23.5,28.722-26.1,53.437a82.416,82.416,0,0,0,.091,17.682,54.354,54.354,0,0,0-5.874-7.961,41.384,41.384,0,0,0-33.176-14.553l-.075.006a56.332,56.332,0,0,1-19.808-2.063l-2.2-.635c4.48-39.345,24.883-91.8,59.381-152.451,4.385-7.708,8.732-15.024,12.37-21.054a264.544,264.544,0,0,0,3.18,31.349c5.827,34.879,18.928,64.246,38.2,85.967Z" transform="translate(773.417 536.341)" fill="none" stroke="#ffd0cc" stroke-miterlimit="10" stroke-width="1"/>
        <path id="Path_2427" data-name="Path 2427" d="M583.1,1064.517a62.743,62.743,0,0,0-58.823-22.793,97.821,97.821,0,0,0-33.681,11.4l-2.5,1.392c-26.984-24.873-37.84-60.012-42.168-85.951a237.213,237.213,0,0,1-2.769-54.1c16.335-25.326,28.736-42.285,29.982-43.9l.18-.223a7.683,7.683,0,1,0-12.294-9.219l.008,0c-1.3,1.671-7.579,10.423-15.771,22.364a259.239,259.239,0,0,0-31.426,4.686l-4.915-2.524A106.586,106.586,0,0,0,355.8,874.008c-30.688,1.412-59.241,16.323-84.868,44.316-38.9,42.48-65.979,49.4-77.544,52.35l-.93.279a8.4,8.4,0,0,0,.208,16.274,374.549,374.549,0,0,0,74.684,9.456h.032l7.532,0c41.466,0,74.806-8.171,99.078-24.276a99.192,99.192,0,0,0,43.135-66.315l.494-2.953q8.222-1.745,16.6-2.85C422.58,918.093,411.753,935.806,402,953c-35.18,61.909-55.653,114.09-60.975,155.332l-1.121-.467a57.207,57.207,0,0,1-14.371-8.657l-.059-.046A40.957,40.957,0,0,0,290.09,1092c-20.459,4.836-39.177,22.443-51.365,48.313a105.41,105.41,0,0,0,9,104.846l.03.045a80.914,80.914,0,0,0,27.356,23.637,121.98,121.98,0,0,0,44.99,14.836,107.827,107.827,0,0,0,12.621.884l.538,0a72.324,72.324,0,0,0,25.057-4.464,104.694,104.694,0,0,0,67.338-80.676s2.185-20.223,1.327-29.4a103.236,103.236,0,0,0,37.128,39.624l.053.033a82.811,82.811,0,0,0,25.467,9.765,89.916,89.916,0,0,0,19.8,2.209h.113a93.149,93.149,0,0,0,84.9-55.332l.036-.087a117.963,117.963,0,0,0,8-34.035h0A90.84,90.84,0,0,0,583.1,1064.517Zm-114.62-7.634a55.014,55.014,0,0,0-25.354,10.192c-14.719,10.744-23.5,28.722-26.1,53.437a82.539,82.539,0,0,0,.089,17.682,54.219,54.219,0,0,0-5.872-7.961,41.384,41.384,0,0,0-33.176-14.553l-.077.006a56.327,56.327,0,0,1-19.806-2.063l-2.2-.635c4.48-39.344,24.883-91.8,59.381-152.451,4.385-7.708,8.732-15.024,12.371-21.054a264.447,264.447,0,0,0,3.18,31.349c5.827,34.879,18.928,64.246,38.2,85.967Z" transform="translate(-93.798 876.473)" fill="none" stroke="#ffd0cc" stroke-miterlimit="10" stroke-width="1"/>
        <path id="Path_2428" data-name="Path 2428" d="M1183.816,525.609a62.744,62.744,0,0,0-58.823-22.793,97.821,97.821,0,0,0-33.681,11.4l-2.5,1.392c-26.984-24.871-37.84-60.012-42.168-85.951a237.2,237.2,0,0,1-2.769-54.1c16.335-25.326,28.736-42.286,29.982-43.9l.18-.223a7.683,7.683,0,1,0-12.294-9.219l.008,0c-1.3,1.671-7.579,10.423-15.771,22.364a259.2,259.2,0,0,0-31.426,4.686l-4.915-2.524A106.585,106.585,0,0,0,956.52,335.1c-30.688,1.412-59.241,16.323-84.866,44.316-38.9,42.48-65.981,49.4-77.546,52.35l-.93.279a8.4,8.4,0,0,0,.208,16.274,374.54,374.54,0,0,0,74.684,9.456h.032l7.534,0c41.464,0,74.8-8.169,99.076-24.276a99.192,99.192,0,0,0,43.135-66.315l.493-2.953q8.222-1.745,16.6-2.85c-11.642,17.807-22.47,35.52-32.221,52.716-35.18,61.909-55.653,114.09-60.975,155.332l-1.121-.467a57.217,57.217,0,0,1-14.371-8.657l-.059-.047a40.965,40.965,0,0,0-35.386-7.166c-20.459,4.838-39.177,22.445-51.365,48.315a105.41,105.41,0,0,0,9,104.846l.03.044a80.914,80.914,0,0,0,27.356,23.637,121.98,121.98,0,0,0,44.99,14.836,107.8,107.8,0,0,0,12.621.884l.538,0a72.327,72.327,0,0,0,25.057-4.464,104.694,104.694,0,0,0,67.338-80.676s2.185-20.222,1.327-29.4a103.239,103.239,0,0,0,37.128,39.624l.052.032a82.816,82.816,0,0,0,25.467,9.765,89.926,89.926,0,0,0,19.8,2.209h.113a93.149,93.149,0,0,0,84.9-55.332l.036-.087a117.954,117.954,0,0,0,8-34.035h0A90.842,90.842,0,0,0,1183.816,525.609Zm-114.62-7.633a55.016,55.016,0,0,0-25.354,10.192c-14.719,10.744-23.5,28.722-26.1,53.437a82.535,82.535,0,0,0,.089,17.682,54.217,54.217,0,0,0-5.872-7.961,41.384,41.384,0,0,0-33.176-14.553l-.075.006a56.33,56.33,0,0,1-19.808-2.063l-2.2-.635c4.48-39.345,24.883-91.8,59.381-152.451,4.385-7.708,8.732-15.024,12.371-21.054a264.414,264.414,0,0,0,3.18,31.349c5.827,34.879,18.928,64.246,38.2,85.967Z" transform="translate(520.531 325.357)" fill="none" stroke="#ffd0cc" stroke-miterlimit="10" stroke-width="1"/>
        <path id="Path_2429" data-name="Path 2429" d="M901.17,636.816a62.744,62.744,0,0,0-58.823-22.793,97.859,97.859,0,0,0-33.681,11.4l-2.5,1.394c-26.984-24.871-37.84-60.012-42.168-85.951a237.211,237.211,0,0,1-2.769-54.1c16.335-25.326,28.736-42.286,29.982-43.9l.18-.223a7.683,7.683,0,0,0-12.294-9.219l.008,0c-1.3,1.671-7.579,10.421-15.771,22.365a258.7,258.7,0,0,0-31.426,4.686L727,457.955a106.565,106.565,0,0,0-53.121-11.65c-30.688,1.412-59.242,16.325-84.869,44.318-38.9,42.48-65.979,49.4-77.544,52.35l-.93.279a8.4,8.4,0,0,0,.208,16.274,374.541,374.541,0,0,0,74.685,9.456l.032,0,7.532-.006c41.466,0,74.806-8.17,99.078-24.276A99.192,99.192,0,0,0,735.2,478.388l.493-2.953q8.222-1.744,16.6-2.85c-11.642,17.805-22.47,35.52-32.221,52.716-35.18,61.909-55.653,114.09-60.975,155.332l-1.121-.467a57.276,57.276,0,0,1-14.371-8.657l-.059-.049a40.963,40.963,0,0,0-35.386-7.162c-20.459,4.834-39.177,22.443-51.365,48.311a105.413,105.413,0,0,0,9,104.848l.03.045a80.91,80.91,0,0,0,27.356,23.637,122.019,122.019,0,0,0,44.99,14.836,108.265,108.265,0,0,0,12.621.884l.538,0a72.369,72.369,0,0,0,25.057-4.462,104.7,104.7,0,0,0,67.338-80.68s2.185-20.221,1.327-29.4a103.248,103.248,0,0,0,37.128,39.622l.053.032a82.818,82.818,0,0,0,25.467,9.765,89.931,89.931,0,0,0,19.8,2.209h.113a93.151,93.151,0,0,0,84.9-55.334l.036-.085a118.023,118.023,0,0,0,8-34.035h0A90.843,90.843,0,0,0,901.17,636.816Zm-114.62-7.634a55.034,55.034,0,0,0-25.354,10.19c-14.719,10.744-23.5,28.724-26.1,53.438a82.516,82.516,0,0,0,.089,17.68,54.2,54.2,0,0,0-5.872-7.959,41.377,41.377,0,0,0-33.176-14.553l-.077.006a56.321,56.321,0,0,1-19.806-2.063l-2.2-.635c4.48-39.345,24.883-91.8,59.381-152.451,4.385-7.708,8.73-15.024,12.371-21.054a264.537,264.537,0,0,0,3.18,31.351c5.827,34.875,18.928,64.244,38.2,85.965Z" transform="translate(231.482 439.084)" fill="none" stroke="#ffd0cc" stroke-miterlimit="10" stroke-width="1"/>
        <path id="Path_2430" data-name="Path 2430" d="M1468.4,415.639a62.744,62.744,0,0,0-58.823-22.793,97.822,97.822,0,0,0-33.681,11.4l-2.5,1.392c-26.984-24.871-37.84-60.012-42.168-85.951a237.214,237.214,0,0,1-2.769-54.1c16.335-25.326,28.736-42.286,29.982-43.9l.18-.222a7.683,7.683,0,1,0-12.294-9.219l.008,0c-1.3,1.671-7.579,10.423-15.771,22.364a259.19,259.19,0,0,0-31.426,4.686l-4.915-2.524A106.585,106.585,0,0,0,1241.1,225.13c-30.688,1.412-59.241,16.323-84.869,44.316-38.9,42.48-65.979,49.4-77.545,52.35l-.93.279a8.4,8.4,0,0,0,.208,16.274,374.549,374.549,0,0,0,74.685,9.456l.032,0,7.532-.006c41.466,0,74.806-8.169,99.078-24.276a99.187,99.187,0,0,0,43.135-66.315l.494-2.953q8.223-1.744,16.6-2.85c-11.644,17.807-22.472,35.52-32.223,52.716-35.18,61.909-55.653,114.09-60.975,155.332l-1.121-.467a57.21,57.21,0,0,1-14.371-8.657l-.058-.046a40.958,40.958,0,0,0-35.387-7.164c-20.459,4.836-39.177,22.443-51.365,48.313a105.41,105.41,0,0,0,9,104.846l.03.044a80.914,80.914,0,0,0,27.356,23.637A121.98,121.98,0,0,0,1205.4,634.8a107.808,107.808,0,0,0,12.621.884l.538,0a72.369,72.369,0,0,0,25.057-4.462,104.7,104.7,0,0,0,67.338-80.678s2.184-20.222,1.327-29.4a103.248,103.248,0,0,0,37.128,39.622l.053.032a82.816,82.816,0,0,0,25.467,9.765,89.933,89.933,0,0,0,19.8,2.209h.113a93.149,93.149,0,0,0,84.9-55.332l.037-.087a118.033,118.033,0,0,0,8-34.035h0A90.845,90.845,0,0,0,1468.4,415.639Zm-114.62-7.634a55.016,55.016,0,0,0-25.354,10.192c-14.719,10.744-23.5,28.722-26.1,53.437a82.543,82.543,0,0,0,.089,17.682,54.223,54.223,0,0,0-5.872-7.961,41.384,41.384,0,0,0-33.176-14.553l-.075.006a56.286,56.286,0,0,1-19.808-2.063l-2.2-.635c4.48-39.345,24.883-91.8,59.381-152.451,4.385-7.708,8.73-15.024,12.371-21.054a264.494,264.494,0,0,0,3.18,31.351c5.827,34.877,18.928,64.243,38.2,85.965Z" transform="translate(811.559 212.896)" fill="none" stroke="#ffd0cc" stroke-miterlimit="10" stroke-width="1"/>
        <path id="Path_2431" data-name="Path 2431" d="M620.393,748.238a62.744,62.744,0,0,0-58.823-22.793,97.826,97.826,0,0,0-33.681,11.4l-2.5,1.392c-26.984-24.871-37.84-60.012-42.168-85.951a237.215,237.215,0,0,1-2.769-54.1c16.335-25.326,28.736-42.286,29.982-43.9l.18-.223a7.683,7.683,0,1,0-12.294-9.219l.008,0c-1.3,1.671-7.579,10.423-15.771,22.365a259.187,259.187,0,0,0-31.426,4.686l-4.915-2.524A106.584,106.584,0,0,0,393.1,557.729c-30.688,1.412-59.242,16.323-84.866,44.316-38.9,42.48-65.981,49.4-77.547,52.35l-.93.279a8.4,8.4,0,0,0,.208,16.274,374.541,374.541,0,0,0,74.684,9.456h.032l7.532,0c41.466,0,74.806-8.169,99.078-24.276a99.187,99.187,0,0,0,43.135-66.315l.493-2.953q8.222-1.745,16.6-2.85c-11.642,17.807-22.47,35.52-32.221,52.716-35.18,61.909-55.653,114.09-60.975,155.332l-1.121-.467a57.22,57.22,0,0,1-14.371-8.657l-.059-.047a40.957,40.957,0,0,0-35.386-7.164c-20.459,4.836-39.177,22.443-51.365,48.313a105.41,105.41,0,0,0,9,104.846l.03.045a80.914,80.914,0,0,0,27.356,23.637A121.98,121.98,0,0,0,357.4,967.4a107.842,107.842,0,0,0,12.621.884l.538,0a72.325,72.325,0,0,0,25.057-4.464,104.694,104.694,0,0,0,67.338-80.676s2.185-20.223,1.327-29.4a103.248,103.248,0,0,0,37.128,39.622l.053.032a82.817,82.817,0,0,0,25.467,9.765,89.934,89.934,0,0,0,19.8,2.209h.113a93.149,93.149,0,0,0,84.9-55.332l.036-.087a117.963,117.963,0,0,0,8-34.035h0A90.84,90.84,0,0,0,620.393,748.238ZM505.773,740.6A55.014,55.014,0,0,0,480.419,750.8c-14.719,10.744-23.5,28.721-26.1,53.436a82.542,82.542,0,0,0,.089,17.682,54.234,54.234,0,0,0-5.872-7.961A41.384,41.384,0,0,0,415.364,799.4l-.077.006a56.28,56.28,0,0,1-19.806-2.063l-2.2-.635c4.48-39.345,24.883-91.8,59.381-152.451,4.385-7.708,8.732-15.024,12.371-21.054a264.513,264.513,0,0,0,3.18,31.351c5.827,34.877,18.928,64.244,38.2,85.965Z" transform="translate(-55.656 553.03)" fill="none" stroke="#ffd0cc" stroke-miterlimit="10" stroke-width="1"/>
        <path id="Path_2432" data-name="Path 2432" d="M960.773,316.936a62.743,62.743,0,0,0-58.823-22.793,97.819,97.819,0,0,0-33.681,11.4l-2.5,1.392c-26.984-24.871-37.84-60.012-42.168-85.951a237.315,237.315,0,0,1-2.769-54.1c16.335-25.326,28.736-42.286,29.982-43.9l.18-.222a7.683,7.683,0,0,0-12.294-9.219l.008,0c-1.3,1.671-7.579,10.423-15.771,22.364a259.192,259.192,0,0,0-31.426,4.686l-4.915-2.524a106.585,106.585,0,0,0-53.121-11.648c-30.688,1.412-59.242,16.323-84.866,44.316-38.9,42.48-65.981,49.4-77.547,52.35l-.93.279a8.4,8.4,0,0,0,.208,16.274,374.537,374.537,0,0,0,74.684,9.456h.032l7.534,0c41.464,0,74.8-8.169,99.076-24.276A99.187,99.187,0,0,0,794.8,158.508l.493-2.953q8.222-1.745,16.6-2.85c-11.642,17.807-22.47,35.52-32.221,52.716-35.18,61.909-55.653,114.09-60.975,155.332l-1.121-.467a57.216,57.216,0,0,1-14.371-8.657l-.059-.047a40.965,40.965,0,0,0-35.386-7.166c-20.459,4.838-39.177,22.445-51.365,48.315a105.41,105.41,0,0,0,9,104.846l.03.044a80.912,80.912,0,0,0,27.356,23.637,121.981,121.981,0,0,0,44.99,14.836,107.829,107.829,0,0,0,12.621.884l.538,0A72.324,72.324,0,0,0,736,532.517a104.694,104.694,0,0,0,67.338-80.676s2.184-20.223,1.327-29.4a103.248,103.248,0,0,0,37.128,39.622l.053.032a82.816,82.816,0,0,0,25.467,9.765,89.931,89.931,0,0,0,19.8,2.209h.113a93.149,93.149,0,0,0,84.9-55.332l.036-.087a117.959,117.959,0,0,0,8-34.035h0A90.84,90.84,0,0,0,960.773,316.936ZM846.153,309.3A55.016,55.016,0,0,0,820.8,319.495c-14.719,10.744-23.5,28.722-26.1,53.436a82.544,82.544,0,0,0,.089,17.682,54.219,54.219,0,0,0-5.872-7.961A41.384,41.384,0,0,0,755.744,368.1l-.075.006a56.333,56.333,0,0,1-19.808-2.063l-2.2-.635c4.48-39.345,24.883-91.8,59.381-152.451,4.385-7.708,8.732-15.024,12.37-21.054a264.442,264.442,0,0,0,3.18,31.349c5.827,34.879,18.928,64.246,38.2,85.967Z" transform="translate(292.435 111.957)" fill="none" stroke="#ffd0cc" stroke-miterlimit="10" stroke-width="1"/>
        <path id="Path_2433" data-name="Path 2433" d="M678.126,428.143A62.743,62.743,0,0,0,619.3,405.35a97.822,97.822,0,0,0-33.681,11.4l-2.5,1.392c-26.984-24.873-37.84-60.012-42.168-85.951a237.22,237.22,0,0,1-2.769-54.1c16.335-25.326,28.736-42.286,29.982-43.9l.18-.222a7.683,7.683,0,1,0-12.294-9.219l.008,0c-1.3,1.671-7.579,10.423-15.771,22.364a259.2,259.2,0,0,0-31.426,4.687l-4.915-2.524a106.585,106.585,0,0,0-53.121-11.648c-30.688,1.412-59.242,16.323-84.866,44.316-38.9,42.48-65.981,49.4-77.547,52.35l-.93.279a8.4,8.4,0,0,0,.208,16.274,374.542,374.542,0,0,0,74.684,9.456h.032l7.532,0c41.466,0,74.806-8.172,99.078-24.276a99.2,99.2,0,0,0,43.135-66.315l.493-2.953q8.222-1.745,16.6-2.85c-11.642,17.807-22.47,35.52-32.221,52.716-35.18,61.909-55.653,114.09-60.975,155.332l-1.121-.467a57.209,57.209,0,0,1-14.371-8.657l-.059-.046a40.964,40.964,0,0,0-35.386-7.166c-20.459,4.838-39.177,22.445-51.365,48.315a105.411,105.411,0,0,0,9,104.846l.03.044a80.914,80.914,0,0,0,27.356,23.637,121.982,121.982,0,0,0,44.99,14.836,107.814,107.814,0,0,0,12.621.884h.538a72.322,72.322,0,0,0,25.057-4.462,104.694,104.694,0,0,0,67.338-80.676s2.185-20.223,1.327-29.4a103.239,103.239,0,0,0,37.128,39.624l.052.032a82.815,82.815,0,0,0,25.467,9.765,90.055,90.055,0,0,0,19.8,2.209h.113a93.149,93.149,0,0,0,84.9-55.332l.036-.087a117.958,117.958,0,0,0,8-34.037l0,0A90.841,90.841,0,0,0,678.126,428.143Zm-114.62-7.634A55.017,55.017,0,0,0,538.152,430.7c-14.719,10.744-23.5,28.722-26.1,53.436a82.54,82.54,0,0,0,.089,17.682,54.224,54.224,0,0,0-5.872-7.961A41.384,41.384,0,0,0,473.1,479.306l-.077.006a56.324,56.324,0,0,1-19.806-2.063l-2.2-.635c4.48-39.345,24.883-91.8,59.381-152.451,4.385-7.708,8.732-15.024,12.37-21.054a264.453,264.453,0,0,0,3.18,31.349c5.827,34.879,18.928,64.246,38.2,85.967Z" transform="translate(3.385 225.683)" fill="none" stroke="#ffd0cc" stroke-miterlimit="10" stroke-width="1"/>
        <path id="Path_2434" data-name="Path 2434" d="M1245.354,206.966a62.744,62.744,0,0,0-58.823-22.793,97.819,97.819,0,0,0-33.681,11.4l-2.5,1.392c-26.984-24.873-37.84-60.012-42.168-85.951a237.22,237.22,0,0,1-2.769-54.1c16.335-25.326,28.736-42.286,29.982-43.9l.18-.222a7.683,7.683,0,0,0-12.294-9.219l.008,0c-1.3,1.671-7.579,10.423-15.771,22.364a259.191,259.191,0,0,0-31.426,4.686l-4.915-2.524a106.584,106.584,0,0,0-53.121-11.648c-30.688,1.412-59.241,16.323-84.866,44.316-38.9,42.48-65.981,49.4-77.547,52.35l-.93.279a8.4,8.4,0,0,0,.208,16.274,374.54,374.54,0,0,0,74.684,9.456h.032l7.534,0c41.464,0,74.8-8.172,99.076-24.276a99.2,99.2,0,0,0,43.135-66.315l.494-2.953q8.222-1.745,16.6-2.85c-11.642,17.807-22.47,35.52-32.221,52.716-35.18,61.909-55.653,114.09-60.975,155.332l-1.121-.467a57.213,57.213,0,0,1-14.371-8.657l-.059-.047a40.965,40.965,0,0,0-35.386-7.166c-20.459,4.838-39.177,22.445-51.365,48.315a105.41,105.41,0,0,0,9,104.846l.03.044a80.913,80.913,0,0,0,27.356,23.637,121.98,121.98,0,0,0,44.99,14.836,107.832,107.832,0,0,0,12.621.884h.538a72.321,72.321,0,0,0,25.057-4.462,104.694,104.694,0,0,0,67.338-80.676s2.184-20.222,1.327-29.4a103.236,103.236,0,0,0,37.128,39.624l.053.032a82.817,82.817,0,0,0,25.467,9.765,90.056,90.056,0,0,0,19.8,2.209h.113a93.149,93.149,0,0,0,84.9-55.332l.037-.087a117.959,117.959,0,0,0,8-34.037l0,0A90.842,90.842,0,0,0,1245.354,206.966Zm-114.62-7.633a55.014,55.014,0,0,0-25.354,10.192c-14.719,10.744-23.5,28.722-26.1,53.436a82.536,82.536,0,0,0,.089,17.682,54.226,54.226,0,0,0-5.872-7.961,41.383,41.383,0,0,0-33.175-14.553l-.075.006a56.333,56.333,0,0,1-19.808-2.063l-2.2-.635c4.48-39.345,24.883-91.8,59.381-152.451,4.385-7.708,8.732-15.024,12.37-21.054a264.442,264.442,0,0,0,3.18,31.349c5.827,34.879,18.928,64.246,38.2,85.967Z" transform="translate(583.463 -0.504)" fill="none" stroke="#ffd0cc" stroke-miterlimit="10" stroke-width="1"/>
      </g>
    </g>
  </g>
</svg>
