<svg xmlns="http://www.w3.org/2000/svg" xmlns:xlink="http://www.w3.org/1999/xlink" width="960" height="860" viewBox="0 0 960 860">
  <defs>
    <clipPath id="clip-path">
      <path id="Rectangle_2054" data-name="Rectangle 2054" d="M0,0H960a0,0,0,0,1,0,0V860a0,0,0,0,1,0,0H62A62,62,0,0,1,0,798V0A0,0,0,0,1,0,0Z" transform="translate(0 166)" fill="#ffd0cc"/>
    </clipPath>
  </defs>
  <g id="Mask_Group_62" data-name="Mask Group 62" transform="translate(0 -166)" opacity="0.15" clip-path="url(#clip-path)">
    <g id="Group_12665" data-name="Group 12665" transform="translate(15196.46 232.38)">
      <g id="Group_12065" data-name="Group 12065" transform="translate(-15206.918 -396.605)">
        <path id="Path_1999" data-name="Path 1999" d="M508.186,239.935a10.448,10.448,0,0,1-10.447,10.447v.045a10.447,10.447,0,0,1,10.447,10.447h.046a10.448,10.448,0,0,1,10.447-10.447v-.046a10.449,10.449,0,0,1-10.447-10.447Z" transform="translate(-278.679 -239.935)" fill="#b36b77"/>
        <path id="Path_2000" data-name="Path 2000" d="M445.931,557.037a10.448,10.448,0,0,1-10.447,10.447v.045a10.447,10.447,0,0,1,10.447,10.447h.046a10.448,10.448,0,0,1,10.447-10.448v-.046a10.449,10.449,0,0,1-10.447-10.447Z" transform="translate(-304.021 -110.854)" fill="#b36b77"/>
        <path id="Path_2001" data-name="Path 2001" d="M734.721,438.124a10.447,10.447,0,0,1-10.447,10.447v.045a10.447,10.447,0,0,1,10.447,10.447h.048a10.447,10.447,0,0,1,10.446-10.447v-.046a10.447,10.447,0,0,1-10.446-10.447Z" transform="translate(-186.465 -159.26)" fill="#b36b77"/>
        <path id="Path_2002" data-name="Path 2002" d="M1023.51,330.537a10.448,10.448,0,0,1-10.447,10.447v.045a10.447,10.447,0,0,1,10.447,10.447h.048A10.447,10.447,0,0,1,1034,341.031v-.046a10.448,10.448,0,0,1-10.446-10.447Z" transform="translate(-68.91 -203.054)" fill="#b36b77"/>
        <path id="Path_2003" data-name="Path 2003" d="M406.294,871.309a10.447,10.447,0,0,1-10.448,10.448v.045a10.447,10.447,0,0,1,10.448,10.447h.046A10.448,10.448,0,0,1,416.788,881.8v-.047a10.448,10.448,0,0,1-10.447-10.448Z" transform="translate(-320.155 17.074)" fill="#b36b77"/>
        <path id="Path_2004" data-name="Path 2004" d="M695.083,752.4a10.447,10.447,0,0,1-10.447,10.447v.045a10.447,10.447,0,0,1,10.447,10.447v0h.048a10.447,10.447,0,0,1,10.446-10.447v-.047A10.447,10.447,0,0,1,695.131,752.4Z" transform="translate(-202.6 -31.331)" fill="#b36b77"/>
        <path id="Path_2005" data-name="Path 2005" d="M983.872,644.808a10.448,10.448,0,0,1-10.447,10.447v.045a10.447,10.447,0,0,1,10.447,10.447h.048A10.447,10.447,0,0,1,994.366,655.3v-.047a10.448,10.448,0,0,1-10.446-10.447Z" transform="translate(-85.045 -75.126)" fill="#b36b77"/>
        <path id="Path_2006" data-name="Path 2006" d="M352.5,1174.254a10.447,10.447,0,0,1-10.447,10.447v.045a10.447,10.447,0,0,1,10.447,10.447h.048a10.447,10.447,0,0,1,10.446-10.447v-.047a10.447,10.447,0,0,1-10.446-10.447Z" transform="translate(-342.053 140.392)" fill="#b36b77"/>
        <path id="Path_2007" data-name="Path 2007" d="M641.289,1055.341a10.447,10.447,0,0,1-10.448,10.447v.045a10.447,10.447,0,0,1,10.448,10.448h.048a10.447,10.447,0,0,1,10.446-10.448v-.047a10.446,10.446,0,0,1-10.446-10.447Z" transform="translate(-224.498 91.987)" fill="#b36b77"/>
        <path id="Path_2008" data-name="Path 2008" d="M930.078,947.754A10.447,10.447,0,0,1,919.631,958.2v.045a10.447,10.447,0,0,1,10.448,10.447h.048a10.447,10.447,0,0,1,10.446-10.448V958.2a10.447,10.447,0,0,1-10.446-10.447Z" transform="translate(-106.942 48.192)" fill="#b36b77"/>
        <path id="Path_2009" data-name="Path 2009" d="M589.5,1371.234a10.447,10.447,0,0,1-10.447,10.448v.045a10.447,10.447,0,0,1,10.447,10.448h.048a10.447,10.447,0,0,1,10.446-10.447v-.046a10.447,10.447,0,0,1-10.446-10.448Z" transform="translate(-245.579 220.576)" fill="#b36b77"/>
        <path id="Path_2010" data-name="Path 2010" d="M874.515,1271.735a10.447,10.447,0,0,1-10.447,10.447v.045a10.447,10.447,0,0,1,10.447,10.447h.046a10.448,10.448,0,0,1,10.447-10.447v-.046a10.448,10.448,0,0,1-10.447-10.447Z" transform="translate(-129.56 180.073)" fill="#b36b77"/>
      </g>
      <g id="Group_12066" data-name="Group 12066" transform="translate(-15490.46 -733.5)">
        <path id="Path_2011" data-name="Path 2011" d="M1203.075,1292.823a43.647,43.647,0,0,0-40.92-15.856,68.048,68.048,0,0,0-23.43,7.933l-1.738.968c-18.771-17.3-26.323-41.748-29.334-59.792a165.1,165.1,0,0,1-1.926-37.637c11.364-17.618,19.99-29.416,20.857-30.538l.125-.155a5.345,5.345,0,1,0-8.552-6.413l.005,0c-.9,1.162-5.272,7.251-10.971,15.558a180.352,180.352,0,0,0-21.862,3.26l-3.419-1.756a74.149,74.149,0,0,0-36.954-8.1c-21.348.982-41.212,11.355-59.038,30.829-27.061,29.551-45.9,34.363-53.945,36.417l-.646.194a5.845,5.845,0,0,0,.143,11.321,260.569,260.569,0,0,0,51.954,6.578h.023l5.241,0c28.845,0,52.037-5.683,68.922-16.888a69,69,0,0,0,30.007-46.132l.343-2.054q5.72-1.214,11.551-1.983c-8.1,12.388-15.633,24.709-22.416,36.672-24.473,43.067-38.715,79.367-42.417,108.057l-.779-.325a39.793,39.793,0,0,1-10-6.022l-.041-.032a28.493,28.493,0,0,0-24.617-4.984c-14.232,3.364-27.253,15.613-35.732,33.609a73.329,73.329,0,0,0,6.261,72.936l.021.031a56.287,56.287,0,0,0,19.031,16.443,84.855,84.855,0,0,0,31.3,10.321,75.051,75.051,0,0,0,8.78.615l.374,0a50.306,50.306,0,0,0,17.431-3.106,72.828,72.828,0,0,0,46.844-56.122s1.52-14.068.923-20.452a71.82,71.82,0,0,0,25.828,27.565l.036.022a57.612,57.612,0,0,0,17.716,6.793,62.573,62.573,0,0,0,13.775,1.536h.079a64.8,64.8,0,0,0,59.06-38.492l.025-.06a82.059,82.059,0,0,0,5.568-23.677h0A63.194,63.194,0,0,0,1203.075,1292.823Zm-79.735-5.31a38.274,38.274,0,0,0-17.638,7.09c-10.239,7.474-16.347,19.98-18.154,37.173a57.337,57.337,0,0,0,.063,12.3,37.844,37.844,0,0,0-4.086-5.538,28.79,28.79,0,0,0-23.079-10.124l-.052,0a39.184,39.184,0,0,1-13.78-1.435l-1.531-.442c3.117-27.37,17.31-63.858,41.309-106.053,3.051-5.362,6.074-10.452,8.606-14.646a183.967,183.967,0,0,0,2.212,21.808c4.054,24.264,13.167,44.693,26.574,59.8Z" transform="translate(179.602 467.087)" fill="none" stroke="#b36b77" stroke-miterlimit="10" stroke-width="1"/>
        <path id="Path_2012" data-name="Path 2012" d="M920.43,1404.03a43.649,43.649,0,0,0-40.92-15.856,68.052,68.052,0,0,0-23.43,7.933l-1.738.968c-18.772-17.3-26.323-41.747-29.334-59.792a165.023,165.023,0,0,1-1.926-37.638c11.363-17.618,19.99-29.416,20.857-30.537l.125-.155a5.345,5.345,0,1,0-8.552-6.413l.006,0c-.9,1.162-5.272,7.251-10.971,15.558a180.358,180.358,0,0,0-21.862,3.26l-3.419-1.756a74.145,74.145,0,0,0-36.954-8.1c-21.348.982-41.211,11.355-59.039,30.829-27.059,29.551-45.9,34.363-53.944,36.418l-.647.194a5.845,5.845,0,0,0,.145,11.321,260.558,260.558,0,0,0,51.954,6.578h.022l5.241,0c28.845,0,52.037-5.683,68.922-16.888a69,69,0,0,0,30.007-46.132l.343-2.054q5.72-1.214,11.549-1.982c-8.1,12.388-15.631,24.709-22.414,36.672-24.473,43.068-38.715,79.367-42.417,108.057l-.78-.325a39.8,39.8,0,0,1-10-6.022l-.041-.032a28.491,28.491,0,0,0-24.617-4.984c-14.232,3.364-27.253,15.613-35.732,33.609a73.329,73.329,0,0,0,6.261,72.936l.021.031a56.288,56.288,0,0,0,19.03,16.443,84.856,84.856,0,0,0,31.3,10.321,74.971,74.971,0,0,0,8.78.615h.374A50.313,50.313,0,0,0,764.063,1554a72.831,72.831,0,0,0,46.844-56.122s1.52-14.068.923-20.452a71.816,71.816,0,0,0,25.828,27.564l.037.023a57.616,57.616,0,0,0,17.716,6.793,62.553,62.553,0,0,0,13.775,1.536h.079a64.8,64.8,0,0,0,59.06-38.492l.025-.061a82.1,82.1,0,0,0,5.568-23.677h0A63.194,63.194,0,0,0,920.43,1404.03Zm-79.736-5.31a38.269,38.269,0,0,0-17.638,7.09c-10.239,7.474-16.347,19.98-18.154,37.173a57.406,57.406,0,0,0,.062,12.3,37.71,37.71,0,0,0-4.085-5.538,28.788,28.788,0,0,0-23.079-10.124l-.052,0a39.18,39.18,0,0,1-13.779-1.435l-1.531-.442c3.117-27.37,17.31-63.858,41.309-106.053,3.051-5.362,6.073-10.452,8.606-14.646a183.955,183.955,0,0,0,2.212,21.808c4.054,24.263,13.167,44.692,26.574,59.8Z" transform="translate(64.547 512.355)" fill="none" stroke="#b36b77" stroke-miterlimit="10" stroke-width="1"/>
        <path id="Path_2013" data-name="Path 2013" d="M639.653,1515.452a43.65,43.65,0,0,0-40.922-15.856,68.036,68.036,0,0,0-23.429,7.933l-1.739.968c-18.772-17.3-26.323-41.748-29.333-59.792a165.015,165.015,0,0,1-1.928-37.637c11.365-17.618,19.99-29.416,20.857-30.537l.127-.155a5.345,5.345,0,0,0-8.552-6.413l.006,0c-.906,1.162-5.274,7.251-10.971,15.558a180.382,180.382,0,0,0-21.863,3.26l-3.419-1.756a74.145,74.145,0,0,0-36.954-8.1c-21.348.982-41.212,11.355-59.038,30.829-27.061,29.551-45.9,34.363-53.945,36.417l-.646.194a5.845,5.845,0,0,0,.145,11.321A260.516,260.516,0,0,0,420,1468.263h.024l5.24,0c28.846,0,52.037-5.683,68.922-16.888a69,69,0,0,0,30.007-46.132l.343-2.054q5.72-1.214,11.549-1.983c-8.1,12.388-15.631,24.709-22.413,36.672-24.474,43.068-38.717,79.367-42.417,108.057l-.781-.325a39.771,39.771,0,0,1-10-6.022l-.042-.032a28.491,28.491,0,0,0-24.617-4.984c-14.231,3.364-27.252,15.613-35.731,33.609a73.328,73.328,0,0,0,6.26,72.936l.021.031a56.289,56.289,0,0,0,19.031,16.443,84.865,84.865,0,0,0,31.3,10.321,75.019,75.019,0,0,0,8.78.615l.374,0a50.313,50.313,0,0,0,17.431-3.105,72.831,72.831,0,0,0,46.844-56.122s1.52-14.068.923-20.452a71.819,71.819,0,0,0,25.829,27.564l.037.023a57.607,57.607,0,0,0,17.715,6.793,62.572,62.572,0,0,0,13.777,1.537h.077a64.8,64.8,0,0,0,59.06-38.491l.025-.061a82.058,82.058,0,0,0,5.568-23.677h0A63.2,63.2,0,0,0,639.653,1515.452Zm-79.737-5.31a38.277,38.277,0,0,0-17.638,7.09c-10.239,7.474-16.347,19.98-18.154,37.173a57.415,57.415,0,0,0,.062,12.3,37.705,37.705,0,0,0-4.083-5.538,28.792,28.792,0,0,0-23.08-10.124l-.052,0a39.186,39.186,0,0,1-13.779-1.435l-1.531-.442c3.117-27.37,17.31-63.858,41.309-106.053,3.05-5.362,6.074-10.452,8.606-14.646a183.971,183.971,0,0,0,2.212,21.808c4.054,24.264,13.167,44.692,26.575,59.8Z" transform="translate(-49.747 557.711)" fill="none" stroke="#b36b77" stroke-miterlimit="10" stroke-width="1"/>
        <path id="Path_2014" data-name="Path 2014" d="M980.033,1084.15a43.648,43.648,0,0,0-40.92-15.856,68.051,68.051,0,0,0-23.43,7.933l-1.738.968c-18.772-17.3-26.323-41.748-29.334-59.792a165.012,165.012,0,0,1-1.926-37.637c11.363-17.618,19.99-29.416,20.857-30.538l.125-.155a5.345,5.345,0,0,0-8.552-6.413l.006,0c-.9,1.162-5.272,7.251-10.971,15.558a180.333,180.333,0,0,0-21.862,3.26l-3.419-1.756a74.148,74.148,0,0,0-36.954-8.1c-21.348.982-41.211,11.355-59.039,30.829-27.059,29.551-45.9,34.363-53.944,36.418l-.647.194a5.845,5.845,0,0,0,.145,11.321,260.55,260.55,0,0,0,51.954,6.578h.023l5.24,0c28.846,0,52.039-5.683,68.924-16.887a69,69,0,0,0,30.007-46.132l.343-2.054q5.72-1.214,11.549-1.983c-8.1,12.388-15.631,24.709-22.415,36.672-24.473,43.067-38.715,79.367-42.417,108.057l-.779-.325a39.8,39.8,0,0,1-10-6.022l-.041-.032a28.492,28.492,0,0,0-24.617-4.984c-14.232,3.364-27.253,15.613-35.732,33.609a73.329,73.329,0,0,0,6.261,72.937l.021.031a56.285,56.285,0,0,0,19.03,16.443,84.85,84.85,0,0,0,31.3,10.321,75.024,75.024,0,0,0,8.78.615h.374a50.313,50.313,0,0,0,17.431-3.105A72.831,72.831,0,0,0,870.51,1178s1.52-14.068.923-20.45a71.823,71.823,0,0,0,25.828,27.563l.037.022a57.607,57.607,0,0,0,17.716,6.793,62.56,62.56,0,0,0,13.775,1.536h.079a64.8,64.8,0,0,0,59.06-38.491l.025-.061a82.107,82.107,0,0,0,5.568-23.677h0A63.193,63.193,0,0,0,980.033,1084.15Zm-79.736-5.31a38.268,38.268,0,0,0-17.637,7.09c-10.239,7.475-16.347,19.98-18.154,37.173a57.424,57.424,0,0,0,.062,12.3,37.723,37.723,0,0,0-4.085-5.538,28.788,28.788,0,0,0-23.079-10.124l-.053,0a39.179,39.179,0,0,1-13.778-1.435l-1.531-.442c3.117-27.37,17.31-63.858,41.308-106.053,3.051-5.362,6.073-10.452,8.606-14.646a183.981,183.981,0,0,0,2.212,21.808c4.054,24.263,13.167,44.692,26.574,59.8Z" transform="translate(88.809 382.144)" fill="none" stroke="#b36b77" stroke-miterlimit="10" stroke-width="1"/>
        <path id="Path_2015" data-name="Path 2015" d="M697.386,1195.357a43.647,43.647,0,0,0-40.92-15.857,68.052,68.052,0,0,0-23.43,7.933l-1.738.968c-18.772-17.3-26.323-41.748-29.334-59.792a165.019,165.019,0,0,1-1.926-37.638c11.363-17.618,19.99-29.416,20.857-30.537l.125-.155a5.345,5.345,0,1,0-8.552-6.413l.006,0c-.9,1.162-5.272,7.251-10.971,15.558a180.311,180.311,0,0,0-21.862,3.26l-3.419-1.756a74.15,74.15,0,0,0-36.954-8.1c-21.348.982-41.211,11.355-59.038,30.829-27.061,29.551-45.9,34.363-53.945,36.418l-.647.194a5.845,5.845,0,0,0,.145,11.321,260.569,260.569,0,0,0,51.954,6.578h.023l5.24,0c28.846,0,52.039-5.685,68.924-16.888a69,69,0,0,0,30.007-46.132l.343-2.054q5.72-1.213,11.549-1.983c-8.1,12.388-15.631,24.709-22.414,36.672-24.473,43.068-38.715,79.367-42.417,108.057l-.779-.325a39.8,39.8,0,0,1-10-6.022l-.041-.032a28.5,28.5,0,0,0-24.617-4.985c-14.232,3.366-27.253,15.614-35.732,33.611a73.328,73.328,0,0,0,6.261,72.936l.021.031a56.286,56.286,0,0,0,19.031,16.443,84.853,84.853,0,0,0,31.3,10.321,75.053,75.053,0,0,0,8.78.615h.374a50.31,50.31,0,0,0,17.431-3.105,72.831,72.831,0,0,0,46.844-56.122s1.52-14.068.923-20.452a71.821,71.821,0,0,0,25.828,27.564l.037.022a57.62,57.62,0,0,0,17.716,6.794,62.559,62.559,0,0,0,13.775,1.536h.079a64.8,64.8,0,0,0,59.06-38.492l.025-.06a82.063,82.063,0,0,0,5.568-23.677h0A63.193,63.193,0,0,0,697.386,1195.357Zm-79.735-5.31a38.268,38.268,0,0,0-17.638,7.09c-10.239,7.474-16.347,19.98-18.154,37.173a57.419,57.419,0,0,0,.062,12.3,37.71,37.71,0,0,0-4.085-5.539,28.789,28.789,0,0,0-23.078-10.124l-.052,0a39.186,39.186,0,0,1-13.779-1.435l-1.531-.442c3.117-27.37,17.31-63.858,41.309-106.053,3.05-5.363,6.074-10.452,8.606-14.646a183.96,183.96,0,0,0,2.212,21.808c4.054,24.263,13.167,44.692,26.574,59.8Z" transform="translate(-26.246 427.412)" fill="none" stroke="#b36b77" stroke-miterlimit="10" stroke-width="1"/>
        <path id="Path_2016" data-name="Path 2016" d="M1264.613,974.18a43.648,43.648,0,0,0-40.92-15.856,68.05,68.05,0,0,0-23.43,7.933l-1.738.968c-18.772-17.3-26.323-41.747-29.334-59.792a165.013,165.013,0,0,1-1.926-37.638c11.363-17.618,19.99-29.416,20.857-30.537l.125-.155a5.345,5.345,0,0,0-8.552-6.413l.006,0c-.9,1.162-5.272,7.251-10.971,15.558a180.3,180.3,0,0,0-21.862,3.26l-3.419-1.756a74.144,74.144,0,0,0-36.954-8.1c-21.348.982-41.211,11.355-59.039,30.829-27.059,29.551-45.9,34.363-53.944,36.418l-.647.194a5.845,5.845,0,0,0,.145,11.321,260.548,260.548,0,0,0,51.954,6.578h.023l5.24,0c28.846,0,52.039-5.685,68.924-16.888a69,69,0,0,0,30.007-46.132l.343-2.054q5.719-1.213,11.549-1.983c-8.1,12.388-15.631,24.709-22.415,36.672-24.473,43.067-38.715,79.367-42.417,108.057l-.779-.325a39.8,39.8,0,0,1-10-6.022l-.041-.033a28.5,28.5,0,0,0-24.616-4.985c-14.232,3.366-27.254,15.614-35.732,33.611a73.329,73.329,0,0,0,6.261,72.937l.021.031a56.283,56.283,0,0,0,19.03,16.443,84.859,84.859,0,0,0,31.3,10.321,74.918,74.918,0,0,0,8.78.615h.374a50.316,50.316,0,0,0,17.431-3.1,72.831,72.831,0,0,0,46.844-56.122s1.52-14.068.923-20.452a71.821,71.821,0,0,0,25.828,27.564l.037.022a57.614,57.614,0,0,0,17.716,6.793,62.551,62.551,0,0,0,13.775,1.537h.079a64.8,64.8,0,0,0,59.06-38.492l.025-.061a82.107,82.107,0,0,0,5.568-23.677h0A63.193,63.193,0,0,0,1264.613,974.18Zm-79.736-5.31a38.269,38.269,0,0,0-17.637,7.09c-10.239,7.474-16.347,19.98-18.154,37.173a57.424,57.424,0,0,0,.062,12.3,37.713,37.713,0,0,0-4.085-5.538,28.788,28.788,0,0,0-23.078-10.124l-.052,0a39.186,39.186,0,0,1-13.779-1.435l-1.531-.442c3.117-27.37,17.31-63.858,41.308-106.053,3.05-5.362,6.073-10.452,8.605-14.646a183.951,183.951,0,0,0,2.212,21.808c4.054,24.263,13.167,44.693,26.574,59.8Z" transform="translate(204.652 337.379)" fill="none" stroke="#b36b77" stroke-miterlimit="10" stroke-width="1"/>
        <path id="Path_2017" data-name="Path 2017" d="M416.609,1306.779a43.647,43.647,0,0,0-40.92-15.857,68.051,68.051,0,0,0-23.43,7.933l-1.738.968c-18.772-17.3-26.323-41.748-29.335-59.792a165.1,165.1,0,0,1-1.926-37.637c11.363-17.618,19.99-29.416,20.857-30.537l.125-.155a5.345,5.345,0,1,0-8.552-6.413l.006,0c-.9,1.162-5.272,7.25-10.971,15.558a180.3,180.3,0,0,0-21.862,3.26l-3.419-1.756a74.147,74.147,0,0,0-36.954-8.1c-21.348.982-41.211,11.355-59.038,30.829-27.061,29.551-45.9,34.363-53.945,36.418l-.647.194a5.845,5.845,0,0,0,.145,11.321,260.551,260.551,0,0,0,51.954,6.578h.023l5.241,0c28.845,0,52.037-5.683,68.922-16.887a69,69,0,0,0,30.007-46.132l.343-2.054q5.72-1.214,11.549-1.983c-8.1,12.388-15.631,24.709-22.414,36.672-24.473,43.067-38.715,79.367-42.417,108.057l-.78-.325a39.8,39.8,0,0,1-10-6.022l-.041-.032a28.491,28.491,0,0,0-24.617-4.984c-14.232,3.364-27.253,15.613-35.732,33.609a73.329,73.329,0,0,0,6.261,72.937l.021.031a56.287,56.287,0,0,0,19.031,16.443,84.854,84.854,0,0,0,31.3,10.321,74.945,74.945,0,0,0,8.78.615h.374a50.307,50.307,0,0,0,17.431-3.105,72.831,72.831,0,0,0,46.844-56.122s1.52-14.068.923-20.452a71.821,71.821,0,0,0,25.828,27.564l.037.022a57.619,57.619,0,0,0,17.716,6.793,62.567,62.567,0,0,0,13.775,1.536h.079A64.8,64.8,0,0,0,424.5,1377.6l.025-.061a82.058,82.058,0,0,0,5.568-23.677h0A63.193,63.193,0,0,0,416.609,1306.779Zm-79.735-5.31a38.268,38.268,0,0,0-17.638,7.09c-10.239,7.474-16.347,19.98-18.154,37.173a57.419,57.419,0,0,0,.062,12.3,37.726,37.726,0,0,0-4.085-5.538,28.789,28.789,0,0,0-23.079-10.124l-.052,0a39.2,39.2,0,0,1-13.779-1.435l-1.531-.442c3.117-27.37,17.31-63.858,41.309-106.053,3.05-5.362,6.074-10.452,8.606-14.646a183.947,183.947,0,0,0,2.212,21.808c4.054,24.263,13.167,44.692,26.574,59.8Z" transform="translate(-140.54 472.768)" fill="none" stroke="#b36b77" stroke-miterlimit="10" stroke-width="1"/>
        <path id="Path_2018" data-name="Path 2018" d="M1025.739,779.052a43.647,43.647,0,0,0-40.92-15.856,68.05,68.05,0,0,0-23.43,7.933l-1.738.968c-18.772-17.3-26.323-41.748-29.335-59.792a165.017,165.017,0,0,1-1.926-37.638c11.363-17.618,19.99-29.416,20.857-30.537l.125-.155a5.345,5.345,0,0,0-8.552-6.413l.005,0c-.9,1.162-5.272,7.251-10.971,15.558a180.324,180.324,0,0,0-21.862,3.26l-3.419-1.756a74.146,74.146,0,0,0-36.954-8.1c-21.348.982-41.211,11.355-59.039,30.829-27.059,29.551-45.9,34.363-53.944,36.418l-.647.194a5.845,5.845,0,0,0,.145,11.321,260.55,260.55,0,0,0,51.954,6.578h.023l5.24,0c28.846,0,52.039-5.684,68.924-16.888a69.006,69.006,0,0,0,30.007-46.132l.343-2.054q5.72-1.214,11.549-1.982c-8.1,12.388-15.631,24.709-22.415,36.672-24.473,43.067-38.715,79.367-42.417,108.057l-.78-.325a39.8,39.8,0,0,1-10-6.022l-.041-.032a28.5,28.5,0,0,0-24.617-4.985c-14.232,3.366-27.253,15.614-35.732,33.611a73.329,73.329,0,0,0,6.261,72.937l.021.031a56.288,56.288,0,0,0,19.03,16.443,84.858,84.858,0,0,0,31.3,10.321,75.008,75.008,0,0,0,8.78.615h.374a50.311,50.311,0,0,0,17.431-3.1A72.831,72.831,0,0,0,916.216,872.9s1.52-14.068.923-20.452a71.819,71.819,0,0,0,25.828,27.564l.036.022a57.615,57.615,0,0,0,17.716,6.793,62.653,62.653,0,0,0,13.775,1.536h.079a64.8,64.8,0,0,0,59.06-38.492l.026-.061a82.1,82.1,0,0,0,5.568-23.678h0A63.192,63.192,0,0,0,1025.739,779.052ZM946,773.742a38.272,38.272,0,0,0-17.638,7.09c-10.239,7.474-16.347,19.98-18.154,37.173a57.416,57.416,0,0,0,.062,12.3,37.709,37.709,0,0,0-4.085-5.538,28.789,28.789,0,0,0-23.079-10.124l-.053,0a39.181,39.181,0,0,1-13.778-1.435l-1.531-.442c3.117-27.37,17.31-63.858,41.309-106.053,3.051-5.362,6.073-10.452,8.606-14.646a183.962,183.962,0,0,0,2.212,21.808c4.054,24.263,13.167,44.693,26.574,59.8Z" transform="translate(107.414 257.95)" fill="none" stroke="#b36b77" stroke-miterlimit="10" stroke-width="1"/>
        <path id="Path_2019" data-name="Path 2019" d="M743.093,890.259a43.648,43.648,0,0,0-40.92-15.856,68.046,68.046,0,0,0-23.43,7.933L677,883.3c-18.772-17.3-26.323-41.748-29.334-59.792a165.016,165.016,0,0,1-1.926-37.638c11.363-17.618,19.99-29.416,20.857-30.538l.125-.155a5.345,5.345,0,1,0-8.552-6.413l.006,0c-.9,1.162-5.272,7.251-10.971,15.558a180.287,180.287,0,0,0-21.862,3.26l-3.419-1.756a74.144,74.144,0,0,0-36.954-8.1c-21.348.982-41.211,11.355-59.037,30.829-27.061,29.551-45.9,34.363-53.945,36.418l-.647.194a5.845,5.845,0,0,0,.145,11.321,260.56,260.56,0,0,0,51.954,6.578h.022l5.24,0c28.846,0,52.039-5.683,68.924-16.888a69,69,0,0,0,30.007-46.132l.343-2.054q5.72-1.214,11.549-1.983c-8.1,12.388-15.631,24.709-22.414,36.672C592.641,855.751,578.4,892.05,574.7,920.74l-.779-.325a39.8,39.8,0,0,1-10-6.022l-.041-.032a28.493,28.493,0,0,0-24.617-4.984c-14.232,3.364-27.253,15.613-35.732,33.609a73.329,73.329,0,0,0,6.261,72.937l.021.031a56.286,56.286,0,0,0,19.031,16.443,84.854,84.854,0,0,0,31.3,10.321,74.994,74.994,0,0,0,8.78.615h.374a50.31,50.31,0,0,0,17.431-3.105,72.831,72.831,0,0,0,46.844-56.122s1.52-14.068.923-20.45a71.825,71.825,0,0,0,25.828,27.563l.037.023a57.615,57.615,0,0,0,17.716,6.793,62.563,62.563,0,0,0,13.775,1.537h.079a64.8,64.8,0,0,0,59.06-38.492l.025-.061a82.105,82.105,0,0,0,5.568-23.677h0A63.193,63.193,0,0,0,743.093,890.259Zm-79.736-5.31a38.27,38.27,0,0,0-17.637,7.09c-10.239,7.474-16.347,19.98-18.154,37.173a57.419,57.419,0,0,0,.062,12.3,37.73,37.73,0,0,0-4.085-5.538,28.789,28.789,0,0,0-23.079-10.124l-.054,0a39.182,39.182,0,0,1-13.778-1.435l-1.531-.442c3.116-27.37,17.31-63.858,41.309-106.053,3.051-5.362,6.073-10.452,8.605-14.646a183.951,183.951,0,0,0,2.212,21.808c4.054,24.263,13.167,44.693,26.574,59.8Z" transform="translate(-7.64 303.218)" fill="none" stroke="#b36b77" stroke-miterlimit="10" stroke-width="1"/>
        <path id="Path_2020" data-name="Path 2020" d="M1310.32,669.083a43.648,43.648,0,0,0-40.92-15.856,68.051,68.051,0,0,0-23.43,7.933l-1.738.968c-18.772-17.3-26.323-41.748-29.334-59.792a165.022,165.022,0,0,1-1.926-37.637c11.364-17.618,19.99-29.416,20.857-30.537l.125-.155a5.345,5.345,0,0,0-8.552-6.413l.006,0c-.9,1.162-5.272,7.251-10.971,15.558a180.364,180.364,0,0,0-21.862,3.26l-3.419-1.756a74.145,74.145,0,0,0-36.954-8.1c-21.348.982-41.212,11.355-59.038,30.829-27.061,29.551-45.9,34.363-53.945,36.418l-.647.194a5.845,5.845,0,0,0,.146,11.321,260.513,260.513,0,0,0,51.953,6.578h.023l5.241,0c28.845,0,52.038-5.683,68.922-16.887a69,69,0,0,0,30.007-46.132l.344-2.054q5.72-1.214,11.551-1.983c-8.1,12.388-15.632,24.71-22.416,36.672-24.473,43.067-38.715,79.367-42.417,108.057l-.78-.325a39.8,39.8,0,0,1-10-6.022l-.041-.032a28.492,28.492,0,0,0-24.617-4.984c-14.233,3.364-27.253,15.613-35.733,33.609a73.329,73.329,0,0,0,6.262,72.936l.021.031a56.289,56.289,0,0,0,19.031,16.443,84.855,84.855,0,0,0,31.3,10.321,75,75,0,0,0,8.78.615l.374,0a50.313,50.313,0,0,0,17.431-3.105A72.828,72.828,0,0,0,1200.8,762.93s1.52-14.068.923-20.45a71.825,71.825,0,0,0,25.828,27.563l.036.022a57.613,57.613,0,0,0,17.717,6.793,62.564,62.564,0,0,0,13.775,1.536h.079a64.8,64.8,0,0,0,59.06-38.492l.025-.061a82.065,82.065,0,0,0,5.568-23.677h0A63.194,63.194,0,0,0,1310.32,669.083Zm-79.735-5.31a38.27,38.27,0,0,0-17.637,7.09c-10.239,7.474-16.347,19.98-18.154,37.173a57.328,57.328,0,0,0,.063,12.3,37.811,37.811,0,0,0-4.086-5.538,28.788,28.788,0,0,0-23.079-10.124l-.052,0a39.188,39.188,0,0,1-13.779-1.435l-1.531-.442c3.117-27.37,17.31-63.858,41.309-106.053,3.051-5.362,6.074-10.452,8.605-14.646a184.056,184.056,0,0,0,2.212,21.808c4.054,24.263,13.167,44.692,26.574,59.8Z" transform="translate(223.257 213.185)" fill="none" stroke="#b36b77" stroke-miterlimit="10" stroke-width="1"/>
        <path id="Path_2021" data-name="Path 2021" d="M462.316,1001.681a43.647,43.647,0,0,0-40.92-15.856,68.051,68.051,0,0,0-23.43,7.933l-1.738.968c-18.772-17.3-26.323-41.747-29.334-59.792a165.016,165.016,0,0,1-1.926-37.638c11.363-17.618,19.99-29.416,20.857-30.537l.125-.155a5.345,5.345,0,0,0-8.552-6.413l.006,0c-.9,1.162-5.272,7.251-10.971,15.558a180.322,180.322,0,0,0-21.861,3.26l-3.419-1.756a74.147,74.147,0,0,0-36.954-8.1c-21.348.982-41.211,11.355-59.039,30.829-27.059,29.551-45.9,34.363-53.944,36.418l-.647.194a5.845,5.845,0,0,0,.145,11.321,260.551,260.551,0,0,0,51.954,6.578h.023l5.24,0c28.846,0,52.039-5.685,68.924-16.888a69,69,0,0,0,30.007-46.132l.343-2.054q5.72-1.214,11.549-1.983c-8.1,12.388-15.631,24.709-22.415,36.672-24.473,43.067-38.715,79.367-42.417,108.057l-.779-.325a39.793,39.793,0,0,1-10-6.022l-.041-.032a28.492,28.492,0,0,0-24.617-4.984c-14.232,3.364-27.253,15.613-35.732,33.609a73.329,73.329,0,0,0,6.261,72.936l.021.031a56.287,56.287,0,0,0,19.031,16.443,84.854,84.854,0,0,0,31.3,10.321,75.023,75.023,0,0,0,8.78.615h.374a50.315,50.315,0,0,0,17.431-3.105,72.831,72.831,0,0,0,46.844-56.122s1.52-14.068.923-20.452a71.816,71.816,0,0,0,25.828,27.564l.037.023a57.6,57.6,0,0,0,17.716,6.793,62.538,62.538,0,0,0,13.775,1.537h.079a64.8,64.8,0,0,0,59.06-38.492l.025-.06a82.06,82.06,0,0,0,5.568-23.677h0A63.194,63.194,0,0,0,462.316,1001.681Zm-79.735-5.31a38.27,38.27,0,0,0-17.638,7.09c-10.239,7.474-16.347,19.98-18.154,37.173a57.417,57.417,0,0,0,.062,12.3,37.709,37.709,0,0,0-4.085-5.538,28.789,28.789,0,0,0-23.079-10.124l-.053,0a39.182,39.182,0,0,1-13.778-1.435l-1.531-.442c3.117-27.37,17.31-63.858,41.309-106.053,3.051-5.362,6.074-10.452,8.606-14.646a183.957,183.957,0,0,0,2.212,21.808c4.054,24.263,13.167,44.693,26.574,59.8Z" transform="translate(-121.934 348.573)" fill="none" stroke="#b36b77" stroke-miterlimit="10" stroke-width="1"/>
        <path id="Path_2022" data-name="Path 2022" d="M1063.036,462.773a43.648,43.648,0,0,0-40.92-15.856,68.049,68.049,0,0,0-23.43,7.933l-1.738.968c-18.771-17.3-26.323-41.748-29.334-59.792a165.005,165.005,0,0,1-1.926-37.638c11.364-17.618,19.99-29.416,20.857-30.537l.125-.155a5.345,5.345,0,1,0-8.552-6.413l.006,0c-.9,1.162-5.272,7.251-10.971,15.558a180.323,180.323,0,0,0-21.862,3.26l-3.419-1.756a74.146,74.146,0,0,0-36.954-8.1c-21.348.982-41.211,11.355-59.038,30.829-27.061,29.551-45.9,34.363-53.945,36.418l-.647.194a5.845,5.845,0,0,0,.145,11.321,260.549,260.549,0,0,0,51.954,6.578h.022l5.241,0c28.845,0,52.037-5.683,68.922-16.888a69,69,0,0,0,30.007-46.132l.343-2.054q5.72-1.214,11.549-1.983c-8.1,12.388-15.631,24.709-22.415,36.672-24.473,43.067-38.715,79.367-42.417,108.057l-.78-.325a39.8,39.8,0,0,1-10-6.022l-.041-.032a28.5,28.5,0,0,0-24.617-4.985c-14.232,3.366-27.253,15.614-35.732,33.611a73.329,73.329,0,0,0,6.261,72.936l.021.031a56.29,56.29,0,0,0,19.031,16.443,84.854,84.854,0,0,0,31.3,10.321,74.986,74.986,0,0,0,8.78.615l.374,0a50.313,50.313,0,0,0,17.431-3.105,72.831,72.831,0,0,0,46.844-56.122s1.52-14.068.923-20.452a71.818,71.818,0,0,0,25.828,27.564l.036.022a57.608,57.608,0,0,0,17.716,6.793,62.551,62.551,0,0,0,13.775,1.537h.079a64.8,64.8,0,0,0,59.06-38.492l.025-.06a82.055,82.055,0,0,0,5.568-23.677h0A63.194,63.194,0,0,0,1063.036,462.773Zm-79.736-5.31a38.272,38.272,0,0,0-17.638,7.09c-10.239,7.474-16.347,19.98-18.154,37.173a57.412,57.412,0,0,0,.062,12.3,37.726,37.726,0,0,0-4.085-5.538,28.789,28.789,0,0,0-23.079-10.124l-.052,0a39.19,39.19,0,0,1-13.779-1.435l-1.531-.442c3.116-27.37,17.31-63.858,41.309-106.053,3.05-5.362,6.074-10.452,8.606-14.646a183.948,183.948,0,0,0,2.212,21.808c4.054,24.263,13.167,44.693,26.574,59.8Z" transform="translate(122.597 129.204)" fill="none" stroke="#b36b77" stroke-miterlimit="10" stroke-width="1"/>
        <path id="Path_2023" data-name="Path 2023" d="M780.39,573.98a43.648,43.648,0,0,0-40.92-15.856,68.078,68.078,0,0,0-23.43,7.932l-1.738.969c-18.772-17.3-26.323-41.747-29.335-59.792a165.011,165.011,0,0,1-1.926-37.637c11.363-17.618,19.99-29.416,20.857-30.537l.125-.155a5.345,5.345,0,1,0-8.552-6.413l.006,0c-.9,1.162-5.272,7.249-10.971,15.558a179.973,179.973,0,0,0-21.862,3.26l-3.419-1.756a74.132,74.132,0,0,0-36.954-8.1c-21.348.982-41.211,11.356-59.039,30.83-27.059,29.551-45.9,34.363-53.944,36.418l-.647.194a5.845,5.845,0,0,0,.145,11.321,260.546,260.546,0,0,0,51.954,6.578h.022l5.24,0c28.846,0,52.039-5.683,68.924-16.888a69,69,0,0,0,30.007-46.132l.343-2.054q5.72-1.214,11.549-1.983c-8.1,12.386-15.631,24.709-22.414,36.672-24.473,43.067-38.715,79.367-42.417,108.057l-.779-.325a39.841,39.841,0,0,1-10-6.022l-.041-.034A28.5,28.5,0,0,0,576.56,593.1c-14.232,3.363-27.253,15.613-35.732,33.608a73.331,73.331,0,0,0,6.261,72.938l.021.031a56.285,56.285,0,0,0,19.03,16.443,84.883,84.883,0,0,0,31.3,10.321,75.315,75.315,0,0,0,8.78.615h.374a50.346,50.346,0,0,0,17.431-3.1,72.835,72.835,0,0,0,46.844-56.125s1.52-14.066.923-20.449a71.824,71.824,0,0,0,25.828,27.563l.037.023a57.613,57.613,0,0,0,17.716,6.793,62.556,62.556,0,0,0,13.775,1.536h.079a64.8,64.8,0,0,0,59.06-38.493l.025-.059a82.1,82.1,0,0,0,5.568-23.677h0A63.2,63.2,0,0,0,780.39,573.98Zm-79.735-5.31a38.285,38.285,0,0,0-17.638,7.089c-10.239,7.474-16.347,19.982-18.154,37.175a57.4,57.4,0,0,0,.062,12.3,37.7,37.7,0,0,0-4.085-5.537,28.785,28.785,0,0,0-23.079-10.124l-.053,0a39.179,39.179,0,0,1-13.778-1.435L622.4,607.7c3.117-27.37,17.31-63.858,41.308-106.053,3.051-5.362,6.073-10.452,8.606-14.646a184.022,184.022,0,0,0,2.212,21.809c4.054,24.261,13.167,44.691,26.574,59.8Z" transform="translate(7.542 174.472)" fill="none" stroke="#b36b77" stroke-miterlimit="10" stroke-width="1"/>
        <path id="Path_2024" data-name="Path 2024" d="M1347.616,352.8a43.648,43.648,0,0,0-40.92-15.856,68.05,68.05,0,0,0-23.43,7.933l-1.738.968c-18.772-17.3-26.323-41.748-29.335-59.792a165.022,165.022,0,0,1-1.927-37.638c11.364-17.618,19.99-29.416,20.857-30.537l.125-.155a5.345,5.345,0,0,0-8.552-6.413l.006,0c-.9,1.162-5.272,7.251-10.971,15.558a180.314,180.314,0,0,0-21.861,3.26l-3.419-1.756a74.147,74.147,0,0,0-36.954-8.1c-21.348.982-41.211,11.355-59.039,30.829-27.059,29.551-45.9,34.363-53.944,36.418l-.647.194a5.845,5.845,0,0,0,.145,11.321,260.557,260.557,0,0,0,51.955,6.578h.022l5.24,0c28.846,0,52.039-5.683,68.923-16.888a69,69,0,0,0,30.007-46.132l.344-2.054q5.72-1.214,11.551-1.983c-8.1,12.388-15.632,24.709-22.416,36.672-24.473,43.067-38.715,79.367-42.417,108.057l-.78-.325a39.8,39.8,0,0,1-10-6.022l-.041-.032a28.492,28.492,0,0,0-24.617-4.984c-14.233,3.364-27.253,15.613-35.732,33.609a73.328,73.328,0,0,0,6.261,72.936l.021.031a56.29,56.29,0,0,0,19.031,16.443,84.855,84.855,0,0,0,31.3,10.321,74.993,74.993,0,0,0,8.78.615h.375a50.344,50.344,0,0,0,17.431-3.1,72.835,72.835,0,0,0,46.844-56.123s1.519-14.068.923-20.45a71.826,71.826,0,0,0,25.828,27.563l.037.022a57.612,57.612,0,0,0,17.716,6.793,62.565,62.565,0,0,0,13.775,1.536h.079a64.8,64.8,0,0,0,59.06-38.492l.025-.061a82.114,82.114,0,0,0,5.568-23.677h0A63.2,63.2,0,0,0,1347.616,352.8Zm-79.735-5.31a38.272,38.272,0,0,0-17.638,7.09c-10.239,7.474-16.347,19.98-18.154,37.173a57.415,57.415,0,0,0,.062,12.3,37.722,37.722,0,0,0-4.084-5.538,28.789,28.789,0,0,0-23.079-10.124l-.052,0a39.159,39.159,0,0,1-13.78-1.435l-1.531-.442c3.117-27.37,17.31-63.858,41.308-106.053,3.051-5.362,6.073-10.452,8.606-14.646a184.033,184.033,0,0,0,2.212,21.81c4.054,24.262,13.167,44.691,26.574,59.8Z" transform="translate(238.439 84.439)" fill="none" stroke="#b36b77" stroke-miterlimit="10" stroke-width="1"/>
        <path id="Path_2025" data-name="Path 2025" d="M499.613,685.4a43.648,43.648,0,0,0-40.92-15.856,68.053,68.053,0,0,0-23.431,7.933l-1.738.968c-18.772-17.3-26.323-41.748-29.334-59.792a165.019,165.019,0,0,1-1.926-37.638c11.363-17.618,19.99-29.416,20.857-30.538l.125-.155a5.345,5.345,0,1,0-8.552-6.413l.006,0c-.9,1.162-5.272,7.251-10.971,15.558a180.309,180.309,0,0,0-21.862,3.26l-3.419-1.756a74.146,74.146,0,0,0-36.954-8.1c-21.348.982-41.211,11.355-59.038,30.829-27.061,29.551-45.9,34.363-53.945,36.418l-.647.194a5.845,5.845,0,0,0,.145,11.321,260.551,260.551,0,0,0,51.954,6.578h.023l5.24,0c28.846,0,52.039-5.683,68.924-16.888a69,69,0,0,0,30.007-46.132l.343-2.054q5.72-1.214,11.549-1.983c-8.1,12.388-15.631,24.709-22.415,36.672-24.473,43.067-38.715,79.367-42.417,108.057l-.78-.325a39.807,39.807,0,0,1-10-6.022l-.041-.032a28.492,28.492,0,0,0-24.617-4.984c-14.232,3.364-27.253,15.613-35.732,33.609a73.329,73.329,0,0,0,6.261,72.937l.021.031a56.288,56.288,0,0,0,19.031,16.443,84.855,84.855,0,0,0,31.3,10.321,75.037,75.037,0,0,0,8.78.615h.374a50.311,50.311,0,0,0,17.431-3.105,72.831,72.831,0,0,0,46.844-56.122s1.52-14.068.923-20.45a71.826,71.826,0,0,0,25.828,27.563l.037.022a57.611,57.611,0,0,0,17.716,6.793,62.563,62.563,0,0,0,13.775,1.537h.079a64.8,64.8,0,0,0,59.06-38.492l.025-.06a82.062,82.062,0,0,0,5.568-23.677h0A63.194,63.194,0,0,0,499.613,685.4Zm-79.736-5.31a38.269,38.269,0,0,0-17.638,7.09c-10.239,7.474-16.347,19.98-18.154,37.173a57.421,57.421,0,0,0,.062,12.3,37.724,37.724,0,0,0-4.085-5.538,28.789,28.789,0,0,0-23.079-10.124l-.053,0a39.152,39.152,0,0,1-13.778-1.435l-1.531-.442c3.117-27.37,17.31-63.858,41.309-106.053,3.051-5.362,6.074-10.452,8.606-14.646a184,184,0,0,0,2.212,21.809c4.054,24.262,13.167,44.691,26.574,59.8Z" transform="translate(-106.752 219.828)" fill="none" stroke="#b36b77" stroke-miterlimit="10" stroke-width="1"/>
        <path id="Path_2026" data-name="Path 2026" d="M839.993,254.1a43.647,43.647,0,0,0-40.92-15.856,68.048,68.048,0,0,0-23.43,7.933l-1.738.968c-18.772-17.3-26.323-41.748-29.334-59.792a165.1,165.1,0,0,1-1.926-37.637c11.364-17.618,19.99-29.416,20.857-30.537l.125-.155a5.345,5.345,0,1,0-8.552-6.413l.006,0c-.9,1.162-5.272,7.251-10.971,15.558a180.306,180.306,0,0,0-21.862,3.26l-3.419-1.756a74.146,74.146,0,0,0-36.954-8.1c-21.348.982-41.212,11.355-59.037,30.829-27.061,29.551-45.9,34.363-53.945,36.418l-.647.194a5.845,5.845,0,0,0,.145,11.321,260.548,260.548,0,0,0,51.954,6.578h.023l5.241,0c28.845,0,52.037-5.683,68.922-16.888a69,69,0,0,0,30.007-46.132l.343-2.054q5.72-1.214,11.549-1.983c-8.1,12.388-15.631,24.709-22.414,36.672C689.541,219.592,675.3,255.891,671.6,284.581l-.78-.325a39.8,39.8,0,0,1-10-6.022l-.041-.032a28.5,28.5,0,0,0-24.617-4.985c-14.232,3.366-27.253,15.614-35.732,33.611a73.329,73.329,0,0,0,6.261,72.936l.021.031a56.286,56.286,0,0,0,19.031,16.443,84.856,84.856,0,0,0,31.3,10.321,75,75,0,0,0,8.78.615h.374a50.313,50.313,0,0,0,17.431-3.105,72.831,72.831,0,0,0,46.844-56.122s1.52-14.068.923-20.45a71.823,71.823,0,0,0,25.828,27.563l.037.023a57.609,57.609,0,0,0,17.716,6.793,62.559,62.559,0,0,0,13.775,1.537h.079a64.8,64.8,0,0,0,59.06-38.492l.025-.06a82.062,82.062,0,0,0,5.568-23.677h0A63.193,63.193,0,0,0,839.993,254.1Zm-79.735-5.31a38.272,38.272,0,0,0-17.638,7.09c-10.239,7.474-16.347,19.98-18.154,37.173a57.424,57.424,0,0,0,.062,12.3,37.711,37.711,0,0,0-4.085-5.538,28.789,28.789,0,0,0-23.079-10.124l-.052,0a39.189,39.189,0,0,1-13.779-1.435L682,287.819c3.117-27.37,17.31-63.858,41.309-106.053,3.05-5.362,6.074-10.452,8.605-14.646a183.977,183.977,0,0,0,2.212,21.808c4.054,24.263,13.167,44.693,26.574,59.8Z" transform="translate(31.804 44.261)" fill="none" stroke="#b36b77" stroke-miterlimit="10" stroke-width="1"/>
        <path id="Path_2027" data-name="Path 2027" d="M557.346,365.307a43.648,43.648,0,0,0-40.92-15.856,68.05,68.05,0,0,0-23.43,7.933l-1.738.968c-18.772-17.3-26.323-41.748-29.334-59.792A165.026,165.026,0,0,1,460,260.923c11.363-17.618,19.99-29.416,20.857-30.538l.125-.155a5.345,5.345,0,1,0-8.552-6.413l.006,0c-.9,1.162-5.272,7.251-10.971,15.558a180.314,180.314,0,0,0-21.862,3.26l-3.419-1.756a74.147,74.147,0,0,0-36.954-8.1c-21.348.982-41.211,11.355-59.038,30.829-27.061,29.551-45.9,34.363-53.945,36.418l-.647.194a5.845,5.845,0,0,0,.145,11.321,260.549,260.549,0,0,0,51.954,6.578h.023l5.24,0c28.846,0,52.039-5.685,68.924-16.888A69.006,69.006,0,0,0,441.889,255.1l.343-2.054q5.72-1.214,11.549-1.983c-8.1,12.388-15.631,24.709-22.414,36.672C406.894,330.8,392.652,367.1,388.95,395.788l-.78-.325a39.8,39.8,0,0,1-10-6.022l-.041-.032a28.5,28.5,0,0,0-24.617-4.985c-14.232,3.366-27.253,15.614-35.732,33.611a73.329,73.329,0,0,0,6.261,72.936l.021.031A56.288,56.288,0,0,0,343.1,507.444a84.858,84.858,0,0,0,31.3,10.321,75.011,75.011,0,0,0,8.78.615h.374a50.311,50.311,0,0,0,17.431-3.1,72.831,72.831,0,0,0,46.844-56.122s1.52-14.068.923-20.452a71.817,71.817,0,0,0,25.828,27.564l.036.023a57.612,57.612,0,0,0,17.716,6.793,62.648,62.648,0,0,0,13.775,1.536h.079a64.8,64.8,0,0,0,59.06-38.492l.025-.061a82.057,82.057,0,0,0,5.568-23.678h0A63.193,63.193,0,0,0,557.346,365.307ZM477.61,360a38.273,38.273,0,0,0-17.638,7.09c-10.239,7.474-16.347,19.98-18.154,37.173a57.418,57.418,0,0,0,.062,12.3,37.72,37.72,0,0,0-4.085-5.538A28.789,28.789,0,0,0,414.717,400.9l-.053,0a39.182,39.182,0,0,1-13.778-1.435l-1.531-.442c3.117-27.37,17.31-63.858,41.309-106.053,3.051-5.362,6.074-10.452,8.606-14.646a183.963,183.963,0,0,0,2.212,21.808c4.054,24.263,13.167,44.693,26.574,59.8Z" transform="translate(-83.251 89.529)" fill="none" stroke="#b36b77" stroke-miterlimit="10" stroke-width="1"/>
        <path id="Path_2028" data-name="Path 2028" d="M1124.574,144.13a43.648,43.648,0,0,0-40.92-15.856,68.047,68.047,0,0,0-23.43,7.933l-1.738.968c-18.772-17.3-26.323-41.748-29.335-59.792a165.026,165.026,0,0,1-1.926-37.638c11.364-17.618,19.99-29.416,20.857-30.537l.125-.155a5.345,5.345,0,0,0-8.552-6.413l.006,0c-.9,1.162-5.272,7.251-10.971,15.558a180.305,180.305,0,0,0-21.861,3.26l-3.419-1.756a74.145,74.145,0,0,0-36.954-8.1c-21.348.982-41.211,11.355-59.037,30.829-27.061,29.551-45.9,34.363-53.945,36.418l-.647.194a5.845,5.845,0,0,0,.145,11.321,260.55,260.55,0,0,0,51.954,6.578h.023l5.241,0c28.845,0,52.037-5.685,68.922-16.888a69.005,69.005,0,0,0,30.007-46.132l.344-2.054q5.72-1.214,11.549-1.983c-8.1,12.388-15.631,24.709-22.414,36.672-24.473,43.067-38.715,79.367-42.417,108.057l-.78-.325a39.8,39.8,0,0,1-10-6.022l-.041-.032a28.5,28.5,0,0,0-24.617-4.985c-14.232,3.366-27.253,15.614-35.732,33.611a73.329,73.329,0,0,0,6.261,72.937l.021.031a56.287,56.287,0,0,0,19.031,16.443,84.857,84.857,0,0,0,31.3,10.321,75.014,75.014,0,0,0,8.78.615h.374a50.311,50.311,0,0,0,17.431-3.1,72.831,72.831,0,0,0,46.844-56.122s1.519-14.068.923-20.452A71.816,71.816,0,0,0,1041.8,245.09l.037.022a57.611,57.611,0,0,0,17.716,6.793,62.648,62.648,0,0,0,13.775,1.537h.079a64.8,64.8,0,0,0,59.06-38.492l.026-.061a82.056,82.056,0,0,0,5.568-23.678h0A63.194,63.194,0,0,0,1124.574,144.13Zm-79.736-5.31a38.271,38.271,0,0,0-17.638,7.09c-10.239,7.474-16.347,19.98-18.154,37.173a57.412,57.412,0,0,0,.062,12.3,37.723,37.723,0,0,0-4.085-5.538,28.788,28.788,0,0,0-23.079-10.124l-.052,0a39.188,39.188,0,0,1-13.779-1.435l-1.531-.442c3.117-27.37,17.31-63.858,41.309-106.053,3.051-5.362,6.074-10.452,8.605-14.646a183.99,183.99,0,0,0,2.212,21.808c4.054,24.263,13.167,44.693,26.574,59.8Z" transform="translate(147.647 -0.504)" fill="none" stroke="#b36b77" stroke-miterlimit="10" stroke-width="1"/>
      </g>
    </g>
  </g>
</svg>
