<svg xmlns="http://www.w3.org/2000/svg" width="27.814" height="20" viewBox="0 0 27.814 20">
  <path id="Path_1362" data-name="Path 1362" d="M327.755,11.81l.279.837a15.672,15.672,0,0,0-5.488,3.3A5.748,5.748,0,0,0,320.5,20a1.82,1.82,0,0,0,.326,1.209,2.394,2.394,0,0,0,1.349.558,6.038,6.038,0,0,1,3.442,1.721,4.65,4.65,0,0,1,1.116,3.209,4.9,4.9,0,0,1-1.488,3.674,5.93,5.93,0,0,1-8.233-.465,7.258,7.258,0,0,1-1.628-4.884,11.78,11.78,0,0,1,3.4-8.279A17.33,17.33,0,0,1,327.755,11.81Zm-15.163,0,.279.837a15.674,15.674,0,0,0-5.488,3.3A5.748,5.748,0,0,0,305.336,20a1.82,1.82,0,0,0,.326,1.209,2.394,2.394,0,0,0,1.349.558,6.207,6.207,0,0,1,3.4,1.721,4.538,4.538,0,0,1,1.163,3.209,4.821,4.821,0,0,1-1.535,3.674,5.873,5.873,0,0,1-8.186-.465,7.258,7.258,0,0,1-1.628-4.884,11.78,11.78,0,0,1,3.4-8.279A17.33,17.33,0,0,1,312.592,11.81Z" transform="translate(-300.22 -11.81)" fill="#1f454d"/>
</svg>
