<svg version="1.2" xmlns="http://www.w3.org/2000/svg" viewBox="0 0 21 20" width="21" height="20"><defs><clipPath clipPathUnits="userSpaceOnUse" id="cp1"><path d="m-916-3165h1920v5488h-1920z"/></clipPath></defs><style></style><g clip-path="url(#cp1)"><path  d="m21 1.1v17.8c0 0.6-0.5 1.1-1.1 1.1h-5.1v-7.7h2.6l0.4-3.1h-3v-1.9c0-0.9 0.2-1.5 1.5-1.5h1.6v-2.7c-0.3 0-1.2-0.1-2.3-0.1-2.3 0-3.9 1.4-3.9 4v2.2h-2.6v3.1h2.6v7.7h-9.6c-0.6 0-1.1-0.5-1.1-1.1v-17.8c0-0.6 0.5-1.1 1.1-1.1h17.8c0.6 0 1.1 0.5 1.1 1.1z"/></g></svg>