<svg xmlns="http://www.w3.org/2000/svg" xmlns:xlink="http://www.w3.org/1999/xlink" width="33" height="44" viewBox="0 0 33 44">
  <defs>
    <clipPath id="clip-path">
      <rect id="Rectangle_2154" data-name="Rectangle 2154" width="33" height="44" transform="translate(16.934 1758)" fill="#fff" stroke="#707070" stroke-width="1"/>
    </clipPath>
  </defs>
  <g id="Mask_Group_82" data-name="Mask Group 82" transform="translate(-16.934 -1758)" clip-path="url(#clip-path)">
    <g id="Group_13327" data-name="Group 13327" transform="translate(-694.434 572.5)">
      <path id="Path_2364" data-name="Path 2364" d="M17.153,20.463a13.077,13.077,0,0,0-16.581,0,13.571,13.571,0,0,0,.186,4.024c.776,3.847,3.6,12,8.092,12.014h.027c4.487-.016,7.316-8.167,8.09-12.014a13.536,13.536,0,0,0,.188-4.024" transform="translate(718.934 1190)" fill="#ffd0cc" fill-rule="evenodd"/>
      <path id="Path_2365" data-name="Path 2365" d="M11.49,6.752A3.175,3.175,0,1,0,8.316,9.928,3.173,3.173,0,0,0,11.49,6.752" transform="translate(719.48 1188.362)" fill="#ffd0cc" fill-rule="evenodd"/>
      <path id="Path_2366" data-name="Path 2366" d="M13.538,2.438A6.613,6.613,0,0,0,2.248,7.119a10.332,10.332,0,0,0,.994,4.617c.5,1.161.725,2.549-.763,4.95a13.946,13.946,0,0,0-1.721,9.8C1.533,30.339,4.367,38.5,8.862,38.5s7.33-8.161,8.1-12.012a13.943,13.943,0,0,0-1.719-9.8c-1.489-2.4-1.263-3.79-.764-4.95a10.315,10.315,0,0,0,.995-4.617A6.58,6.58,0,0,0,13.538,2.438Z" transform="translate(718.934 1188)" fill="none" stroke="#1f454d" stroke-linejoin="round" stroke-width="1"/>
      <path id="Path_2367" data-name="Path 2367" d="M8.6,21v3.186h2.934L7.9,29.941V26.867H5.107Z" transform="translate(719.476 1190.412)" fill="#fff" stroke="#1f454d" stroke-linejoin="round" stroke-width="1"/>
    </g>
  </g>
</svg>
