<svg xmlns="http://www.w3.org/2000/svg" width="179.022" height="177.62" viewBox="0 0 179.022 177.62">
  <path id="Path_2350" data-name="Path 2350" d="M130.584,152.811a24.66,24.66,0,0,0-3.8-24.5,38.464,38.464,0,0,0-10.5-9.222l-.964-.577c3.162-14.072,12.99-24.671,20.968-31.241A93.21,93.21,0,0,1,154.157,75.7c11.831.581,20.039,1.471,20.832,1.578l.111.018a3.02,3.02,0,1,0,.759-5.992l-.037,0v0c-.824-.115-5.036-.531-10.711-.973a101.906,101.906,0,0,0-7.771-9.775l-.108-2.171a41.889,41.889,0,0,0-6.475-20.37c-6.511-10.167-17.2-16.956-31.76-20.176C96.9,12.942,89.222,5.084,85.945,1.728l-.278-.262a3.3,3.3,0,0,0-5.5,3.269A147.161,147.161,0,0,0,91.627,32.013l.006.011,1.479,2.561c8.148,14.113,17.481,23.855,27.731,28.951a38.983,38.983,0,0,0,31.047,1.651l1.1-.412q2.208,2.457,4.233,5.09c-8.347-.464-16.5-.667-24.274-.608-27.983.193-49.767,3.478-64.849,9.77l-.061-.474a22.478,22.478,0,0,1,.123-6.592l0-.03A16.1,16.1,0,0,0,63.653,58.48c-5.668-6.013-15.338-8.923-26.538-7.988A41.429,41.429,0,0,0,3.2,74.159l-.009.019A31.8,31.8,0,0,0,.521,88.134a47.936,47.936,0,0,0,3.791,18.228,42.323,42.323,0,0,0,2.179,4.469l.106.183a28.425,28.425,0,0,0,6.442,7.652,41.146,41.146,0,0,0,40.691,7.066S61.042,122.5,64,120.406a40.577,40.577,0,0,0-6.19,20.423v.024a32.566,32.566,0,0,0,1.681,10.587,35.419,35.419,0,0,0,3.14,7.173l.022.039a36.608,36.608,0,0,0,35.515,18.023l.036,0a46.392,46.392,0,0,0,13.157-3.965A35.7,35.7,0,0,0,130.584,152.811ZM110.659,112.3a21.63,21.63,0,0,0-8.451-6.626c-6.549-2.9-14.393-2.353-23.315,1.619a32.442,32.442,0,0,0-6,3.5,21.305,21.305,0,0,0,1.556-3.562,16.268,16.268,0,0,0-1.566-14.151l-.015-.026a22.15,22.15,0,0,1-3.19-7.146l-.216-.873c14.271-6.207,36.132-9.569,63.555-9.747,3.486-.022,6.829.019,9.6.073a104.136,104.136,0,0,0-10.044,7.244c-10.726,8.837-18.147,19.066-21.753,29.894Z" transform="translate(0.001 0.23)" fill="none" stroke="#fff3f2" stroke-miterlimit="10" stroke-width="1" opacity="0.201"/>
</svg>
