<svg xmlns="http://www.w3.org/2000/svg" xmlns:xlink="http://www.w3.org/1999/xlink" width="501" height="676" viewBox="0 0 501 676">
  <defs>
    <clipPath id="clip-path">
      <rect id="Rectangle_2142" data-name="Rectangle 2142" width="501" height="676" transform="translate(-19860 -3047)" fill="red" stroke="#707070" stroke-width="1"/>
    </clipPath>
  </defs>
  <g id="Mask_Group_82" data-name="Mask Group 82" transform="translate(19860 3047)" clip-path="url(#clip-path)">
    <g id="Group_13321" data-name="Group 13321" transform="translate(-4440.474 -2377.5)" opacity="0.2">
      <g id="Group_12065" data-name="Group 12065" transform="translate(-15387.041 -610.621)">
        <path id="Path_1999" data-name="Path 1999" d="M501.55,239.935a3.811,3.811,0,0,1-3.811,3.811v.016a3.81,3.81,0,0,1,3.811,3.811h.017a3.811,3.811,0,0,1,3.811-3.811v-.017a3.811,3.811,0,0,1-3.811-3.811Z" transform="translate(-417.839 -239.935)" fill="#ffd0cc"/>
        <path id="Path_2000" data-name="Path 2000" d="M439.295,557.037a3.811,3.811,0,0,1-3.811,3.811v.016a3.81,3.81,0,0,1,3.811,3.811h.017a3.811,3.811,0,0,1,3.811-3.811v-.017a3.811,3.811,0,0,1-3.811-3.811Z" transform="translate(-387.534 -394.296)" fill="#ffd0cc"/>
        <path id="Path_2001" data-name="Path 2001" d="M728.085,438.124a3.81,3.81,0,0,1-3.811,3.811v.016a3.81,3.81,0,0,1,3.811,3.811h.017a3.81,3.81,0,0,1,3.81-3.811v-.017a3.81,3.81,0,0,1-3.81-3.811Z" transform="translate(-528.113 -336.411)" fill="#ffd0cc"/>
        <path id="Path_2002" data-name="Path 2002" d="M1016.874,330.537a3.811,3.811,0,0,1-3.811,3.811v.016a3.81,3.81,0,0,1,3.811,3.811h.018a3.81,3.81,0,0,1,3.81-3.811v-.017a3.811,3.811,0,0,1-3.81-3.811Z" transform="translate(-668.692 -284.039)" fill="#ffd0cc"/>
        <path id="Path_2003" data-name="Path 2003" d="M399.658,871.309a3.81,3.81,0,0,1-3.811,3.811v.016a3.81,3.81,0,0,1,3.811,3.811h.017a3.811,3.811,0,0,1,3.811-3.811v-.017a3.811,3.811,0,0,1-3.811-3.811Z" transform="translate(-368.239 -547.279)" fill="#ffd0cc"/>
        <path id="Path_2004" data-name="Path 2004" d="M688.447,752.4a3.81,3.81,0,0,1-3.811,3.811v.016a3.81,3.81,0,0,1,3.811,3.811h.017a3.81,3.81,0,0,1,3.81-3.811v-.017a3.81,3.81,0,0,1-3.81-3.811Z" transform="translate(-508.818 -489.394)" fill="#ffd0cc"/>
        <path id="Path_2005" data-name="Path 2005" d="M977.236,644.808a3.811,3.811,0,0,1-3.811,3.811v.016a3.81,3.81,0,0,1,3.811,3.811h.017a3.81,3.81,0,0,1,3.81-3.811v-.017a3.811,3.811,0,0,1-3.81-3.811Z" transform="translate(-649.396 -437.022)" fill="#ffd0cc"/>
        <path id="Path_2006" data-name="Path 2006" d="M345.864,1174.254a3.81,3.81,0,0,1-3.811,3.811v.016a3.81,3.81,0,0,1,3.811,3.811h.017a3.81,3.81,0,0,1,3.81-3.81v-.017a3.81,3.81,0,0,1-3.81-3.811Z" transform="translate(-342.053 -694.749)" fill="#ffd0cc"/>
        <path id="Path_2007" data-name="Path 2007" d="M634.653,1055.341a3.81,3.81,0,0,1-3.811,3.811v.016a3.811,3.811,0,0,1,3.811,3.811h.017a3.81,3.81,0,0,1,3.81-3.81v-.017a3.81,3.81,0,0,1-3.81-3.811Z" transform="translate(-482.632 -636.863)" fill="#ffd0cc"/>
        <path id="Path_2008" data-name="Path 2008" d="M923.442,947.754a3.811,3.811,0,0,1-3.811,3.811v.016a3.81,3.81,0,0,1,3.811,3.811h.018a3.81,3.81,0,0,1,3.81-3.811v-.017a3.81,3.81,0,0,1-3.81-3.811Z" transform="translate(-623.21 -584.492)" fill="#ffd0cc"/>
        <path id="Path_2009" data-name="Path 2009" d="M582.863,1371.234a3.811,3.811,0,0,1-3.811,3.811v.016a3.81,3.81,0,0,1,3.811,3.81h.017a3.81,3.81,0,0,1,3.81-3.811v-.017a3.81,3.81,0,0,1-3.81-3.811Z" transform="translate(-457.421 -790.636)" fill="#ffd0cc"/>
        <path id="Path_2010" data-name="Path 2010" d="M867.879,1271.735a3.81,3.81,0,0,1-3.811,3.811v.016a3.81,3.81,0,0,1,3.811,3.811h.017a3.811,3.811,0,0,1,3.811-3.81v-.017a3.811,3.811,0,0,1-3.811-3.811Z" transform="translate(-596.163 -742.201)" fill="#ffd0cc"/>
      </g>
      <g id="Group_12066" data-name="Group 12066" transform="translate(-15490.46 -733.5)">
        <path id="Path_2011" data-name="Path 2011" d="M1027.7,1201.583a15.92,15.92,0,0,0-14.925-5.783,24.823,24.823,0,0,0-8.546,2.894l-.634.353c-6.847-6.311-9.6-15.227-10.7-21.809a60.217,60.217,0,0,1-.7-13.728c4.145-6.426,7.291-10.729,7.607-11.138l.046-.057a1.949,1.949,0,1,0-3.119-2.339h0c-.33.424-1.923,2.645-4,5.675a65.788,65.788,0,0,0-7.974,1.189l-1.247-.64a27.044,27.044,0,0,0-13.478-2.956c-7.786.358-15.031,4.142-21.533,11.245-9.87,10.778-16.742,12.534-19.676,13.283l-.236.071a2.132,2.132,0,0,0,.052,4.129,95.03,95.03,0,0,0,18.95,2.4h1.92c10.521,0,18.98-2.073,25.139-6.16a25.168,25.168,0,0,0,10.945-16.826l.125-.749q2.086-.443,4.213-.723c-2.954,4.518-5.7,9.013-8.176,13.376-8.926,15.708-14.121,28.948-15.471,39.413l-.284-.119a14.514,14.514,0,0,1-3.646-2.2l-.015-.012a10.392,10.392,0,0,0-8.979-1.818c-5.191,1.227-9.94,5.694-13.033,12.259a26.746,26.746,0,0,0,2.284,26.6l.008.011a20.529,20.529,0,0,0,6.941,6,30.948,30.948,0,0,0,11.415,3.764,27.41,27.41,0,0,0,3.2.224h.136a18.349,18.349,0,0,0,6.358-1.133,26.564,26.564,0,0,0,17.086-20.47,54.579,54.579,0,0,0,.337-7.46,26.2,26.2,0,0,0,9.421,10.054l.013.008a21.01,21.01,0,0,0,6.462,2.478,22.82,22.82,0,0,0,5.024.56h.029a23.635,23.635,0,0,0,21.542-14.039l.009-.022a29.93,29.93,0,0,0,2.031-8.636h0A23.049,23.049,0,0,0,1027.7,1201.583Zm-29.083-1.937a13.962,13.962,0,0,0-6.433,2.586c-3.734,2.726-5.963,7.288-6.621,13.559a20.9,20.9,0,0,0,.023,4.487,13.809,13.809,0,0,0-1.49-2.02,10.5,10.5,0,0,0-8.418-3.693l-.019,0a14.3,14.3,0,0,1-5.026-.524l-.558-.161c1.137-9.983,6.314-23.292,15.067-38.682,1.113-1.956,2.216-3.812,3.139-5.342a67.135,67.135,0,0,0,.807,7.954c1.479,8.85,4.8,16.3,9.693,21.813Z" transform="translate(-523.381 -559.672)" fill="none" stroke="#ffd0cc" stroke-miterlimit="10" stroke-width="1"/>
        <path id="Path_2012" data-name="Path 2012" d="M745.055,1312.79a15.92,15.92,0,0,0-14.925-5.783,24.821,24.821,0,0,0-8.546,2.893l-.634.353c-6.847-6.31-9.6-15.227-10.7-21.808a60.184,60.184,0,0,1-.7-13.728c4.145-6.426,7.291-10.729,7.607-11.138l.046-.056a1.95,1.95,0,0,0-3.119-2.339h0c-.33.424-1.923,2.645-4,5.675a65.79,65.79,0,0,0-7.974,1.189l-1.247-.64a27.043,27.043,0,0,0-13.479-2.956c-7.786.358-15.031,4.142-21.534,11.245-9.87,10.779-16.741,12.534-19.676,13.283l-.236.071a2.132,2.132,0,0,0,.053,4.129,95.027,95.027,0,0,0,18.95,2.4h1.92c10.521,0,18.98-2.073,25.139-6.159a25.167,25.167,0,0,0,10.945-16.826l.125-.749q2.086-.443,4.213-.723c-2.954,4.518-5.7,9.013-8.175,13.376-8.926,15.708-14.121,28.948-15.471,39.413l-.284-.119a14.519,14.519,0,0,1-3.646-2.2l-.015-.012a10.392,10.392,0,0,0-8.979-1.818c-5.191,1.227-9.94,5.694-13.033,12.259a26.746,26.746,0,0,0,2.284,26.6l.008.011a20.531,20.531,0,0,0,6.941,6,30.95,30.95,0,0,0,11.415,3.764,27.353,27.353,0,0,0,3.2.224h.137a18.351,18.351,0,0,0,6.358-1.133,26.565,26.565,0,0,0,17.086-20.47,54.606,54.606,0,0,0,.337-7.46,26.2,26.2,0,0,0,9.421,10.054l.013.008a21.021,21.021,0,0,0,6.462,2.478,22.827,22.827,0,0,0,5.024.56h.029a23.635,23.635,0,0,0,21.542-14.039l.009-.022a29.952,29.952,0,0,0,2.031-8.636h0A23.049,23.049,0,0,0,745.055,1312.79Zm-29.083-1.937a13.96,13.96,0,0,0-6.433,2.586c-3.735,2.726-5.962,7.288-6.621,13.559a20.941,20.941,0,0,0,.023,4.486,13.766,13.766,0,0,0-1.49-2.02,10.5,10.5,0,0,0-8.418-3.693l-.019,0a14.289,14.289,0,0,1-5.026-.524l-.558-.161c1.137-9.983,6.314-23.292,15.067-38.682,1.113-1.956,2.215-3.812,3.139-5.342a67.075,67.075,0,0,0,.807,7.954c1.478,8.85,4.8,16.3,9.692,21.813Z" transform="translate(-385.793 -613.806)" fill="none" stroke="#ffd0cc" stroke-miterlimit="10" stroke-width="1"/>
        <path id="Path_2013" data-name="Path 2013" d="M464.277,1424.212a15.922,15.922,0,0,0-14.926-5.783,24.813,24.813,0,0,0-8.546,2.894l-.634.353c-6.847-6.311-9.6-15.227-10.7-21.809a60.188,60.188,0,0,1-.7-13.728c4.145-6.426,7.291-10.729,7.607-11.138l.046-.057a1.949,1.949,0,0,0-3.119-2.339h0c-.331.424-1.923,2.644-4,5.675a65.8,65.8,0,0,0-7.974,1.189l-1.247-.64a27.042,27.042,0,0,0-13.478-2.956c-7.786.358-15.032,4.142-21.533,11.245-9.87,10.778-16.741,12.534-19.676,13.283l-.236.071a2.132,2.132,0,0,0,.053,4.13,95.019,95.019,0,0,0,18.949,2.4h1.92c10.521,0,18.98-2.073,25.139-6.16a25.167,25.167,0,0,0,10.945-16.826l.125-.749q2.086-.443,4.212-.723c-2.954,4.518-5.7,9.013-8.175,13.376-8.927,15.709-14.122,28.948-15.471,39.413l-.285-.118a14.5,14.5,0,0,1-3.646-2.2l-.015-.012a10.392,10.392,0,0,0-8.979-1.818c-5.191,1.227-9.94,5.695-13.033,12.259a26.746,26.746,0,0,0,2.283,26.6l.008.011a20.528,20.528,0,0,0,6.941,6,30.948,30.948,0,0,0,11.415,3.765,27.39,27.39,0,0,0,3.2.224h.137a18.354,18.354,0,0,0,6.358-1.133,26.565,26.565,0,0,0,17.086-20.47,54.608,54.608,0,0,0,.337-7.46,26.2,26.2,0,0,0,9.421,10.054l.013.008a21,21,0,0,0,6.461,2.478,22.808,22.808,0,0,0,5.025.561h.028a23.634,23.634,0,0,0,21.542-14.039l.009-.022a29.936,29.936,0,0,0,2.031-8.636h0A23.051,23.051,0,0,0,464.277,1424.212Zm-29.083-1.937a13.963,13.963,0,0,0-6.433,2.586c-3.735,2.726-5.963,7.287-6.622,13.558a20.942,20.942,0,0,0,.023,4.487,13.751,13.751,0,0,0-1.489-2.02,10.5,10.5,0,0,0-8.418-3.693h-.019a14.3,14.3,0,0,1-5.026-.523l-.558-.161c1.137-9.983,6.314-23.292,15.067-38.682,1.113-1.956,2.216-3.812,3.139-5.342a67.087,67.087,0,0,0,.807,7.954c1.479,8.85,4.8,16.3,9.693,21.813Z" transform="translate(-249.115 -668.045)" fill="none" stroke="#ffd0cc" stroke-miterlimit="10" stroke-width="1"/>
        <path id="Path_2014" data-name="Path 2014" d="M804.658,992.91a15.92,15.92,0,0,0-14.925-5.783,24.817,24.817,0,0,0-8.546,2.894l-.634.353c-6.847-6.311-9.6-15.227-10.7-21.808a60.184,60.184,0,0,1-.7-13.728c4.145-6.426,7.291-10.729,7.607-11.138l.046-.057a1.949,1.949,0,1,0-3.119-2.339h0c-.33.424-1.923,2.645-4,5.675a65.773,65.773,0,0,0-7.974,1.189l-1.247-.641a27.045,27.045,0,0,0-13.479-2.956c-7.786.358-15.031,4.142-21.534,11.245-9.87,10.778-16.741,12.534-19.676,13.283l-.236.071a2.132,2.132,0,0,0,.053,4.129,95.048,95.048,0,0,0,18.95,2.4h1.919c10.521,0,18.981-2.073,25.139-6.16a25.166,25.166,0,0,0,10.945-16.826l.125-.749q2.086-.443,4.212-.723c-2.954,4.518-5.7,9.013-8.175,13.376-8.926,15.708-14.121,28.948-15.471,39.413l-.284-.119a14.516,14.516,0,0,1-3.646-2.2l-.015-.012a10.392,10.392,0,0,0-8.979-1.818c-5.191,1.227-9.94,5.695-13.033,12.259a26.746,26.746,0,0,0,2.284,26.6l.008.011a20.532,20.532,0,0,0,6.941,6,30.946,30.946,0,0,0,11.415,3.765,27.328,27.328,0,0,0,3.2.224h.137a18.351,18.351,0,0,0,6.358-1.133,26.565,26.565,0,0,0,17.086-20.47,54.6,54.6,0,0,0,.337-7.459,26.2,26.2,0,0,0,9.421,10.053l.013.008a21.015,21.015,0,0,0,6.462,2.478,22.82,22.82,0,0,0,5.024.56H786a23.635,23.635,0,0,0,21.542-14.039l.009-.022a29.943,29.943,0,0,0,2.031-8.636h0A23.049,23.049,0,0,0,804.658,992.91Zm-29.083-1.937a13.959,13.959,0,0,0-6.433,2.586c-3.735,2.726-5.963,7.288-6.622,13.559a20.942,20.942,0,0,0,.023,4.487,13.768,13.768,0,0,0-1.49-2.02,10.5,10.5,0,0,0-8.418-3.693l-.019,0a14.291,14.291,0,0,1-5.025-.524l-.558-.161c1.137-9.983,6.314-23.292,15.067-38.682,1.113-1.956,2.215-3.812,3.139-5.342a67.116,67.116,0,0,0,.807,7.954c1.479,8.85,4.8,16.3,9.693,21.813Z" transform="translate(-414.807 -458.093)" fill="none" stroke="#ffd0cc" stroke-miterlimit="10" stroke-width="1"/>
        <path id="Path_2015" data-name="Path 2015" d="M522.011,1104.117a15.92,15.92,0,0,0-14.925-5.783,24.82,24.82,0,0,0-8.546,2.894l-.634.353c-6.847-6.311-9.6-15.227-10.7-21.809a60.185,60.185,0,0,1-.7-13.728c4.145-6.426,7.291-10.729,7.607-11.138l.046-.056a1.95,1.95,0,0,0-3.119-2.339h0c-.33.424-1.923,2.645-4,5.675a65.771,65.771,0,0,0-7.974,1.189l-1.247-.641a27.046,27.046,0,0,0-13.479-2.956c-7.786.358-15.032,4.142-21.533,11.244-9.87,10.779-16.742,12.534-19.676,13.283l-.236.071a2.132,2.132,0,0,0,.053,4.129,95.047,95.047,0,0,0,18.95,2.4h1.919c10.521,0,18.981-2.073,25.139-6.16a25.168,25.168,0,0,0,10.945-16.826l.125-.749q2.086-.443,4.212-.723c-2.954,4.518-5.7,9.012-8.175,13.376-8.926,15.708-14.121,28.948-15.471,39.413l-.284-.118a14.52,14.52,0,0,1-3.646-2.2l-.015-.012a10.394,10.394,0,0,0-8.979-1.818c-5.191,1.228-9.94,5.7-13.033,12.259a26.746,26.746,0,0,0,2.284,26.6l.008.011a20.529,20.529,0,0,0,6.941,6,30.951,30.951,0,0,0,11.415,3.764,27.356,27.356,0,0,0,3.2.224h.137a18.354,18.354,0,0,0,6.358-1.133,26.565,26.565,0,0,0,17.086-20.47,54.6,54.6,0,0,0,.337-7.459,26.2,26.2,0,0,0,9.421,10.054l.013.008a21.021,21.021,0,0,0,6.462,2.478,22.819,22.819,0,0,0,5.024.56h.029a23.635,23.635,0,0,0,21.542-14.039l.009-.022a29.932,29.932,0,0,0,2.031-8.636h0A23.049,23.049,0,0,0,522.011,1104.117Zm-29.083-1.937a13.958,13.958,0,0,0-6.433,2.586c-3.735,2.726-5.962,7.287-6.621,13.558a20.942,20.942,0,0,0,.023,4.487,13.745,13.745,0,0,0-1.49-2.02,10.5,10.5,0,0,0-8.418-3.692h-.019a14.292,14.292,0,0,1-5.026-.523l-.558-.161c1.137-9.983,6.314-23.292,15.067-38.682,1.113-1.956,2.215-3.812,3.139-5.342a67.109,67.109,0,0,0,.807,7.954c1.479,8.85,4.8,16.3,9.693,21.813Z" transform="translate(-277.218 -512.227)" fill="none" stroke="#ffd0cc" stroke-miterlimit="10" stroke-width="1"/>
        <path id="Path_2016" data-name="Path 2016" d="M1089.238,882.94a15.92,15.92,0,0,0-14.925-5.783,24.824,24.824,0,0,0-8.546,2.894l-.634.353c-6.847-6.311-9.6-15.227-10.7-21.808a60.178,60.178,0,0,1-.7-13.728c4.145-6.426,7.291-10.729,7.607-11.138l.046-.056a1.949,1.949,0,1,0-3.119-2.339h0c-.33.424-1.923,2.645-4,5.675a65.78,65.78,0,0,0-7.974,1.189l-1.247-.64a27.044,27.044,0,0,0-13.479-2.956c-7.786.358-15.031,4.142-21.534,11.244-9.869,10.779-16.741,12.534-19.675,13.283l-.236.071a2.132,2.132,0,0,0,.053,4.129,95.032,95.032,0,0,0,18.95,2.4h1.919c10.521,0,18.981-2.073,25.139-6.16a25.168,25.168,0,0,0,10.945-16.826l.125-.749q2.086-.443,4.213-.723c-2.954,4.518-5.7,9.013-8.176,13.376-8.926,15.709-14.121,28.948-15.471,39.413l-.284-.119a14.518,14.518,0,0,1-3.646-2.2l-.015-.012a10.394,10.394,0,0,0-8.979-1.818c-5.191,1.227-9.94,5.7-13.033,12.259a26.746,26.746,0,0,0,2.284,26.6l.008.011a20.529,20.529,0,0,0,6.941,6,30.952,30.952,0,0,0,11.415,3.764,27.312,27.312,0,0,0,3.2.224h.136a18.354,18.354,0,0,0,6.358-1.133,26.564,26.564,0,0,0,17.086-20.47,54.579,54.579,0,0,0,.337-7.459,26.2,26.2,0,0,0,9.421,10.054l.013.008a21.015,21.015,0,0,0,6.462,2.478,22.814,22.814,0,0,0,5.024.56h.029a23.635,23.635,0,0,0,21.542-14.039l.009-.022a29.949,29.949,0,0,0,2.031-8.636h0A23.049,23.049,0,0,0,1089.238,882.94ZM1060.156,881a13.96,13.96,0,0,0-6.433,2.586c-3.735,2.726-5.963,7.288-6.622,13.559a20.95,20.95,0,0,0,.023,4.487,13.765,13.765,0,0,0-1.49-2.02,10.5,10.5,0,0,0-8.418-3.693l-.019,0a14.3,14.3,0,0,1-5.026-.523l-.558-.161c1.137-9.983,6.313-23.292,15.067-38.682,1.113-1.956,2.215-3.812,3.139-5.342a67.136,67.136,0,0,0,.807,7.954c1.479,8.85,4.8,16.3,9.693,21.813Z" transform="translate(-553.337 -404.561)" fill="none" stroke="#ffd0cc" stroke-miterlimit="10" stroke-width="1"/>
        <path id="Path_2017" data-name="Path 2017" d="M241.234,1215.539a15.92,15.92,0,0,0-14.925-5.783,24.819,24.819,0,0,0-8.546,2.893l-.634.353c-6.847-6.31-9.6-15.227-10.7-21.808a60.221,60.221,0,0,1-.7-13.728c4.145-6.426,7.291-10.729,7.607-11.138l.046-.056a1.949,1.949,0,0,0-3.119-2.339h0c-.33.424-1.923,2.645-4,5.675a65.738,65.738,0,0,0-7.974,1.189l-1.247-.641a27.042,27.042,0,0,0-13.479-2.956c-7.786.358-15.032,4.142-21.533,11.244-9.87,10.779-16.742,12.534-19.676,13.283l-.236.071a2.132,2.132,0,0,0,.053,4.129,95.047,95.047,0,0,0,18.95,2.4h1.92c10.521,0,18.98-2.073,25.139-6.16a25.168,25.168,0,0,0,10.945-16.826l.125-.749q2.086-.443,4.212-.723c-2.954,4.518-5.7,9.013-8.175,13.376-8.926,15.708-14.121,28.948-15.471,39.413l-.284-.119a14.519,14.519,0,0,1-3.646-2.2l-.015-.012a10.392,10.392,0,0,0-8.979-1.818c-5.191,1.227-9.94,5.695-13.033,12.259a26.746,26.746,0,0,0,2.284,26.6l.008.011a20.529,20.529,0,0,0,6.941,6,30.949,30.949,0,0,0,11.415,3.765,27.355,27.355,0,0,0,3.2.224h.137a18.348,18.348,0,0,0,6.358-1.133,26.564,26.564,0,0,0,17.086-20.47,54.6,54.6,0,0,0,.337-7.46,26.194,26.194,0,0,0,9.421,10.054l.013.008a21.021,21.021,0,0,0,6.462,2.478,22.819,22.819,0,0,0,5.024.56h.029a23.635,23.635,0,0,0,21.542-14.039l.009-.022a29.927,29.927,0,0,0,2.031-8.636h0A23.049,23.049,0,0,0,241.234,1215.539Zm-29.083-1.937a13.96,13.96,0,0,0-6.433,2.586c-3.735,2.726-5.963,7.288-6.621,13.559a20.943,20.943,0,0,0,.023,4.487,13.76,13.76,0,0,0-1.49-2.02,10.5,10.5,0,0,0-8.418-3.693l-.019,0a14.289,14.289,0,0,1-5.026-.523l-.558-.161c1.137-9.983,6.314-23.292,15.067-38.682,1.113-1.956,2.216-3.812,3.139-5.342a67.1,67.1,0,0,0,.807,7.954c1.479,8.85,4.8,16.3,9.693,21.813Z" transform="translate(-140.54 -566.466)" fill="none" stroke="#ffd0cc" stroke-miterlimit="10" stroke-width="1"/>
        <path id="Path_2018" data-name="Path 2018" d="M850.364,687.812a15.92,15.92,0,0,0-14.925-5.784,24.822,24.822,0,0,0-8.546,2.894l-.634.353c-6.847-6.311-9.6-15.227-10.7-21.809a60.188,60.188,0,0,1-.7-13.728c4.145-6.426,7.291-10.729,7.607-11.138l.046-.056a1.949,1.949,0,0,0-3.119-2.339h0c-.33.424-1.923,2.645-4,5.675a65.773,65.773,0,0,0-7.974,1.189l-1.247-.641a27.045,27.045,0,0,0-13.479-2.956c-7.786.358-15.032,4.142-21.534,11.245-9.87,10.779-16.741,12.534-19.676,13.283l-.236.071a2.132,2.132,0,0,0,.053,4.129,95.029,95.029,0,0,0,18.95,2.4h1.919c10.521,0,18.981-2.073,25.139-6.16a25.17,25.17,0,0,0,10.945-16.826l.125-.749q2.086-.443,4.213-.723c-2.954,4.518-5.7,9.013-8.176,13.376-8.926,15.708-14.121,28.948-15.471,39.413l-.284-.119a14.516,14.516,0,0,1-3.646-2.2L785,696.6a10.394,10.394,0,0,0-8.979-1.818c-5.191,1.228-9.94,5.7-13.033,12.259a26.746,26.746,0,0,0,2.284,26.6l.008.011a20.531,20.531,0,0,0,6.941,6,30.952,30.952,0,0,0,11.415,3.764,27.353,27.353,0,0,0,3.2.224h.136a18.349,18.349,0,0,0,6.358-1.132,26.565,26.565,0,0,0,17.086-20.47,54.6,54.6,0,0,0,.337-7.46,26.2,26.2,0,0,0,9.421,10.054l.013.008a21.013,21.013,0,0,0,6.462,2.478,22.845,22.845,0,0,0,5.024.561h.029a23.635,23.635,0,0,0,21.542-14.04l.009-.022a29.944,29.944,0,0,0,2.031-8.636h0A23.049,23.049,0,0,0,850.364,687.812Zm-29.083-1.937a13.959,13.959,0,0,0-6.433,2.586c-3.735,2.726-5.963,7.288-6.622,13.559a20.946,20.946,0,0,0,.023,4.487,13.754,13.754,0,0,0-1.49-2.02,10.5,10.5,0,0,0-8.418-3.693l-.019,0a14.292,14.292,0,0,1-5.025-.524l-.558-.161c1.137-9.983,6.314-23.292,15.067-38.682,1.113-1.956,2.215-3.812,3.139-5.342a67.1,67.1,0,0,0,.807,7.954c1.479,8.85,4.8,16.3,9.693,21.813Z" transform="translate(-437.056 -309.575)" fill="none" stroke="#ffd0cc" stroke-miterlimit="10" stroke-width="1"/>
        <path id="Path_2019" data-name="Path 2019" d="M567.718,799.019a15.92,15.92,0,0,0-14.925-5.783,24.819,24.819,0,0,0-8.546,2.893l-.634.353c-6.847-6.31-9.6-15.227-10.7-21.809a60.186,60.186,0,0,1-.7-13.728c4.145-6.426,7.291-10.729,7.607-11.138l.046-.056a1.949,1.949,0,1,0-3.119-2.339h0c-.33.424-1.923,2.645-4,5.675a65.777,65.777,0,0,0-7.974,1.189l-1.247-.641a27.045,27.045,0,0,0-13.479-2.956c-7.786.358-15.031,4.142-21.533,11.245-9.87,10.778-16.742,12.534-19.676,13.283l-.236.071a2.132,2.132,0,0,0,.053,4.129,95.034,95.034,0,0,0,18.95,2.4h1.919c10.521,0,18.981-2.073,25.139-6.16a25.167,25.167,0,0,0,10.945-16.826l.125-.749q2.086-.443,4.213-.723c-2.954,4.518-5.7,9.013-8.176,13.376-8.926,15.708-14.121,28.948-15.471,39.413l-.284-.118a14.515,14.515,0,0,1-3.646-2.2l-.015-.012a10.392,10.392,0,0,0-8.979-1.818c-5.191,1.227-9.94,5.695-13.033,12.259a26.746,26.746,0,0,0,2.284,26.6l.008.011a20.53,20.53,0,0,0,6.941,6,30.952,30.952,0,0,0,11.415,3.764,27.381,27.381,0,0,0,3.2.224h.137a18.351,18.351,0,0,0,6.358-1.133,26.564,26.564,0,0,0,17.086-20.47,54.591,54.591,0,0,0,.337-7.459,26.2,26.2,0,0,0,9.421,10.053l.013.008A21.014,21.014,0,0,0,544,838.329a22.816,22.816,0,0,0,5.024.56h.029A23.635,23.635,0,0,0,570.6,824.85l.009-.022a29.948,29.948,0,0,0,2.031-8.636h0A23.049,23.049,0,0,0,567.718,799.019Zm-29.083-1.937a13.958,13.958,0,0,0-6.433,2.586c-3.735,2.726-5.963,7.288-6.622,13.559a20.949,20.949,0,0,0,.023,4.486,13.771,13.771,0,0,0-1.49-2.02A10.5,10.5,0,0,0,515.7,812l-.02,0a14.29,14.29,0,0,1-5.025-.524l-.558-.161c1.137-9.983,6.314-23.292,15.067-38.682,1.113-1.956,2.215-3.812,3.139-5.342a67.1,67.1,0,0,0,.807,7.954c1.479,8.85,4.8,16.3,9.693,21.813Z" transform="translate(-299.468 -363.71)" fill="none" stroke="#ffd0cc" stroke-miterlimit="10" stroke-width="1"/>
        <path id="Path_2020" data-name="Path 2020" d="M1134.945,577.843a15.92,15.92,0,0,0-14.925-5.783,24.819,24.819,0,0,0-8.546,2.893l-.634.353c-6.847-6.31-9.6-15.227-10.7-21.808a60.191,60.191,0,0,1-.7-13.728c4.145-6.426,7.291-10.729,7.607-11.138l.046-.056a1.949,1.949,0,0,0-3.119-2.339h0c-.33.424-1.923,2.645-4,5.675A65.768,65.768,0,0,0,1092,533.1l-1.247-.641a27.046,27.046,0,0,0-13.479-2.956c-7.786.358-15.031,4.142-21.533,11.245-9.87,10.779-16.742,12.534-19.676,13.283l-.236.071a2.132,2.132,0,0,0,.053,4.129,95.012,95.012,0,0,0,18.949,2.4h1.92c10.521,0,18.98-2.073,25.139-6.16a25.167,25.167,0,0,0,10.945-16.826l.125-.749q2.086-.443,4.213-.723c-2.954,4.518-5.7,9.013-8.176,13.376-8.926,15.708-14.121,28.948-15.471,39.413l-.285-.119a14.516,14.516,0,0,1-3.646-2.2l-.015-.012a10.392,10.392,0,0,0-8.979-1.818c-5.191,1.227-9.94,5.695-13.033,12.259a26.746,26.746,0,0,0,2.284,26.6l.008.011a20.53,20.53,0,0,0,6.941,6,30.946,30.946,0,0,0,11.416,3.764,27.326,27.326,0,0,0,3.2.224h.137a18.351,18.351,0,0,0,6.358-1.133A26.563,26.563,0,0,0,1095,612.073a54.591,54.591,0,0,0,.337-7.459,26.2,26.2,0,0,0,9.421,10.053l.013.008a21.011,21.011,0,0,0,6.462,2.478,22.809,22.809,0,0,0,5.024.56h.029a23.635,23.635,0,0,0,21.542-14.039l.009-.022a29.936,29.936,0,0,0,2.031-8.636h0A23.05,23.05,0,0,0,1134.945,577.843Zm-29.083-1.937a13.961,13.961,0,0,0-6.433,2.586c-3.734,2.726-5.963,7.288-6.621,13.559a20.9,20.9,0,0,0,.023,4.486,13.8,13.8,0,0,0-1.49-2.02,10.5,10.5,0,0,0-8.418-3.693l-.019,0a14.288,14.288,0,0,1-5.026-.524l-.558-.161c1.137-9.983,6.313-23.292,15.067-38.682,1.113-1.956,2.215-3.812,3.139-5.342a67.135,67.135,0,0,0,.807,7.954c1.479,8.85,4.8,16.3,9.693,21.813Z" transform="translate(-575.586 -256.044)" fill="none" stroke="#ffd0cc" stroke-miterlimit="10" stroke-width="1"/>
        <path id="Path_2021" data-name="Path 2021" d="M286.941,910.441a15.92,15.92,0,0,0-14.925-5.783,24.818,24.818,0,0,0-8.546,2.893l-.634.353c-6.847-6.311-9.6-15.227-10.7-21.809a60.189,60.189,0,0,1-.7-13.728c4.145-6.426,7.291-10.729,7.607-11.138l.046-.057a1.949,1.949,0,0,0-3.119-2.339h0c-.33.424-1.923,2.645-4,5.675a65.773,65.773,0,0,0-7.974,1.189l-1.247-.64a27.044,27.044,0,0,0-13.479-2.956c-7.786.358-15.032,4.142-21.534,11.245-9.87,10.779-16.741,12.534-19.676,13.283l-.236.071a2.132,2.132,0,0,0,.053,4.129,95.038,95.038,0,0,0,18.95,2.4h1.919c10.521,0,18.981-2.073,25.139-6.16a25.168,25.168,0,0,0,10.945-16.826l.125-.749q2.086-.443,4.212-.723c-2.954,4.518-5.7,9.013-8.176,13.376-8.926,15.709-14.121,28.948-15.471,39.413l-.284-.119a14.51,14.51,0,0,1-3.646-2.2l-.015-.012a10.392,10.392,0,0,0-8.979-1.818c-5.191,1.227-9.94,5.695-13.033,12.259a26.746,26.746,0,0,0,2.284,26.6l.008.011a20.532,20.532,0,0,0,6.941,6,30.952,30.952,0,0,0,11.415,3.765,27.329,27.329,0,0,0,3.2.224h.137a18.35,18.35,0,0,0,6.358-1.133,26.564,26.564,0,0,0,17.086-20.47,54.6,54.6,0,0,0,.337-7.46,26.194,26.194,0,0,0,9.421,10.054l.013.008a21.013,21.013,0,0,0,6.462,2.478,22.816,22.816,0,0,0,5.024.56h.029a23.635,23.635,0,0,0,21.542-14.04l.009-.022a29.927,29.927,0,0,0,2.031-8.636h0A23.05,23.05,0,0,0,286.941,910.441ZM257.858,908.5a13.96,13.96,0,0,0-6.433,2.586c-3.735,2.726-5.963,7.288-6.622,13.559a20.945,20.945,0,0,0,.023,4.487,13.752,13.752,0,0,0-1.49-2.02,10.5,10.5,0,0,0-8.418-3.693l-.019,0a14.3,14.3,0,0,1-5.025-.523l-.558-.161c1.137-9.983,6.314-23.292,15.067-38.682,1.113-1.956,2.216-3.812,3.139-5.342a67.1,67.1,0,0,0,.807,7.954c1.479,8.85,4.8,16.3,9.693,21.813Z" transform="translate(-162.789 -417.948)" fill="none" stroke="#ffd0cc" stroke-miterlimit="10" stroke-width="1"/>
        <path id="Path_2022" data-name="Path 2022" d="M887.661,371.533a15.92,15.92,0,0,0-14.925-5.783,24.819,24.819,0,0,0-8.546,2.894l-.634.353c-6.847-6.311-9.6-15.227-10.7-21.809a60.186,60.186,0,0,1-.7-13.728c4.145-6.426,7.291-10.729,7.607-11.138l.046-.056a1.949,1.949,0,0,0-3.119-2.339h0c-.33.424-1.923,2.645-4,5.675a65.773,65.773,0,0,0-7.974,1.189l-1.247-.64a27.043,27.043,0,0,0-13.479-2.956c-7.786.358-15.032,4.142-21.533,11.245-9.87,10.779-16.742,12.534-19.676,13.283l-.236.071a2.132,2.132,0,0,0,.053,4.129,95.028,95.028,0,0,0,18.95,2.4h1.92c10.521,0,18.98-2.073,25.139-6.16a25.168,25.168,0,0,0,10.945-16.826l.125-.749q2.086-.443,4.212-.723c-2.954,4.518-5.7,9.013-8.176,13.376-8.926,15.708-14.121,28.948-15.471,39.413l-.284-.119a14.518,14.518,0,0,1-3.646-2.2l-.015-.012a10.394,10.394,0,0,0-8.979-1.818c-5.191,1.228-9.94,5.7-13.033,12.259a26.746,26.746,0,0,0,2.284,26.6l.008.011a20.531,20.531,0,0,0,6.941,6,30.95,30.95,0,0,0,11.415,3.764,27.369,27.369,0,0,0,3.2.224h.137a18.352,18.352,0,0,0,6.358-1.133,26.564,26.564,0,0,0,17.086-20.47,54.6,54.6,0,0,0,.337-7.46,26.2,26.2,0,0,0,9.421,10.054l.013.008a21.014,21.014,0,0,0,6.462,2.478,22.82,22.82,0,0,0,5.024.56H869a23.635,23.635,0,0,0,21.542-14.04l.009-.022a29.927,29.927,0,0,0,2.031-8.636h0A23.05,23.05,0,0,0,887.661,371.533ZM858.578,369.6a13.958,13.958,0,0,0-6.433,2.586c-3.735,2.726-5.963,7.288-6.621,13.559a20.946,20.946,0,0,0,.023,4.487,13.758,13.758,0,0,0-1.49-2.02,10.5,10.5,0,0,0-8.418-3.693l-.019,0a14.293,14.293,0,0,1-5.026-.523l-.558-.161c1.137-9.983,6.314-23.292,15.067-38.682,1.113-1.956,2.216-3.812,3.139-5.342a67.1,67.1,0,0,0,.807,7.954c1.479,8.85,4.8,16.3,9.693,21.813Z" transform="translate(-455.212 -155.615)" fill="none" stroke="#ffd0cc" stroke-miterlimit="10" stroke-width="1"/>
        <path id="Path_2023" data-name="Path 2023" d="M605.014,482.74a15.92,15.92,0,0,0-14.925-5.783,24.83,24.83,0,0,0-8.546,2.893l-.634.354c-6.847-6.31-9.6-15.227-10.7-21.809a60.186,60.186,0,0,1-.7-13.728c4.145-6.426,7.291-10.729,7.607-11.138l.046-.056a1.949,1.949,0,0,0-3.119-2.339h0c-.33.424-1.923,2.644-4,5.675A65.658,65.658,0,0,0,562.068,438l-1.247-.641a27.039,27.039,0,0,0-13.479-2.956c-7.786.358-15.031,4.142-21.534,11.245-9.87,10.778-16.741,12.534-19.676,13.283L505.9,459a2.132,2.132,0,0,0,.053,4.129,95.034,95.034,0,0,0,18.95,2.4h.008l1.911,0c10.521,0,18.981-2.073,25.139-6.16A25.168,25.168,0,0,0,562.9,442.542l.125-.749q2.086-.443,4.213-.723c-2.954,4.518-5.7,9.013-8.175,13.376-8.926,15.708-14.121,28.948-15.471,39.413l-.284-.118a14.533,14.533,0,0,1-3.646-2.2l-.015-.012a10.394,10.394,0,0,0-8.979-1.817c-5.191,1.227-9.94,5.695-13.033,12.258a26.747,26.747,0,0,0,2.284,26.6l.008.011a20.53,20.53,0,0,0,6.941,6,30.963,30.963,0,0,0,11.415,3.764,27.489,27.489,0,0,0,3.2.224h.136a18.361,18.361,0,0,0,6.358-1.132,26.566,26.566,0,0,0,17.086-20.471,54.594,54.594,0,0,0,.337-7.459,26.2,26.2,0,0,0,9.421,10.053l.013.008a21.016,21.016,0,0,0,6.462,2.478,22.823,22.823,0,0,0,5.024.56h.029a23.636,23.636,0,0,0,21.542-14.04l.009-.022a29.942,29.942,0,0,0,2.031-8.636h0A23.05,23.05,0,0,0,605.014,482.74ZM575.932,480.8a13.964,13.964,0,0,0-6.433,2.586c-3.735,2.726-5.962,7.288-6.622,13.559a20.945,20.945,0,0,0,.023,4.486,13.748,13.748,0,0,0-1.49-2.02,10.5,10.5,0,0,0-8.418-3.693h-.019a14.29,14.29,0,0,1-5.025-.523l-.558-.161c1.137-9.983,6.314-23.292,15.067-38.682,1.113-1.956,2.215-3.812,3.139-5.342a67.117,67.117,0,0,0,.807,7.955c1.479,8.849,4.8,16.3,9.693,21.812Z" transform="translate(-317.623 -209.749)" fill="none" stroke="#ffd0cc" stroke-miterlimit="10" stroke-width="1"/>
        <path id="Path_2024" data-name="Path 2024" d="M1172.241,261.563a15.92,15.92,0,0,0-14.925-5.783,24.822,24.822,0,0,0-8.546,2.894l-.634.353c-6.847-6.311-9.6-15.227-10.7-21.809a60.183,60.183,0,0,1-.7-13.728c4.145-6.426,7.291-10.729,7.607-11.138l.046-.056a1.949,1.949,0,1,0-3.119-2.339h0c-.33.424-1.923,2.645-4,5.675a65.767,65.767,0,0,0-7.974,1.189l-1.247-.64a27.044,27.044,0,0,0-13.479-2.956c-7.786.358-15.031,4.142-21.534,11.245-9.87,10.779-16.741,12.534-19.676,13.283l-.236.071a2.132,2.132,0,0,0,.053,4.129,95.033,95.033,0,0,0,18.95,2.4h.008l1.911,0c10.521,0,18.981-2.073,25.139-6.16a25.167,25.167,0,0,0,10.945-16.826l.125-.749q2.086-.443,4.213-.723c-2.954,4.518-5.7,9.013-8.176,13.376-8.926,15.708-14.121,28.948-15.471,39.413l-.284-.119a14.52,14.52,0,0,1-3.646-2.2l-.015-.012a10.393,10.393,0,0,0-8.979-1.818c-5.191,1.227-9.94,5.695-13.033,12.259a26.746,26.746,0,0,0,2.284,26.6l.008.011a20.53,20.53,0,0,0,6.941,6,30.95,30.95,0,0,0,11.415,3.764,27.37,27.37,0,0,0,3.2.224h.137a18.363,18.363,0,0,0,6.358-1.132,26.567,26.567,0,0,0,17.086-20.471,54.6,54.6,0,0,0,.337-7.459,26.2,26.2,0,0,0,9.421,10.053l.013.008a21.013,21.013,0,0,0,6.462,2.478,22.822,22.822,0,0,0,5.025.56h.028a23.635,23.635,0,0,0,21.542-14.039l.009-.022a29.952,29.952,0,0,0,2.031-8.636h0A23.05,23.05,0,0,0,1172.241,261.563Zm-29.083-1.937a13.959,13.959,0,0,0-6.433,2.586c-3.735,2.726-5.963,7.288-6.621,13.559a20.934,20.934,0,0,0,.022,4.487,13.751,13.751,0,0,0-1.49-2.02,10.5,10.5,0,0,0-8.418-3.693l-.019,0a14.281,14.281,0,0,1-5.026-.523l-.558-.161c1.137-9.983,6.314-23.292,15.067-38.682,1.113-1.956,2.215-3.812,3.139-5.342a67.157,67.157,0,0,0,.807,7.955c1.479,8.849,4.8,16.3,9.693,21.812Z" transform="translate(-593.742 -102.083)" fill="none" stroke="#ffd0cc" stroke-miterlimit="10" stroke-width="1"/>
        <path id="Path_2025" data-name="Path 2025" d="M324.238,594.162a15.92,15.92,0,0,0-14.925-5.783,24.82,24.82,0,0,0-8.546,2.894l-.634.353c-6.847-6.31-9.6-15.227-10.7-21.808a60.192,60.192,0,0,1-.7-13.728c4.145-6.426,7.291-10.729,7.607-11.138l.046-.057a1.949,1.949,0,1,0-3.119-2.339h0c-.33.424-1.923,2.645-4,5.675a65.754,65.754,0,0,0-7.974,1.189l-1.247-.64a27.043,27.043,0,0,0-13.479-2.956c-7.786.358-15.032,4.142-21.533,11.244-9.87,10.779-16.742,12.534-19.676,13.283l-.236.071a2.132,2.132,0,0,0,.053,4.129,95.042,95.042,0,0,0,18.95,2.4h1.919c10.521,0,18.981-2.073,25.139-6.16a25.167,25.167,0,0,0,10.945-16.826l.125-.749q2.086-.443,4.212-.723c-2.954,4.518-5.7,9.013-8.175,13.376-8.926,15.708-14.121,28.948-15.471,39.413l-.284-.118a14.52,14.52,0,0,1-3.646-2.2l-.015-.012a10.392,10.392,0,0,0-8.979-1.818c-5.191,1.227-9.94,5.695-13.033,12.259a26.746,26.746,0,0,0,2.284,26.6l.008.011a20.529,20.529,0,0,0,6.941,6,30.95,30.95,0,0,0,11.415,3.764,27.317,27.317,0,0,0,3.2.224h.137a18.351,18.351,0,0,0,6.358-1.133,26.564,26.564,0,0,0,17.086-20.47,54.594,54.594,0,0,0,.337-7.459,26.2,26.2,0,0,0,9.421,10.053l.013.008a21.013,21.013,0,0,0,6.462,2.478,22.815,22.815,0,0,0,5.024.561h.029a23.635,23.635,0,0,0,21.542-14.04l.009-.022a29.933,29.933,0,0,0,2.031-8.636h0A23.049,23.049,0,0,0,324.238,594.162Zm-29.083-1.937a13.958,13.958,0,0,0-6.433,2.586c-3.735,2.726-5.962,7.287-6.621,13.558a20.948,20.948,0,0,0,.023,4.487,13.76,13.76,0,0,0-1.49-2.02,10.5,10.5,0,0,0-8.418-3.693l-.02,0a14.276,14.276,0,0,1-5.025-.523l-.558-.161c1.137-9.983,6.314-23.292,15.067-38.682,1.113-1.956,2.216-3.812,3.139-5.342a67.116,67.116,0,0,0,.807,7.955c1.479,8.849,4.8,16.3,9.693,21.812Z" transform="translate(-180.945 -263.988)" fill="none" stroke="#ffd0cc" stroke-miterlimit="10" stroke-width="1"/>
        <path id="Path_2026" data-name="Path 2026" d="M664.618,162.86a15.92,15.92,0,0,0-14.925-5.783,24.82,24.82,0,0,0-8.546,2.893l-.634.353c-6.847-6.31-9.6-15.227-10.7-21.809a60.207,60.207,0,0,1-.7-13.728c4.145-6.426,7.291-10.729,7.607-11.138l.046-.056a1.949,1.949,0,0,0-3.119-2.339h0c-.33.424-1.923,2.645-4,5.675a65.762,65.762,0,0,0-7.974,1.189l-1.247-.64a27.044,27.044,0,0,0-13.478-2.956c-7.786.358-15.032,4.142-21.533,11.245-9.87,10.778-16.742,12.534-19.676,13.283l-.236.071a2.132,2.132,0,0,0,.053,4.129,95.034,95.034,0,0,0,18.95,2.4h1.92c10.521,0,18.98-2.073,25.139-6.16a25.167,25.167,0,0,0,10.945-16.826l.125-.749q2.086-.443,4.213-.723c-2.954,4.518-5.7,9.013-8.176,13.376-8.926,15.708-14.121,28.948-15.471,39.413l-.284-.119a14.517,14.517,0,0,1-3.646-2.2l-.015-.012a10.394,10.394,0,0,0-8.979-1.818c-5.191,1.228-9.94,5.7-13.033,12.259a26.746,26.746,0,0,0,2.284,26.6l.008.011a20.531,20.531,0,0,0,6.941,6,30.95,30.95,0,0,0,11.415,3.764,27.358,27.358,0,0,0,3.2.224h.137a18.351,18.351,0,0,0,6.358-1.133,26.565,26.565,0,0,0,17.086-20.47,54.6,54.6,0,0,0,.337-7.459,26.2,26.2,0,0,0,9.421,10.053l.013.008a21.013,21.013,0,0,0,6.462,2.478,22.818,22.818,0,0,0,5.024.56h.029A23.635,23.635,0,0,0,667.5,188.691l.009-.022a29.928,29.928,0,0,0,2.031-8.636h0A23.049,23.049,0,0,0,664.618,162.86Zm-29.083-1.937a13.96,13.96,0,0,0-6.433,2.586c-3.735,2.726-5.962,7.288-6.621,13.559a20.954,20.954,0,0,0,.023,4.487,13.746,13.746,0,0,0-1.49-2.02,10.5,10.5,0,0,0-8.418-3.693l-.019,0a14.294,14.294,0,0,1-5.026-.523l-.558-.161c1.137-9.983,6.314-23.292,15.067-38.682,1.113-1.956,2.215-3.812,3.139-5.342a67.124,67.124,0,0,0,.807,7.954c1.479,8.85,4.8,16.3,9.693,21.813Z" transform="translate(-346.638 -54.036)" fill="none" stroke="#ffd0cc" stroke-miterlimit="10" stroke-width="1"/>
        <path id="Path_2027" data-name="Path 2027" d="M381.97,274.067a15.92,15.92,0,0,0-14.925-5.783,24.82,24.82,0,0,0-8.546,2.893l-.634.353c-6.847-6.311-9.6-15.227-10.7-21.809a60.189,60.189,0,0,1-.7-13.728c4.145-6.426,7.291-10.729,7.607-11.138l.046-.056A1.949,1.949,0,1,0,351,222.46h0c-.33.424-1.923,2.645-4,5.675a65.764,65.764,0,0,0-7.974,1.189l-1.247-.64a27.045,27.045,0,0,0-13.479-2.956c-7.786.358-15.032,4.142-21.533,11.245-9.87,10.779-16.742,12.534-19.676,13.283l-.236.071a2.132,2.132,0,0,0,.053,4.129,95.032,95.032,0,0,0,18.95,2.4h1.919c10.521,0,18.981-2.073,25.139-6.16a25.169,25.169,0,0,0,10.945-16.826l.125-.749q2.086-.443,4.213-.723c-2.954,4.518-5.7,9.013-8.176,13.376-8.926,15.708-14.121,28.948-15.471,39.413l-.284-.119a14.515,14.515,0,0,1-3.646-2.2l-.015-.012a10.394,10.394,0,0,0-8.979-1.818c-5.191,1.228-9.94,5.7-13.033,12.259a26.746,26.746,0,0,0,2.284,26.6l.008.011a20.531,20.531,0,0,0,6.941,6,30.951,30.951,0,0,0,11.415,3.764,27.356,27.356,0,0,0,3.2.224h.137a18.35,18.35,0,0,0,6.358-1.132,26.564,26.564,0,0,0,17.086-20.47,54.605,54.605,0,0,0,.337-7.46,26.2,26.2,0,0,0,9.421,10.054l.013.008a21.011,21.011,0,0,0,6.462,2.478,22.849,22.849,0,0,0,5.024.56h.029A23.635,23.635,0,0,0,384.85,299.9l.009-.022a29.927,29.927,0,0,0,2.031-8.636h0A23.049,23.049,0,0,0,381.97,274.067Zm-29.083-1.937a13.958,13.958,0,0,0-6.433,2.586c-3.735,2.726-5.963,7.288-6.621,13.559a20.942,20.942,0,0,0,.023,4.487,13.76,13.76,0,0,0-1.49-2.02,10.5,10.5,0,0,0-8.418-3.693l-.02,0a14.291,14.291,0,0,1-5.025-.523l-.558-.161c1.137-9.983,6.314-23.292,15.067-38.682,1.113-1.956,2.216-3.812,3.139-5.342a67.111,67.111,0,0,0,.807,7.954c1.479,8.85,4.8,16.3,9.693,21.813Z" transform="translate(-209.049 -108.17)" fill="none" stroke="#ffd0cc" stroke-miterlimit="10" stroke-width="1"/>
        <path id="Path_2028" data-name="Path 2028" d="M949.2,52.89a15.92,15.92,0,0,0-14.925-5.783A24.82,24.82,0,0,0,925.727,50l-.634.353c-6.847-6.311-9.6-15.227-10.7-21.809a60.2,60.2,0,0,1-.7-13.728c4.145-6.426,7.291-10.729,7.607-11.138l.046-.056a1.949,1.949,0,1,0-3.119-2.339h0c-.33.424-1.923,2.645-4,5.675a65.767,65.767,0,0,0-7.974,1.189L905,7.507a27.044,27.044,0,0,0-13.478-2.956c-7.787.358-15.032,4.142-21.534,11.245-9.87,10.779-16.742,12.534-19.676,13.283l-.236.071a2.132,2.132,0,0,0,.053,4.129,95.032,95.032,0,0,0,18.95,2.4H871c10.521,0,18.98-2.073,25.139-6.16a25.169,25.169,0,0,0,10.945-16.826l.125-.749q2.086-.443,4.212-.723c-2.954,4.518-5.7,9.013-8.175,13.376-8.926,15.708-14.121,28.948-15.471,39.413l-.284-.119a14.516,14.516,0,0,1-3.646-2.2l-.015-.012a10.394,10.394,0,0,0-8.979-1.818c-5.191,1.228-9.941,5.7-13.033,12.259a26.746,26.746,0,0,0,2.284,26.6l.008.011a20.531,20.531,0,0,0,6.941,6,30.95,30.95,0,0,0,11.415,3.764,27.361,27.361,0,0,0,3.2.224h.137a18.35,18.35,0,0,0,6.358-1.132,26.564,26.564,0,0,0,17.086-20.47,54.608,54.608,0,0,0,.337-7.46,26.2,26.2,0,0,0,9.421,10.054l.013.008a21.013,21.013,0,0,0,6.462,2.478,22.85,22.85,0,0,0,5.024.56h.029a23.635,23.635,0,0,0,21.542-14.039l.009-.022a29.931,29.931,0,0,0,2.031-8.636h0A23.049,23.049,0,0,0,949.2,52.89Zm-29.083-1.937a13.959,13.959,0,0,0-6.433,2.586c-3.735,2.726-5.963,7.288-6.621,13.559a20.93,20.93,0,0,0,.023,4.487,13.76,13.76,0,0,0-1.49-2.02,10.5,10.5,0,0,0-8.418-3.693l-.019,0a14.293,14.293,0,0,1-5.026-.523l-.558-.161c1.137-9.983,6.314-23.292,15.067-38.682,1.113-1.956,2.216-3.812,3.139-5.342a67.1,67.1,0,0,0,.807,7.954c1.479,8.85,4.8,16.3,9.693,21.813Z" transform="translate(-485.168 -0.504)" fill="none" stroke="#ffd0cc" stroke-miterlimit="10" stroke-width="1"/>
      </g>
    </g>
  </g>
</svg>