<svg xmlns="http://www.w3.org/2000/svg" width="737" height="302.5" viewBox="0 0 737 302.5">
  <g id="Group_13329" data-name="Group 13329" transform="translate(-202.5 -1478)">
    <path id="Path_2236" data-name="Path 2236" d="M322.248,11.81l.223.67a12.538,12.538,0,0,0-4.391,2.642,4.6,4.6,0,0,0-1.637,3.237,1.456,1.456,0,0,0,.26.967,1.915,1.915,0,0,0,1.079.447,4.831,4.831,0,0,1,2.753,1.377,3.72,3.72,0,0,1,.893,2.567,3.916,3.916,0,0,1-1.191,2.94,4.744,4.744,0,0,1-6.586-.372,5.806,5.806,0,0,1-1.3-3.907,9.424,9.424,0,0,1,2.716-6.623A13.864,13.864,0,0,1,322.248,11.81Zm-12.13,0,.223.67a12.54,12.54,0,0,0-4.391,2.642,4.6,4.6,0,0,0-1.637,3.237,1.456,1.456,0,0,0,.26.967,1.915,1.915,0,0,0,1.079.447,4.965,4.965,0,0,1,2.716,1.377,3.63,3.63,0,0,1,.93,2.567,3.857,3.857,0,0,1-1.228,2.94,4.7,4.7,0,0,1-6.549-.372,5.806,5.806,0,0,1-1.3-3.907,9.424,9.424,0,0,1,2.716-6.623A13.864,13.864,0,0,1,310.118,11.81Z" transform="translate(259.78 1466.19)" fill="#ffd0cc"/>
    <path id="AdobeStock_516046892" d="M0,5.011A4.989,4.989,0,0,1,4.989,10h.022A4.989,4.989,0,0,1,10,5.011V4.989A4.989,4.989,0,0,1,5.011,0H4.989A4.989,4.989,0,0,1,0,4.989Z" transform="translate(929 1482)" fill="none" stroke="#ffd0cc" stroke-width="1"/>
    <path id="AdobeStock_516046892-2" data-name="AdobeStock_516046892" d="M0,5.011A4.989,4.989,0,0,1,4.989,10h.022A4.989,4.989,0,0,1,10,5.011V4.989A4.989,4.989,0,0,1,5.011,0H4.989A4.989,4.989,0,0,1,0,4.989Z" transform="translate(203 1482)" fill="none" stroke="#ffd0cc" stroke-width="1"/>
    <path id="AdobeStock_516046892-3" data-name="AdobeStock_516046892" d="M0,5.011A4.989,4.989,0,0,1,4.989,10h.022A4.989,4.989,0,0,1,10,5.011V4.989A4.989,4.989,0,0,1,5.011,0H4.989A4.989,4.989,0,0,1,0,4.989Z" transform="translate(203 1770)" fill="none" stroke="#ffd0cc" stroke-width="1"/>
    <path id="AdobeStock_516046892-4" data-name="AdobeStock_516046892" d="M0,5.011A4.989,4.989,0,0,1,4.989,10h.022A4.989,4.989,0,0,1,10,5.011V4.989A4.989,4.989,0,0,1,5.011,0H4.989A4.989,4.989,0,0,1,0,4.989Z" transform="translate(929 1770)" fill="none" stroke="#ffd0cc" stroke-width="1"/>
    <path id="Path_2238" data-name="Path 2238" d="M726.958,26h-.5A25.508,25.508,0,0,1,701,.5V0H389.5V1H700a26.522,26.522,0,0,0,26,26V262a26.48,26.48,0,0,0-26,26H27A26.521,26.521,0,0,0,1,262.005V27a26.3,26.3,0,0,0,18.236-7.742A26.317,26.317,0,0,0,27,1H337.5V0H26.5L26,.033v.5a25.309,25.309,0,0,1-7.471,18.013A25.316,25.316,0,0,1,.513,26H0V262.5l.042.5h.5A25.507,25.507,0,0,1,26,288.5v.5H700.5l.5-.035v-.5A25.477,25.477,0,0,1,726.484,263H727V26.5Z" transform="translate(208 1487)" fill="#ffd0cc"/>
  </g>
</svg>
