<svg xmlns="http://www.w3.org/2000/svg" xmlns:xlink="http://www.w3.org/1999/xlink" width="960" height="1306" viewBox="0 0 960 1306">
  <defs>
    <clipPath id="clip-path">
      <rect id="Rectangle_2159" data-name="Rectangle 2159" width="960" height="1306" transform="translate(960 -17)" fill="#1f454d" stroke="#707070" stroke-width="1"/>
    </clipPath>
  </defs>
  <g id="Mask_Group_87" data-name="Mask Group 87" transform="translate(-960 17)" opacity="0.2" clip-path="url(#clip-path)">
    <g id="Group_13388" data-name="Group 13388" transform="translate(16361.9 500.41)">
      <g id="Group_13386" data-name="Group 13386" transform="translate(-15631 -734.004)">
        <path id="Path_2383" data-name="Path 2383" d="M505.164,239.935a7.425,7.425,0,0,1-7.425,7.425v.032a7.425,7.425,0,0,1,7.425,7.425h.033a7.425,7.425,0,0,1,7.425-7.425v-.033a7.426,7.426,0,0,1-7.425-7.425Z" fill="#b36b77"/>
        <path id="Path_2384" data-name="Path 2384" d="M442.909,557.037a7.425,7.425,0,0,1-7.425,7.425v.032a7.425,7.425,0,0,1,7.425,7.425h.033a7.425,7.425,0,0,1,7.425-7.425v-.033a7.426,7.426,0,0,1-7.425-7.425Z" fill="#b36b77"/>
        <path id="Path_2385" data-name="Path 2385" d="M731.7,438.124a7.425,7.425,0,0,1-7.425,7.425v.032a7.425,7.425,0,0,1,7.425,7.425h.034a7.424,7.424,0,0,1,7.424-7.425v-.033a7.424,7.424,0,0,1-7.424-7.425Z" fill="#b36b77"/>
        <path id="Path_2386" data-name="Path 2386" d="M1020.488,330.537a7.425,7.425,0,0,1-7.425,7.425v.032a7.425,7.425,0,0,1,7.425,7.425h.034a7.424,7.424,0,0,1,7.424-7.425v-.033a7.425,7.425,0,0,1-7.424-7.425Z" fill="#b36b77"/>
        <path id="Path_2387" data-name="Path 2387" d="M403.272,871.309a7.425,7.425,0,0,1-7.425,7.425v.032a7.425,7.425,0,0,1,7.425,7.425h.033a7.425,7.425,0,0,1,7.425-7.425v-.033a7.425,7.425,0,0,1-7.425-7.425Z" fill="#b36b77"/>
        <path id="Path_2388" data-name="Path 2388" d="M692.061,752.4a7.425,7.425,0,0,1-7.425,7.425v.032a7.425,7.425,0,0,1,7.425,7.425h.034a7.424,7.424,0,0,1,7.424-7.425v-.033a7.424,7.424,0,0,1-7.424-7.425Z" fill="#b36b77"/>
        <path id="Path_2389" data-name="Path 2389" d="M980.85,644.808a7.425,7.425,0,0,1-7.425,7.425v.032a7.425,7.425,0,0,1,7.425,7.425h.034a7.424,7.424,0,0,1,7.424-7.425v-.033a7.425,7.425,0,0,1-7.424-7.425Z" fill="#b36b77"/>
        <path id="Path_2390" data-name="Path 2390" d="M349.478,1174.254a7.425,7.425,0,0,1-7.425,7.425v.032a7.425,7.425,0,0,1,7.425,7.425h.034a7.424,7.424,0,0,1,7.424-7.425v-.033a7.424,7.424,0,0,1-7.424-7.425Z" fill="#b36b77"/>
        <path id="Path_2391" data-name="Path 2391" d="M638.267,1055.341a7.425,7.425,0,0,1-7.425,7.425v.032a7.425,7.425,0,0,1,7.425,7.425h.034a7.424,7.424,0,0,1,7.424-7.425v-.033a7.424,7.424,0,0,1-7.424-7.425Z" fill="#b36b77"/>
        <path id="Path_2392" data-name="Path 2392" d="M927.056,947.754a7.425,7.425,0,0,1-7.425,7.425v.032a7.425,7.425,0,0,1,7.425,7.425h.034a7.424,7.424,0,0,1,7.424-7.425v-.033a7.424,7.424,0,0,1-7.424-7.425Z" fill="#b36b77"/>
        <path id="Path_2393" data-name="Path 2393" d="M586.477,1371.234a7.425,7.425,0,0,1-7.425,7.425v.032a7.425,7.425,0,0,1,7.425,7.425h.034a7.424,7.424,0,0,1,7.424-7.425v-.033a7.425,7.425,0,0,1-7.424-7.425Z" fill="#b36b77"/>
        <path id="Path_2394" data-name="Path 2394" d="M871.493,1271.735a7.425,7.425,0,0,1-7.425,7.425v.032a7.425,7.425,0,0,1,7.425,7.425h.033a7.425,7.425,0,0,1,7.425-7.425v-.033a7.425,7.425,0,0,1-7.425-7.425Z" fill="#b36b77"/>
      </g>
      <g id="Group_13387" data-name="Group 13387" transform="translate(-15631 -734.004)">
        <path id="Path_2395" data-name="Path 2395" d="M1123.209,1251.272A31.02,31.02,0,0,0,1094.127,1240a48.363,48.363,0,0,0-16.652,5.638l-1.235.688c-13.341-12.3-18.708-29.67-20.848-42.494a117.34,117.34,0,0,1-1.369-26.749c8.076-12.521,14.207-20.906,14.823-21.7l.089-.11a3.8,3.8,0,1,0-6.078-4.558l0,0c-.643.826-3.747,5.153-7.8,11.057a128.136,128.136,0,0,0-15.537,2.317l-2.43-1.248a52.7,52.7,0,0,0-26.263-5.759c-15.172.7-29.289,8.07-41.958,21.91-19.232,21-32.621,24.422-38.339,25.882l-.459.138a4.154,4.154,0,0,0,.1,8.046,185.183,185.183,0,0,0,36.924,4.675h.016l3.725,0c20.5,0,36.983-4.039,48.983-12a49.041,49.041,0,0,0,21.326-32.786l.244-1.46q4.065-.862,8.209-1.409c-5.757,8.8-11.11,17.561-15.931,26.063-17.393,30.608-27.515,56.406-30.146,76.8l-.554-.231a28.285,28.285,0,0,1-7.105-4.28l-.029-.023a20.249,20.249,0,0,0-17.495-3.542c-10.115,2.391-19.369,11.1-25.395,23.886a52.115,52.115,0,0,0,4.45,51.836l.015.022a40,40,0,0,0,13.525,11.686,60.306,60.306,0,0,0,22.243,7.335,53.332,53.332,0,0,0,6.24.437h.266a35.757,35.757,0,0,0,12.388-2.207,51.759,51.759,0,0,0,33.292-39.886s1.08-10,.656-14.535a51.042,51.042,0,0,0,18.356,19.59l.026.016a40.945,40.945,0,0,0,12.591,4.828,44.464,44.464,0,0,0,9.79,1.092h.056a46.053,46.053,0,0,0,41.974-27.356l.018-.043a58.321,58.321,0,0,0,3.957-16.827h0A44.911,44.911,0,0,0,1123.209,1251.272Zm-56.668-3.774a27.2,27.2,0,0,0-12.535,5.039c-7.277,5.312-11.618,14.2-12.9,26.419a40.737,40.737,0,0,0,.045,8.742,26.893,26.893,0,0,0-2.9-3.936,20.46,20.46,0,0,0-16.4-7.195l-.037,0a27.851,27.851,0,0,1-9.793-1.02l-1.088-.314c2.215-19.452,12.3-45.384,29.358-75.372,2.168-3.811,4.317-7.428,6.116-10.409a130.736,130.736,0,0,0,1.572,15.5c2.881,17.244,9.358,31.763,18.886,42.5Z" fill="none" stroke="#b36b77" stroke-miterlimit="10" stroke-width="1"/>
        <path id="Path_2396" data-name="Path 2396" d="M840.563,1362.479a31.02,31.02,0,0,0-29.082-11.269,48.362,48.362,0,0,0-16.652,5.638l-1.235.688c-13.341-12.3-18.708-29.67-20.848-42.494a117.279,117.279,0,0,1-1.369-26.749c8.076-12.521,14.207-20.906,14.823-21.7l.089-.11a3.8,3.8,0,1,0-6.078-4.558l0,0c-.643.826-3.747,5.153-7.8,11.057a128.167,128.167,0,0,0-15.537,2.317l-2.43-1.248a52.7,52.7,0,0,0-26.263-5.759c-15.172.7-29.289,8.07-41.959,21.91-19.231,21-32.62,24.422-38.338,25.882l-.46.138a4.154,4.154,0,0,0,.1,8.046,185.174,185.174,0,0,0,36.924,4.675h.016l3.725,0c20.5,0,36.983-4.039,48.983-12a49.038,49.038,0,0,0,21.326-32.786l.244-1.46q4.065-.863,8.208-1.409c-5.756,8.8-11.109,17.561-15.93,26.063-17.393,30.608-27.515,56.406-30.146,76.8l-.554-.231a28.288,28.288,0,0,1-7.105-4.28l-.029-.023a20.249,20.249,0,0,0-17.495-3.542c-10.115,2.391-19.369,11.1-25.395,23.886a52.115,52.115,0,0,0,4.45,51.836l.015.022A40,40,0,0,0,688.3,1463.5a60.306,60.306,0,0,0,22.243,7.335,53.306,53.306,0,0,0,6.24.437h.266a35.757,35.757,0,0,0,12.388-2.207,51.761,51.761,0,0,0,33.292-39.886s1.08-10,.656-14.535a51.041,51.041,0,0,0,18.356,19.59l.026.016a40.943,40.943,0,0,0,12.591,4.828,44.456,44.456,0,0,0,9.79,1.092h.056a46.053,46.053,0,0,0,41.974-27.356l.018-.043a58.352,58.352,0,0,0,3.957-16.827h0A44.911,44.911,0,0,0,840.563,1362.479ZM783.9,1358.7a27.2,27.2,0,0,0-12.535,5.039c-7.277,5.312-11.618,14.2-12.9,26.419a40.805,40.805,0,0,0,.044,8.742,26.812,26.812,0,0,0-2.9-3.936,20.46,20.46,0,0,0-16.4-7.195l-.037,0a27.848,27.848,0,0,1-9.793-1.02l-1.088-.314c2.215-19.452,12.3-45.384,29.358-75.372,2.168-3.811,4.316-7.428,6.116-10.409a130.739,130.739,0,0,0,1.572,15.5c2.881,17.244,9.358,31.763,18.886,42.5Z" fill="none" stroke="#b36b77" stroke-miterlimit="10" stroke-width="1"/>
        <path id="Path_2397" data-name="Path 2397" d="M559.786,1473.9a31.022,31.022,0,0,0-29.083-11.269,48.35,48.35,0,0,0-16.651,5.638l-1.236.688c-13.341-12.3-18.708-29.67-20.847-42.494a117.277,117.277,0,0,1-1.37-26.749c8.077-12.521,14.207-20.906,14.823-21.7l.09-.11a3.8,3.8,0,0,0-6.078-4.558l0,0c-.644.826-3.748,5.153-7.8,11.057a128.175,128.175,0,0,0-15.538,2.317l-2.43-1.248a52.7,52.7,0,0,0-26.263-5.759c-15.172.7-29.289,8.07-41.958,21.91-19.232,21-32.621,24.422-38.339,25.882l-.459.138a4.154,4.154,0,0,0,.1,8.046,185.155,185.155,0,0,0,36.923,4.675h.017l3.724,0c20.5,0,36.983-4.039,48.983-12a49.04,49.04,0,0,0,21.326-32.786l.244-1.46q4.065-.863,8.208-1.409c-5.756,8.8-11.109,17.561-15.929,26.063-17.394,30.608-27.516,56.406-30.146,76.8l-.555-.231a28.264,28.264,0,0,1-7.1-4.28l-.03-.023a20.248,20.248,0,0,0-17.495-3.542c-10.114,2.391-19.368,11.1-25.394,23.886a52.115,52.115,0,0,0,4.449,51.836l.015.022a40,40,0,0,0,13.525,11.686,60.312,60.312,0,0,0,22.243,7.335,53.322,53.322,0,0,0,6.24.437h.266a35.757,35.757,0,0,0,12.388-2.207,51.761,51.761,0,0,0,33.292-39.886s1.08-10,.656-14.535a51.044,51.044,0,0,0,18.357,19.59l.026.016a40.937,40.937,0,0,0,12.59,4.828,44.465,44.465,0,0,0,9.791,1.092h.055a46.052,46.052,0,0,0,41.974-27.356l.018-.043a58.32,58.32,0,0,0,3.957-16.827h0A44.915,44.915,0,0,0,559.786,1473.9Zm-56.669-3.774a27.2,27.2,0,0,0-12.535,5.039c-7.277,5.312-11.618,14.2-12.9,26.419a40.807,40.807,0,0,0,.044,8.742,26.806,26.806,0,0,0-2.9-3.936,20.462,20.462,0,0,0-16.4-7.195l-.037,0a27.851,27.851,0,0,1-9.793-1.02l-1.088-.314c2.215-19.452,12.3-45.384,29.358-75.372,2.168-3.811,4.317-7.428,6.116-10.409a130.739,130.739,0,0,0,1.572,15.5c2.881,17.244,9.358,31.763,18.887,42.5Z" fill="none" stroke="#b36b77" stroke-miterlimit="10" stroke-width="1"/>
        <path id="Path_2398" data-name="Path 2398" d="M900.166,1042.6a31.02,31.02,0,0,0-29.082-11.269,48.362,48.362,0,0,0-16.652,5.638l-1.235.688c-13.341-12.3-18.708-29.67-20.848-42.494a117.278,117.278,0,0,1-1.369-26.749c8.076-12.521,14.207-20.906,14.823-21.7l.089-.11a3.8,3.8,0,1,0-6.078-4.558l0,0c-.643.826-3.747,5.153-7.8,11.057a128.143,128.143,0,0,0-15.537,2.317l-2.43-1.248a52.7,52.7,0,0,0-26.263-5.759c-15.172.7-29.289,8.07-41.959,21.91-19.231,21-32.62,24.422-38.338,25.882l-.46.138a4.154,4.154,0,0,0,.1,8.046,185.178,185.178,0,0,0,36.924,4.675h.016l3.724,0c20.5,0,36.984-4.039,48.984-12a49.038,49.038,0,0,0,21.326-32.786l.244-1.46q4.065-.863,8.208-1.409c-5.756,8.8-11.109,17.561-15.93,26.063-17.393,30.608-27.515,56.406-30.146,76.8l-.554-.231a28.287,28.287,0,0,1-7.1-4.28l-.029-.023a20.249,20.249,0,0,0-17.495-3.542c-10.115,2.391-19.369,11.1-25.4,23.886a52.115,52.115,0,0,0,4.45,51.836l.015.022a40,40,0,0,0,13.525,11.686,60.307,60.307,0,0,0,22.243,7.335,53.3,53.3,0,0,0,6.24.437h.266a35.758,35.758,0,0,0,12.388-2.207,51.761,51.761,0,0,0,33.292-39.886s1.08-10,.656-14.534a51.045,51.045,0,0,0,18.356,19.589l.026.016a40.942,40.942,0,0,0,12.591,4.828,44.456,44.456,0,0,0,9.79,1.092h.056a46.053,46.053,0,0,0,41.974-27.356l.018-.043a58.354,58.354,0,0,0,3.957-16.827h0A44.912,44.912,0,0,0,900.166,1042.6Zm-56.668-3.774a27.2,27.2,0,0,0-12.535,5.039c-7.277,5.312-11.618,14.2-12.9,26.419a40.809,40.809,0,0,0,.044,8.742,26.811,26.811,0,0,0-2.9-3.936,20.46,20.46,0,0,0-16.4-7.195l-.038,0a27.846,27.846,0,0,1-9.792-1.02l-1.088-.314c2.215-19.452,12.3-45.384,29.358-75.372,2.168-3.811,4.316-7.428,6.116-10.409a130.738,130.738,0,0,0,1.572,15.5c2.881,17.244,9.358,31.763,18.886,42.5Z" fill="none" stroke="#b36b77" stroke-miterlimit="10" stroke-width="1"/>
        <path id="Path_2399" data-name="Path 2399" d="M617.519,1153.806a31.02,31.02,0,0,0-29.082-11.269,48.362,48.362,0,0,0-16.652,5.638l-1.235.688c-13.341-12.3-18.708-29.67-20.848-42.494a117.278,117.278,0,0,1-1.369-26.749c8.076-12.521,14.207-20.906,14.823-21.7l.089-.11a3.8,3.8,0,1,0-6.078-4.558l0,0c-.643.826-3.747,5.153-7.8,11.057a128.167,128.167,0,0,0-15.537,2.317l-2.43-1.248a52.7,52.7,0,0,0-26.263-5.759c-15.172.7-29.289,8.07-41.958,21.91-19.232,21-32.621,24.422-38.339,25.882l-.46.138a4.154,4.154,0,0,0,.1,8.046,185.174,185.174,0,0,0,36.924,4.675h.016l3.724,0c20.5,0,36.984-4.04,48.984-12a49.04,49.04,0,0,0,21.326-32.786l.244-1.46q4.065-.863,8.208-1.409c-5.756,8.8-11.109,17.561-15.93,26.063-17.393,30.608-27.515,56.406-30.146,76.8l-.554-.231a28.287,28.287,0,0,1-7.105-4.28l-.029-.023a20.253,20.253,0,0,0-17.495-3.543c-10.115,2.392-19.369,11.1-25.4,23.887a52.115,52.115,0,0,0,4.45,51.836l.015.022a40,40,0,0,0,13.525,11.686,60.306,60.306,0,0,0,22.243,7.335,53.28,53.28,0,0,0,6.24.437H494a35.757,35.757,0,0,0,12.388-2.207,51.761,51.761,0,0,0,33.292-39.886s1.08-10,.656-14.535a51.041,51.041,0,0,0,18.356,19.59l.026.016a40.946,40.946,0,0,0,12.591,4.828,44.464,44.464,0,0,0,9.79,1.092h.056a46.053,46.053,0,0,0,41.974-27.356l.018-.043a58.319,58.319,0,0,0,3.957-16.827h0A44.911,44.911,0,0,0,617.519,1153.806Zm-56.668-3.774a27.2,27.2,0,0,0-12.535,5.039c-7.277,5.312-11.618,14.2-12.9,26.419a40.805,40.805,0,0,0,.044,8.742,26.805,26.805,0,0,0-2.9-3.936,20.46,20.46,0,0,0-16.4-7.2l-.037,0a27.849,27.849,0,0,1-9.793-1.02l-1.088-.314c2.215-19.452,12.3-45.384,29.358-75.372,2.168-3.811,4.317-7.428,6.116-10.409a130.739,130.739,0,0,0,1.572,15.5c2.881,17.244,9.358,31.763,18.886,42.5Z" fill="none" stroke="#b36b77" stroke-miterlimit="10" stroke-width="1"/>
        <path id="Path_2400" data-name="Path 2400" d="M1184.747,932.629a31.02,31.02,0,0,0-29.082-11.269A48.364,48.364,0,0,0,1139.013,927l-1.235.688c-13.341-12.3-18.708-29.67-20.848-42.494a117.275,117.275,0,0,1-1.369-26.749c8.076-12.521,14.207-20.906,14.823-21.7l.089-.11a3.8,3.8,0,1,0-6.078-4.558l0,0c-.643.826-3.747,5.153-7.8,11.057a128.142,128.142,0,0,0-15.537,2.317l-2.43-1.248a52.7,52.7,0,0,0-26.263-5.759c-15.172.7-29.289,8.07-41.959,21.91-19.231,21-32.62,24.422-38.338,25.882l-.46.138a4.154,4.154,0,0,0,.1,8.046,185.169,185.169,0,0,0,36.924,4.675h.016l3.724,0c20.5,0,36.984-4.04,48.984-12a49.041,49.041,0,0,0,21.326-32.786l.244-1.46q4.065-.862,8.208-1.409c-5.756,8.8-11.109,17.561-15.93,26.063-17.393,30.608-27.515,56.406-30.146,76.8l-.554-.231a28.286,28.286,0,0,1-7.1-4.28l-.029-.023a20.253,20.253,0,0,0-17.495-3.543c-10.115,2.392-19.369,11.1-25.4,23.887a52.115,52.115,0,0,0,4.45,51.836l.015.022a40,40,0,0,0,13.525,11.686,60.306,60.306,0,0,0,22.243,7.335,53.28,53.28,0,0,0,6.24.437h.266a35.757,35.757,0,0,0,12.388-2.207,51.761,51.761,0,0,0,33.292-39.886s1.08-10,.656-14.535a51.041,51.041,0,0,0,18.356,19.59l.026.016a40.944,40.944,0,0,0,12.591,4.828,44.46,44.46,0,0,0,9.79,1.092h.056a46.053,46.053,0,0,0,41.974-27.356l.018-.043a58.352,58.352,0,0,0,3.957-16.827h0A44.911,44.911,0,0,0,1184.747,932.629Zm-56.668-3.774a27.2,27.2,0,0,0-12.535,5.039c-7.277,5.312-11.618,14.2-12.9,26.419a40.809,40.809,0,0,0,.044,8.742,26.813,26.813,0,0,0-2.9-3.936,20.46,20.46,0,0,0-16.4-7.2l-.037,0a27.85,27.85,0,0,1-9.793-1.02l-1.088-.314c2.215-19.452,12.3-45.384,29.358-75.372,2.168-3.811,4.316-7.428,6.116-10.409a130.713,130.713,0,0,0,1.572,15.5c2.881,17.244,9.358,31.763,18.886,42.5Z" fill="none" stroke="#b36b77" stroke-miterlimit="10" stroke-width="1"/>
        <path id="Path_2401" data-name="Path 2401" d="M336.742,1265.228a31.02,31.02,0,0,0-29.082-11.269,48.362,48.362,0,0,0-16.652,5.638l-1.235.688c-13.341-12.3-18.708-29.67-20.848-42.494a117.336,117.336,0,0,1-1.369-26.749c8.076-12.521,14.207-20.906,14.823-21.7l.089-.11a3.8,3.8,0,1,0-6.078-4.558l0,0c-.643.826-3.747,5.153-7.8,11.057a128.167,128.167,0,0,0-15.537,2.317l-2.43-1.248a52.7,52.7,0,0,0-26.263-5.759c-15.172.7-29.289,8.07-41.958,21.91-19.232,21-32.621,24.422-38.339,25.882l-.46.138a4.154,4.154,0,0,0,.1,8.046,185.174,185.174,0,0,0,36.924,4.675h.016l3.725,0c20.5,0,36.983-4.039,48.983-12a49.04,49.04,0,0,0,21.326-32.786l.244-1.46q4.065-.863,8.208-1.409c-5.756,8.8-11.109,17.561-15.93,26.063-17.393,30.608-27.515,56.406-30.146,76.8l-.554-.231a28.287,28.287,0,0,1-7.1-4.28l-.029-.023a20.249,20.249,0,0,0-17.495-3.542c-10.115,2.391-19.369,11.1-25.4,23.886a52.115,52.115,0,0,0,4.45,51.836l.015.022a40,40,0,0,0,13.525,11.686,60.306,60.306,0,0,0,22.243,7.335,53.28,53.28,0,0,0,6.24.437h.266a35.757,35.757,0,0,0,12.388-2.207,51.761,51.761,0,0,0,33.292-39.886s1.08-10,.656-14.535a51.041,51.041,0,0,0,18.356,19.59l.026.016a40.946,40.946,0,0,0,12.591,4.828,44.464,44.464,0,0,0,9.79,1.092h.056a46.053,46.053,0,0,0,41.974-27.356l.018-.043a58.319,58.319,0,0,0,3.957-16.827h0A44.911,44.911,0,0,0,336.742,1265.228Zm-56.668-3.774a27.2,27.2,0,0,0-12.535,5.039c-7.277,5.312-11.618,14.2-12.9,26.419a40.808,40.808,0,0,0,.044,8.742,26.805,26.805,0,0,0-2.9-3.936,20.46,20.46,0,0,0-16.4-7.2l-.037,0a27.849,27.849,0,0,1-9.793-1.02l-1.088-.314c2.215-19.452,12.3-45.384,29.358-75.372,2.168-3.811,4.317-7.428,6.116-10.409a130.739,130.739,0,0,0,1.572,15.5c2.881,17.244,9.358,31.763,18.886,42.5Z" fill="none" stroke="#b36b77" stroke-miterlimit="10" stroke-width="1"/>
        <path id="Path_2402" data-name="Path 2402" d="M945.872,737.5a31.02,31.02,0,0,0-29.082-11.269,48.363,48.363,0,0,0-16.652,5.638l-1.235.688c-13.341-12.3-18.708-29.67-20.848-42.494a117.282,117.282,0,0,1-1.369-26.749c8.076-12.521,14.207-20.906,14.823-21.7l.089-.11a3.8,3.8,0,0,0-6.078-4.558l0,0c-.643.826-3.747,5.153-7.8,11.057a128.143,128.143,0,0,0-15.537,2.317l-2.43-1.248a52.7,52.7,0,0,0-26.263-5.759c-15.172.7-29.289,8.07-41.959,21.91-19.231,21-32.62,24.422-38.338,25.882l-.46.138a4.154,4.154,0,0,0,.1,8.046,185.169,185.169,0,0,0,36.924,4.675h.016l3.724,0c20.5,0,36.984-4.04,48.984-12a49.043,49.043,0,0,0,21.326-32.786l.244-1.46q4.065-.863,8.208-1.409c-5.756,8.8-11.109,17.561-15.93,26.063-17.393,30.608-27.515,56.406-30.146,76.8l-.554-.231a28.288,28.288,0,0,1-7.1-4.28l-.029-.023a20.253,20.253,0,0,0-17.495-3.543c-10.115,2.392-19.369,11.1-25.4,23.887a52.115,52.115,0,0,0,4.45,51.836l.015.022A40,40,0,0,0,793.6,838.518a60.308,60.308,0,0,0,22.243,7.335,53.305,53.305,0,0,0,6.24.437h.266a35.757,35.757,0,0,0,12.388-2.206A51.761,51.761,0,0,0,868.034,804.2s1.08-10,.656-14.535a51.041,51.041,0,0,0,18.356,19.59l.026.016a40.944,40.944,0,0,0,12.591,4.828,44.522,44.522,0,0,0,9.79,1.092h.056a46.053,46.053,0,0,0,41.974-27.356l.018-.043a58.35,58.35,0,0,0,3.957-16.828h0A44.912,44.912,0,0,0,945.872,737.5ZM889.2,733.727a27.2,27.2,0,0,0-12.535,5.039c-7.277,5.312-11.618,14.2-12.9,26.419a40.809,40.809,0,0,0,.044,8.742,26.8,26.8,0,0,0-2.9-3.936,20.46,20.46,0,0,0-16.4-7.2l-.038,0a27.848,27.848,0,0,1-9.792-1.02l-1.088-.314c2.215-19.452,12.3-45.384,29.358-75.372,2.168-3.811,4.316-7.428,6.116-10.409a130.738,130.738,0,0,0,1.572,15.5c2.881,17.244,9.358,31.763,18.886,42.5Z" fill="none" stroke="#b36b77" stroke-miterlimit="10" stroke-width="1"/>
        <path id="Path_2403" data-name="Path 2403" d="M663.226,848.708a31.02,31.02,0,0,0-29.082-11.269,48.362,48.362,0,0,0-16.652,5.638l-1.235.688c-13.341-12.3-18.708-29.67-20.848-42.494a117.279,117.279,0,0,1-1.369-26.749c8.076-12.521,14.207-20.906,14.823-21.7l.089-.11a3.8,3.8,0,1,0-6.078-4.558l0,0c-.643.826-3.747,5.153-7.8,11.057a128.151,128.151,0,0,0-15.537,2.317l-2.43-1.248a52.7,52.7,0,0,0-26.263-5.759c-15.172.7-29.289,8.07-41.958,21.91-19.232,21-32.621,24.422-38.339,25.882l-.46.138a4.154,4.154,0,0,0,.1,8.046,185.174,185.174,0,0,0,36.924,4.675h.016l3.724,0c20.5,0,36.984-4.039,48.984-12a49.038,49.038,0,0,0,21.326-32.786l.244-1.46q4.065-.863,8.208-1.409c-5.756,8.8-11.109,17.561-15.93,26.063-17.393,30.608-27.515,56.406-30.146,76.8l-.554-.231a28.287,28.287,0,0,1-7.1-4.28l-.029-.023a20.249,20.249,0,0,0-17.495-3.542c-10.115,2.391-19.369,11.1-25.4,23.886a52.115,52.115,0,0,0,4.45,51.836l.015.022a40,40,0,0,0,13.525,11.686A60.307,60.307,0,0,0,533.2,957.06a53.305,53.305,0,0,0,6.24.437h.266a35.758,35.758,0,0,0,12.388-2.207,51.761,51.761,0,0,0,33.292-39.886s1.08-10,.656-14.534A51.046,51.046,0,0,0,604.4,920.46l.026.016a40.945,40.945,0,0,0,12.591,4.828,44.463,44.463,0,0,0,9.79,1.092h.056a46.053,46.053,0,0,0,41.974-27.356l.018-.043a58.352,58.352,0,0,0,3.957-16.827h0A44.912,44.912,0,0,0,663.226,848.708Zm-56.668-3.774a27.2,27.2,0,0,0-12.535,5.039c-7.277,5.312-11.618,14.2-12.9,26.419a40.808,40.808,0,0,0,.044,8.742,26.811,26.811,0,0,0-2.9-3.936,20.46,20.46,0,0,0-16.4-7.2l-.038,0a27.847,27.847,0,0,1-9.792-1.02l-1.088-.314c2.215-19.452,12.3-45.384,29.358-75.372,2.168-3.811,4.316-7.428,6.116-10.409a130.738,130.738,0,0,0,1.572,15.5c2.881,17.244,9.358,31.763,18.886,42.5Z" fill="none" stroke="#b36b77" stroke-miterlimit="10" stroke-width="1"/>
        <path id="Path_2404" data-name="Path 2404" d="M1230.453,627.532a31.02,31.02,0,0,0-29.082-11.269,48.363,48.363,0,0,0-16.652,5.638l-1.235.688c-13.341-12.3-18.708-29.67-20.848-42.494a117.278,117.278,0,0,1-1.369-26.749c8.076-12.521,14.207-20.906,14.823-21.7l.089-.11a3.8,3.8,0,0,0-6.078-4.558l0,0c-.643.826-3.747,5.153-7.8,11.057a128.141,128.141,0,0,0-15.537,2.317l-2.43-1.248a52.7,52.7,0,0,0-26.263-5.759c-15.172.7-29.289,8.07-41.958,21.91-19.232,21-32.621,24.422-38.339,25.882l-.46.138a4.154,4.154,0,0,0,.1,8.046,185.149,185.149,0,0,0,36.923,4.675h.016l3.725,0c20.5,0,36.983-4.039,48.983-12a49.038,49.038,0,0,0,21.326-32.786l.244-1.46q4.065-.863,8.209-1.409c-5.757,8.8-11.11,17.561-15.931,26.063-17.393,30.608-27.515,56.406-30.146,76.8l-.554-.231a28.286,28.286,0,0,1-7.1-4.28l-.029-.023a20.249,20.249,0,0,0-17.5-3.542c-10.115,2.391-19.369,11.1-25.395,23.886a52.115,52.115,0,0,0,4.45,51.836l.015.022a40,40,0,0,0,13.525,11.686,60.306,60.306,0,0,0,22.243,7.335,53.308,53.308,0,0,0,6.24.437h.266a35.757,35.757,0,0,0,12.388-2.207,51.759,51.759,0,0,0,33.292-39.886s1.08-10,.656-14.534a51.046,51.046,0,0,0,18.356,19.589l.026.016a40.945,40.945,0,0,0,12.591,4.828,44.46,44.46,0,0,0,9.79,1.092h.056a46.053,46.053,0,0,0,41.974-27.356l.018-.043a58.319,58.319,0,0,0,3.957-16.827h0A44.912,44.912,0,0,0,1230.453,627.532Zm-56.668-3.774a27.2,27.2,0,0,0-12.535,5.039c-7.277,5.312-11.618,14.2-12.9,26.419a40.746,40.746,0,0,0,.045,8.742,26.88,26.88,0,0,0-2.9-3.936,20.46,20.46,0,0,0-16.4-7.195l-.037,0a27.852,27.852,0,0,1-9.793-1.02l-1.088-.314c2.215-19.452,12.3-45.384,29.358-75.372,2.168-3.811,4.317-7.428,6.116-10.409a130.764,130.764,0,0,0,1.572,15.5c2.881,17.244,9.358,31.763,18.886,42.5Z" fill="none" stroke="#b36b77" stroke-miterlimit="10" stroke-width="1"/>
        <path id="Path_2405" data-name="Path 2405" d="M382.449,960.13a31.02,31.02,0,0,0-29.082-11.269,48.362,48.362,0,0,0-16.652,5.638l-1.235.688c-13.341-12.3-18.708-29.67-20.848-42.494a117.278,117.278,0,0,1-1.369-26.749c8.076-12.521,14.207-20.906,14.823-21.7l.089-.11a3.8,3.8,0,1,0-6.078-4.558l0,0c-.643.826-3.747,5.153-7.8,11.057a128.151,128.151,0,0,0-15.537,2.317l-2.43-1.248a52.7,52.7,0,0,0-26.263-5.759c-15.172.7-29.289,8.07-41.959,21.91-19.231,21-32.62,24.422-38.338,25.882l-.46.138a4.154,4.154,0,0,0,.1,8.046,185.179,185.179,0,0,0,36.924,4.675h.016l3.724,0c20.5,0,36.984-4.04,48.984-12A49.04,49.04,0,0,0,300.394,881.8l.244-1.46q4.065-.863,8.208-1.409c-5.756,8.8-11.109,17.561-15.93,26.063C275.523,935.6,265.4,961.4,262.77,981.793l-.554-.231a28.286,28.286,0,0,1-7.105-4.28l-.029-.023a20.249,20.249,0,0,0-17.495-3.542c-10.115,2.391-19.369,11.1-25.4,23.886a52.115,52.115,0,0,0,4.45,51.836l.015.022a40,40,0,0,0,13.525,11.686,60.306,60.306,0,0,0,22.243,7.335,53.306,53.306,0,0,0,6.24.437h.266a35.757,35.757,0,0,0,12.388-2.207,51.761,51.761,0,0,0,33.292-39.886s1.08-10,.656-14.535a51.041,51.041,0,0,0,18.356,19.59l.026.016a40.943,40.943,0,0,0,12.591,4.828,44.456,44.456,0,0,0,9.79,1.092h.056a46.053,46.053,0,0,0,41.974-27.356l.018-.043a58.32,58.32,0,0,0,3.957-16.827h0A44.911,44.911,0,0,0,382.449,960.13Zm-56.668-3.774a27.2,27.2,0,0,0-12.535,5.039c-7.277,5.312-11.618,14.2-12.9,26.419a40.807,40.807,0,0,0,.044,8.742,26.806,26.806,0,0,0-2.9-3.936,20.46,20.46,0,0,0-16.4-7.2l-.038,0a27.847,27.847,0,0,1-9.792-1.02l-1.088-.314c2.215-19.452,12.3-45.384,29.358-75.372,2.168-3.811,4.317-7.428,6.116-10.409a130.738,130.738,0,0,0,1.572,15.5c2.881,17.244,9.358,31.763,18.886,42.5Z" fill="none" stroke="#b36b77" stroke-miterlimit="10" stroke-width="1"/>
        <path id="Path_2406" data-name="Path 2406" d="M983.169,421.222a31.02,31.02,0,0,0-29.082-11.269,48.363,48.363,0,0,0-16.652,5.638l-1.235.688c-13.341-12.3-18.708-29.67-20.848-42.494a117.278,117.278,0,0,1-1.369-26.749c8.076-12.521,14.207-20.906,14.823-21.7l.089-.11a3.8,3.8,0,1,0-6.078-4.558l0,0c-.643.826-3.747,5.153-7.8,11.057a128.147,128.147,0,0,0-15.537,2.317l-2.43-1.248a52.7,52.7,0,0,0-26.263-5.759c-15.172.7-29.289,8.07-41.958,21.91-19.232,21-32.621,24.422-38.339,25.882l-.46.138a4.154,4.154,0,0,0,.1,8.046,185.174,185.174,0,0,0,36.924,4.675h.016l3.725,0c20.5,0,36.983-4.039,48.983-12a49.041,49.041,0,0,0,21.326-32.786l.244-1.46q4.065-.863,8.208-1.409c-5.756,8.8-11.109,17.561-15.93,26.063-17.393,30.608-27.515,56.406-30.146,76.8l-.554-.231a28.287,28.287,0,0,1-7.1-4.28l-.029-.023a20.253,20.253,0,0,0-17.495-3.543c-10.115,2.392-19.369,11.1-25.4,23.887a52.115,52.115,0,0,0,4.45,51.836l.015.022A40,40,0,0,0,830.9,522.239a60.308,60.308,0,0,0,22.243,7.335,53.305,53.305,0,0,0,6.24.437h.266a35.758,35.758,0,0,0,12.388-2.207,51.761,51.761,0,0,0,33.292-39.886s1.08-10,.656-14.535a51.041,51.041,0,0,0,18.356,19.59l.026.016a40.945,40.945,0,0,0,12.591,4.828,44.461,44.461,0,0,0,9.79,1.092h.056a46.053,46.053,0,0,0,41.974-27.356l.018-.043a58.318,58.318,0,0,0,3.957-16.827h0A44.912,44.912,0,0,0,983.169,421.222ZM926.5,417.448a27.2,27.2,0,0,0-12.535,5.039c-7.277,5.312-11.618,14.2-12.9,26.419a40.809,40.809,0,0,0,.044,8.742,26.808,26.808,0,0,0-2.9-3.936,20.46,20.46,0,0,0-16.4-7.2l-.037,0a27.85,27.85,0,0,1-9.793-1.02l-1.088-.314c2.215-19.452,12.3-45.384,29.358-75.372,2.168-3.811,4.317-7.428,6.116-10.409a130.725,130.725,0,0,0,1.572,15.5c2.881,17.244,9.358,31.763,18.886,42.5Z" fill="none" stroke="#b36b77" stroke-miterlimit="10" stroke-width="1"/>
        <path id="Path_2407" data-name="Path 2407" d="M700.523,532.429a31.021,31.021,0,0,0-29.082-11.269,48.382,48.382,0,0,0-16.652,5.637l-1.235.689c-13.341-12.3-18.708-29.67-20.848-42.494a117.278,117.278,0,0,1-1.369-26.749c8.076-12.521,14.207-20.906,14.823-21.7l.089-.11a3.8,3.8,0,1,0-6.078-4.558l0,0c-.643.826-3.747,5.152-7.8,11.057a127.908,127.908,0,0,0-15.537,2.317L614.411,444a52.686,52.686,0,0,0-26.263-5.76c-15.172.7-29.289,8.071-41.959,21.911-19.231,21-32.62,24.422-38.338,25.882l-.46.138a4.154,4.154,0,0,0,.1,8.046,185.174,185.174,0,0,0,36.924,4.675h.016l3.724,0c20.5,0,36.984-4.039,48.984-12A49.041,49.041,0,0,0,618.468,454.1l.244-1.46q4.065-.863,8.208-1.409c-5.756,8.8-11.109,17.561-15.93,26.063-17.393,30.608-27.515,56.406-30.146,76.8l-.554-.231a28.317,28.317,0,0,1-7.1-4.28l-.029-.024a20.252,20.252,0,0,0-17.495-3.541c-10.115,2.39-19.369,11.1-25.4,23.885a52.116,52.116,0,0,0,4.45,51.837l.015.022a40,40,0,0,0,13.525,11.686,60.326,60.326,0,0,0,22.243,7.335,53.531,53.531,0,0,0,6.24.437h.266a35.779,35.779,0,0,0,12.388-2.206,51.764,51.764,0,0,0,33.292-39.888s1.08-10,.656-14.533A51.046,51.046,0,0,0,641.7,604.181l.026.016a40.945,40.945,0,0,0,12.591,4.828,44.463,44.463,0,0,0,9.79,1.092h.056a46.054,46.054,0,0,0,41.974-27.357l.018-.042a58.352,58.352,0,0,0,3.957-16.827h0A44.913,44.913,0,0,0,700.523,532.429Zm-56.668-3.774a27.209,27.209,0,0,0-12.535,5.038c-7.277,5.312-11.618,14.2-12.9,26.42a40.8,40.8,0,0,0,.044,8.741,26.8,26.8,0,0,0-2.9-3.935,20.457,20.457,0,0,0-16.4-7.2l-.038,0a27.847,27.847,0,0,1-9.792-1.02l-1.088-.314c2.215-19.452,12.3-45.384,29.358-75.372,2.168-3.811,4.316-7.428,6.116-10.409a130.8,130.8,0,0,0,1.572,15.5c2.881,17.242,9.358,31.762,18.886,42.5Z" fill="none" stroke="#b36b77" stroke-miterlimit="10" stroke-width="1"/>
        <path id="Path_2408" data-name="Path 2408" d="M1267.75,311.252a31.02,31.02,0,0,0-29.082-11.269,48.363,48.363,0,0,0-16.652,5.638l-1.235.688c-13.341-12.3-18.708-29.67-20.848-42.494a117.278,117.278,0,0,1-1.369-26.749c8.076-12.521,14.207-20.906,14.823-21.7l.089-.11a3.8,3.8,0,1,0-6.078-4.558l0,0c-.643.826-3.747,5.153-7.8,11.057a128.146,128.146,0,0,0-15.537,2.317l-2.43-1.248a52.7,52.7,0,0,0-26.263-5.759c-15.172.7-29.289,8.07-41.959,21.91-19.231,21-32.62,24.422-38.338,25.882l-.46.138a4.154,4.154,0,0,0,.1,8.046,185.175,185.175,0,0,0,36.924,4.675h.016l3.724,0c20.5,0,36.984-4.039,48.984-12a49.038,49.038,0,0,0,21.326-32.786l.244-1.46q4.065-.862,8.209-1.409c-5.757,8.8-11.11,17.561-15.931,26.063-17.393,30.608-27.515,56.406-30.146,76.8l-.554-.231a28.286,28.286,0,0,1-7.1-4.28l-.029-.023a20.249,20.249,0,0,0-17.5-3.542c-10.115,2.391-19.369,11.1-25.395,23.886a52.115,52.115,0,0,0,4.45,51.836l.015.022a40,40,0,0,0,13.525,11.686,60.307,60.307,0,0,0,22.243,7.335,53.308,53.308,0,0,0,6.24.437h.266a35.779,35.779,0,0,0,12.388-2.206,51.764,51.764,0,0,0,33.292-39.887s1.08-10,.656-14.534A51.046,51.046,0,0,0,1208.924,383l.026.016a40.946,40.946,0,0,0,12.591,4.828,44.462,44.462,0,0,0,9.79,1.092h.056a46.053,46.053,0,0,0,41.974-27.356l.018-.043a58.356,58.356,0,0,0,3.957-16.827h0A44.913,44.913,0,0,0,1267.75,311.252Zm-56.668-3.774a27.2,27.2,0,0,0-12.535,5.039c-7.277,5.312-11.618,14.2-12.9,26.419a40.809,40.809,0,0,0,.044,8.742,26.8,26.8,0,0,0-2.9-3.936,20.46,20.46,0,0,0-16.4-7.2l-.037,0a27.828,27.828,0,0,1-9.793-1.02l-1.088-.314c2.215-19.452,12.3-45.384,29.358-75.372,2.168-3.811,4.316-7.428,6.116-10.409a130.8,130.8,0,0,0,1.572,15.5c2.881,17.243,9.358,31.762,18.886,42.5Z" fill="none" stroke="#b36b77" stroke-miterlimit="10" stroke-width="1"/>
        <path id="Path_2409" data-name="Path 2409" d="M419.746,643.851a31.02,31.02,0,0,0-29.082-11.269,48.363,48.363,0,0,0-16.652,5.638l-1.235.688c-13.341-12.3-18.708-29.67-20.848-42.494a117.278,117.278,0,0,1-1.369-26.749c8.076-12.521,14.207-20.906,14.823-21.7l.089-.11a3.8,3.8,0,1,0-6.078-4.558l0,0c-.643.826-3.747,5.153-7.8,11.057a128.137,128.137,0,0,0-15.537,2.317l-2.43-1.248a52.7,52.7,0,0,0-26.263-5.759c-15.172.7-29.289,8.07-41.958,21.91-19.232,21-32.621,24.422-38.339,25.882l-.46.138a4.154,4.154,0,0,0,.1,8.046,185.174,185.174,0,0,0,36.924,4.675h.016l3.724,0c20.5,0,36.984-4.039,48.984-12a49.038,49.038,0,0,0,21.326-32.786l.244-1.46q4.065-.863,8.208-1.409c-5.756,8.8-11.109,17.561-15.93,26.063-17.393,30.608-27.515,56.406-30.146,76.8l-.554-.231a28.289,28.289,0,0,1-7.105-4.28l-.029-.023a20.249,20.249,0,0,0-17.495-3.542c-10.115,2.391-19.369,11.1-25.4,23.886a52.115,52.115,0,0,0,4.45,51.836l.015.022a40,40,0,0,0,13.525,11.686,60.308,60.308,0,0,0,22.243,7.335,53.32,53.32,0,0,0,6.24.437h.266a35.757,35.757,0,0,0,12.388-2.207,51.761,51.761,0,0,0,33.292-39.886s1.08-10,.656-14.534A51.046,51.046,0,0,0,360.92,715.6l.026.016a40.946,40.946,0,0,0,12.591,4.828,44.463,44.463,0,0,0,9.79,1.092h.056a46.053,46.053,0,0,0,41.974-27.356l.018-.043a58.32,58.32,0,0,0,3.957-16.827h0A44.912,44.912,0,0,0,419.746,643.851Zm-56.668-3.774a27.2,27.2,0,0,0-12.535,5.039c-7.277,5.312-11.618,14.2-12.9,26.419a40.807,40.807,0,0,0,.044,8.742,26.811,26.811,0,0,0-2.9-3.936,20.46,20.46,0,0,0-16.4-7.2l-.038,0a27.824,27.824,0,0,1-9.792-1.02l-1.088-.314c2.215-19.452,12.3-45.384,29.358-75.372,2.168-3.811,4.317-7.428,6.116-10.409a130.775,130.775,0,0,0,1.572,15.5c2.881,17.243,9.358,31.762,18.886,42.5Z" fill="none" stroke="#b36b77" stroke-miterlimit="10" stroke-width="1"/>
        <path id="Path_2410" data-name="Path 2410" d="M760.126,212.549a31.02,31.02,0,0,0-29.082-11.269,48.362,48.362,0,0,0-16.652,5.638l-1.235.688c-13.341-12.3-18.708-29.67-20.848-42.494a117.33,117.33,0,0,1-1.369-26.749c8.076-12.521,14.207-20.906,14.823-21.7l.089-.11a3.8,3.8,0,0,0-6.078-4.558l0,0c-.643.826-3.747,5.153-7.8,11.057a128.146,128.146,0,0,0-15.537,2.317l-2.43-1.248a52.7,52.7,0,0,0-26.263-5.759c-15.172.7-29.289,8.07-41.958,21.91-19.232,21-32.621,24.422-38.339,25.882l-.46.138a4.154,4.154,0,0,0,.1,8.046,185.172,185.172,0,0,0,36.924,4.675h.016l3.725,0c20.5,0,36.983-4.039,48.983-12a49.038,49.038,0,0,0,21.326-32.786l.244-1.46q4.065-.862,8.208-1.409c-5.756,8.8-11.109,17.561-15.93,26.063-17.393,30.608-27.515,56.406-30.146,76.8l-.554-.231a28.287,28.287,0,0,1-7.1-4.28l-.029-.023a20.253,20.253,0,0,0-17.495-3.543c-10.115,2.392-19.369,11.1-25.395,23.887a52.115,52.115,0,0,0,4.45,51.836l.015.022a40,40,0,0,0,13.525,11.686A60.307,60.307,0,0,0,630.1,320.9a53.314,53.314,0,0,0,6.24.437h.266A35.757,35.757,0,0,0,649,319.132a51.761,51.761,0,0,0,33.292-39.886s1.08-10,.656-14.534A51.046,51.046,0,0,0,701.3,284.3l.026.016a40.945,40.945,0,0,0,12.591,4.828,44.462,44.462,0,0,0,9.79,1.092h.056a46.053,46.053,0,0,0,41.974-27.356l.018-.043a58.32,58.32,0,0,0,3.957-16.827h0A44.911,44.911,0,0,0,760.126,212.549Zm-56.668-3.774a27.2,27.2,0,0,0-12.535,5.039c-7.277,5.312-11.618,14.2-12.9,26.419a40.809,40.809,0,0,0,.044,8.742,26.808,26.808,0,0,0-2.9-3.936,20.46,20.46,0,0,0-16.4-7.2l-.037,0a27.851,27.851,0,0,1-9.793-1.02l-1.088-.314c2.215-19.452,12.3-45.384,29.358-75.372,2.168-3.811,4.317-7.428,6.116-10.409a130.738,130.738,0,0,0,1.572,15.5c2.881,17.244,9.358,31.763,18.886,42.5Z" fill="none" stroke="#b36b77" stroke-miterlimit="10" stroke-width="1"/>
        <path id="Path_2411" data-name="Path 2411" d="M477.479,323.756A31.02,31.02,0,0,0,448.4,312.487a48.363,48.363,0,0,0-16.652,5.638l-1.235.688c-13.341-12.3-18.708-29.67-20.848-42.494a117.281,117.281,0,0,1-1.369-26.749c8.076-12.521,14.207-20.906,14.823-21.7l.089-.11a3.8,3.8,0,1,0-6.078-4.558l0,0c-.643.826-3.747,5.153-7.8,11.057a128.147,128.147,0,0,0-15.537,2.317l-2.43-1.248a52.7,52.7,0,0,0-26.263-5.759c-15.172.7-29.289,8.07-41.958,21.91-19.232,21-32.621,24.422-38.339,25.882l-.46.138a4.154,4.154,0,0,0,.1,8.046,185.174,185.174,0,0,0,36.924,4.675h.016l3.724,0c20.5,0,36.984-4.04,48.984-12a49.043,49.043,0,0,0,21.326-32.786l.244-1.46q4.065-.862,8.208-1.409c-5.756,8.8-11.109,17.561-15.93,26.063-17.393,30.608-27.515,56.406-30.146,76.8l-.554-.231a28.286,28.286,0,0,1-7.105-4.28l-.029-.023a20.253,20.253,0,0,0-17.495-3.543c-10.115,2.392-19.369,11.1-25.4,23.887a52.115,52.115,0,0,0,4.45,51.836l.015.022a40,40,0,0,0,13.525,11.686,60.307,60.307,0,0,0,22.243,7.335,53.313,53.313,0,0,0,6.24.437h.266a35.756,35.756,0,0,0,12.388-2.206,51.761,51.761,0,0,0,33.292-39.886s1.08-10,.656-14.535a51.041,51.041,0,0,0,18.356,19.59l.026.016a40.944,40.944,0,0,0,12.591,4.828,44.522,44.522,0,0,0,9.79,1.092h.056a46.053,46.053,0,0,0,41.974-27.356l.018-.043a58.319,58.319,0,0,0,3.957-16.828h0A44.911,44.911,0,0,0,477.479,323.756Zm-56.668-3.774a27.2,27.2,0,0,0-12.535,5.039c-7.277,5.312-11.618,14.2-12.9,26.419a40.807,40.807,0,0,0,.044,8.742,26.808,26.808,0,0,0-2.9-3.936,20.46,20.46,0,0,0-16.4-7.2l-.038,0a27.847,27.847,0,0,1-9.792-1.02l-1.088-.314c2.215-19.452,12.3-45.384,29.358-75.372,2.168-3.811,4.317-7.428,6.116-10.409a130.738,130.738,0,0,0,1.572,15.5c2.881,17.244,9.358,31.763,18.886,42.5Z" fill="none" stroke="#b36b77" stroke-miterlimit="10" stroke-width="1"/>
        <path id="Path_2412" data-name="Path 2412" d="M1044.707,102.579a31.02,31.02,0,0,0-29.082-11.269,48.362,48.362,0,0,0-16.652,5.638l-1.235.688c-13.341-12.3-18.708-29.67-20.848-42.494a117.278,117.278,0,0,1-1.369-26.749c8.076-12.521,14.207-20.906,14.823-21.7l.089-.11a3.8,3.8,0,0,0-6.078-4.558l0,0c-.643.826-3.747,5.153-7.8,11.057A128.144,128.144,0,0,0,961.025,15.4l-2.43-1.248a52.7,52.7,0,0,0-26.263-5.759c-15.172.7-29.289,8.07-41.958,21.91-19.232,21-32.621,24.422-38.339,25.882l-.46.138a4.154,4.154,0,0,0,.1,8.046A185.172,185.172,0,0,0,888.6,69.042h.016l3.725,0c20.5,0,36.983-4.04,48.983-12a49.043,49.043,0,0,0,21.326-32.786l.244-1.46q4.065-.863,8.208-1.409c-5.756,8.8-11.109,17.561-15.93,26.063-17.393,30.608-27.515,56.406-30.146,76.8l-.554-.231a28.287,28.287,0,0,1-7.1-4.28l-.029-.023a20.253,20.253,0,0,0-17.5-3.543c-10.115,2.392-19.369,11.1-25.395,23.887a52.115,52.115,0,0,0,4.45,51.836l.015.022A40,40,0,0,0,892.44,203.6a60.307,60.307,0,0,0,22.243,7.335,53.31,53.31,0,0,0,6.24.437h.266a35.756,35.756,0,0,0,12.388-2.206,51.761,51.761,0,0,0,33.292-39.886s1.08-10,.656-14.535a51.041,51.041,0,0,0,18.356,19.59l.026.016a40.946,40.946,0,0,0,12.591,4.828,44.523,44.523,0,0,0,9.79,1.092h.056a46.053,46.053,0,0,0,41.974-27.356l.018-.043a58.319,58.319,0,0,0,3.957-16.828h0A44.912,44.912,0,0,0,1044.707,102.579Zm-56.668-3.774a27.2,27.2,0,0,0-12.535,5.039c-7.277,5.312-11.618,14.2-12.9,26.419a40.809,40.809,0,0,0,.044,8.742,26.808,26.808,0,0,0-2.9-3.936,20.46,20.46,0,0,0-16.4-7.195l-.037,0a27.851,27.851,0,0,1-9.793-1.02l-1.088-.314c2.215-19.452,12.3-45.384,29.358-75.372,2.168-3.811,4.317-7.428,6.116-10.409a130.738,130.738,0,0,0,1.572,15.5c2.881,17.244,9.358,31.763,18.886,42.5Z" fill="none" stroke="#b36b77" stroke-miterlimit="10" stroke-width="1"/>
      </g>
    </g>
  </g>
</svg>
