<svg xmlns="http://www.w3.org/2000/svg" width="51.844" height="53.001" viewBox="0 0 51.844 53.001">
  <path id="Path_2349" data-name="Path 2349" d="M798.054,660.6a7.65,7.65,0,0,0-7.172-2.779,11.926,11.926,0,0,0-4.106,1.39l-.3.17c-3.29-3.032-4.614-7.317-5.141-10.479a28.923,28.923,0,0,1-.338-6.6c1.992-3.088,3.5-5.155,3.655-5.352l.022-.027a.937.937,0,1,0-1.5-1.124h0c-.159.2-.924,1.271-1.923,2.727a31.621,31.621,0,0,0-3.831.571l-.6-.308a13,13,0,0,0-6.477-1.42c-3.742.172-7.223,1.99-10.347,5.4-4.742,5.179-8.044,6.023-9.454,6.383l-.113.034a1.024,1.024,0,0,0,.025,1.984,45.66,45.66,0,0,0,9.106,1.153h.922c5.056,0,9.12-1,12.08-2.96a12.094,12.094,0,0,0,5.259-8.085l.06-.36q1-.213,2.024-.347c-1.419,2.171-2.74,4.331-3.928,6.427-4.289,7.548-6.785,13.91-7.434,18.938l-.137-.057a6.972,6.972,0,0,1-1.752-1.056l-.007-.006a5,5,0,0,0-4.314-.874c-2.494.59-4.776,2.737-6.263,5.891a12.852,12.852,0,0,0,1.1,12.783l0,.005a9.864,9.864,0,0,0,3.335,2.882,14.872,14.872,0,0,0,5.485,1.809,13.144,13.144,0,0,0,1.539.108h.066a8.818,8.818,0,0,0,3.055-.544,12.764,12.764,0,0,0,8.21-9.836,26.229,26.229,0,0,0,.162-3.584,12.588,12.588,0,0,0,4.527,4.831l.006,0a10.1,10.1,0,0,0,3.1,1.191,10.981,10.981,0,0,0,2.414.269h.014a11.357,11.357,0,0,0,10.351-6.746l0-.011a14.389,14.389,0,0,0,.976-4.15h0A11.075,11.075,0,0,0,798.054,660.6Zm-13.975-.931a6.708,6.708,0,0,0-3.091,1.243c-1.795,1.31-2.865,3.5-3.182,6.515a10.064,10.064,0,0,0,.011,2.156,6.607,6.607,0,0,0-.716-.971,5.045,5.045,0,0,0-4.045-1.774h-.009a6.867,6.867,0,0,1-2.415-.252l-.268-.077c.546-4.8,3.034-11.192,7.24-18.587.535-.94,1.064-1.832,1.508-2.567a32.249,32.249,0,0,0,.388,3.822,20.75,20.75,0,0,0,4.657,10.481Z" transform="translate(-749.166 -634.925)" fill="none" stroke="#fff3f2" stroke-miterlimit="10" stroke-width="1"/>
</svg>
