<svg version="1.2" xmlns="http://www.w3.org/2000/svg" viewBox="0 0 53 37" width="53" height="37"><defs><clipPath clipPathUnits="userSpaceOnUse" id="cp1"><path d="m-1539-8085h1920v8198h-1920z"/></clipPath><clipPath clipPathUnits="userSpaceOnUse" id="cp2"><path d="m0.11 0h52.85v36h-52.85z"/></clipPath></defs><style>.a{fill:#1f72cd}.b{fill:#fff}</style><g clip-path="url(#cp1)"><g clip-path="url(#cp2)"><path class="a" d="m4.3 0h44.4c2.4 0 4.3 1.9 4.3 4.2v27.6c0 2.3-1.9 4.2-4.3 4.2h-44.4c-2.3 0-4.2-1.9-4.2-4.2v-27.6c0-2.3 1.9-4.2 4.2-4.2z"/><path fill-rule="evenodd" class="b" d="m14.5 12.6l0.6 1.3v-1.3h6l1.3 2.9 1.3-2.9h15l1.5 1.7 1.6-1.7h7l-5.1 5.6 5.1 5.6-7.1-0.1-1.6-1.7-1.6 1.7h-13.8v-1.3l-0.6 1.3h-3.4l-0.6-1.3v1.3h-6.6l-0.7-1.7h-1.7l-0.8 1.7h-6l5-11.1zm15.4 9.6h7.8l2.5-2.7 2.4 2.7h2.6l-3.7-4 3.7-4h-2.5l-2.4 2.6-2.5-2.6h-7.9zm2-4.8v-1.5h4.9l2.2 2.3-2.3 2.4h-4.8v-1.6h4.3v-1.6zm-24.8 4.8h2.1l0.8-1.8h4.1l0.7 1.8h4v-6.2l2.8 6.2h1.8l2.8-6.2v6.2h2v-7.9h-3.2l-2.4 5.4-2.6-5.4h-3.2v7.5l-3.3-7.5h-2.9zm3.6-3.5l1.3-3.2 1.4 3.2z"/></g></g></svg>