<svg version="1.2" xmlns="http://www.w3.org/2000/svg" viewBox="0 0 54 37" width="54" height="37"><defs><clipPath clipPathUnits="userSpaceOnUse" id="cp1"><path d="m-1601-8085h1920v8198h-1920z"/></clipPath><clipPath clipPathUnits="userSpaceOnUse" id="cp2"><path d="m0.96 0h52.85v36h-52.85z"/></clipPath></defs><style>.a{fill:#fff}</style><g clip-path="url(#cp1)"><g clip-path="url(#cp2)"><path class="a" d="m5.2 0h44.4c2.3 0 4.2 1.9 4.2 4.2v27.6c0 2.3-1.9 4.2-4.2 4.2h-44.4c-2.4 0-4.2-1.9-4.2-4.2v-27.6c0-2.3 1.8-4.2 4.2-4.2z"/><path fill-rule="evenodd" d="m14 11.3c0.5-0.5 1.3-0.9 1.9-1 0.1 0.8-0.2 1.5-0.6 2.1-0.5 0.5-1.2 1-1.9 0.9-0.1-0.7 0.2-1.5 0.6-2zm7.9 11.8v-11.9h4.4c2.3 0 3.9 1.6 3.9 3.9 0 2.3-1.6 3.9-3.9 3.9h-2.6v4.1zm-3.7-8.4q0 0 0 0c-0.2 0.2-1.3 0.9-1.3 2.5 0 1.8 1.5 2.5 1.6 2.6q0.1 0 0.1 0 0 0 0 0c-0.1 0.1-0.3 0.9-0.9 1.8-0.5 0.8-1.1 1.5-2 1.6-0.4 0-0.6-0.1-0.9-0.3-0.3-0.1-0.6-0.2-1.1-0.2-0.6 0-0.9 0.1-1.2 0.2-0.3 0.2-0.5 0.3-0.9 0.3-0.8 0-1.5-0.9-2-1.6-1.1-1.6-1.9-4.5-0.8-6.5 0.5-1 1.5-1.6 2.6-1.6 0.5 0 0.9 0.2 1.3 0.3 0.3 0.1 0.6 0.2 0.8 0.2 0.2 0 0.4-0.1 0.7-0.2 0.5-0.2 1.1-0.4 1.7-0.4 0.4 0.1 1.6 0.2 2.3 1.3zm12.4 5.9c0-1.5 1.2-2.4 3.3-2.5l2.2-0.1v-0.7c0-1-0.6-1.5-1.7-1.5-0.9 0-1.6 0.5-1.7 1.2h-1.6c0-1.5 1.4-2.6 3.4-2.6 2 0 3.4 1.1 3.4 2.8v5.9h-1.7v-1.4c-0.5 0.9-1.6 1.5-2.7 1.5-1.7 0-2.9-1-2.9-2.6zm5.5-0.7v-0.7l-2 0.1c-1.1 0.1-1.7 0.5-1.7 1.3 0 0.7 0.6 1.2 1.6 1.2 1.2 0 2.1-0.8 2.1-1.9zm7.4 3.6c-0.8 2.1-1.6 2.8-3.4 2.8-0.1 0-0.6 0-0.7 0v-1.5c0.2 0.1 0.4 0.1 0.6 0.1 0.8 0 1.2-0.4 1.5-1.3l0.2-0.5-3.1-8.6h1.9l2.1 7h0.1l2.1-7h1.9zm-19.8-6.1h2.1c1.6 0 2.5-0.8 2.5-2.3 0-1.5-0.9-2.4-2.5-2.4h-2.1z"/></g></g></svg>