<svg version="1.2" xmlns="http://www.w3.org/2000/svg" viewBox="0 0 54 37" width="54" height="37"><defs><clipPath clipPathUnits="userSpaceOnUse" id="cp1"><path d="m-1727-8085h1920v8198h-1920z"/></clipPath><clipPath clipPathUnits="userSpaceOnUse" id="cp2"><path d="m0.45 0h52.85v36h-52.85z"/></clipPath></defs><style>.a{fill:#fff}.b{fill:#ed0006}.c{fill:#f9a000}.d{fill:#ff5e00}</style><g clip-path="url(#cp1)"><g clip-path="url(#cp2)"><path class="a" d="m4.7 0h44.4c2.3 0 4.2 1.9 4.2 4.2v27.6c0 2.3-1.9 4.2-4.2 4.2h-44.4c-2.4 0-4.3-1.9-4.3-4.2v-27.6c0-2.3 1.9-4.2 4.3-4.2z"/><path class="b" d="m27.3 25.9c-1.9 1.6-4.2 2.5-6.8 2.5-5.8 0-10.5-4.7-10.5-10.5 0-5.9 4.7-10.6 10.5-10.6 2.6 0 4.9 0.9 6.8 2.5 1.8-1.6 4.2-2.5 6.7-2.5 5.8 0 10.5 4.7 10.5 10.6 0 5.8-4.7 10.5-10.5 10.5-2.5 0-4.9-0.9-6.7-2.5z"/><path class="c" d="m27.3 25.9c2.2-1.9 3.6-4.8 3.6-8 0-3.3-1.4-6.2-3.6-8.1 1.8-1.6 4.2-2.5 6.7-2.5 5.8 0 10.5 4.7 10.5 10.6 0 5.8-4.7 10.5-10.5 10.5-2.5 0-4.9-0.9-6.7-2.5z"/><path class="d" d="m23.6 17.9c0-3.3 1.4-6.2 3.7-8.1 2.2 1.9 3.6 4.8 3.6 8.1 0 3.2-1.4 6.1-3.6 8-2.3-1.9-3.7-4.8-3.7-8z"/></g></g></svg>